<?xml version="1.0" standalone="no"?>
<!DOCTYPE svg PUBLIC "-//W3C//DTD SVG 1.1//EN" "http://www.w3.org/Graphics/SVG/1.1/DTD/svg11.dtd" >
<svg xmlns="http://www.w3.org/2000/svg">
<metadata>
This is a custom SVG webfont generated by Font Squirrel.
Designer    : Alan Hussey
</metadata>
<defs>
<font id="webfontbfl59tdu" horiz-adv-x="388" >
<font-face units-per-em="1024" ascent="819" descent="-205" />
<missing-glyph horiz-adv-x="342" />
<glyph unicode=" "  horiz-adv-x="342" />
<glyph unicode="&#x09;" horiz-adv-x="342" />
<glyph unicode="&#xa0;" horiz-adv-x="342" />
<glyph unicode="!" horiz-adv-x="283" d="M97 303q-2 29 -2 59q0 20 1 40q3 39 18 159q14 120 31 173l9 26q13 41 38 41h6q23 -7 23 -46v-10q-4 -152 -35 -308q-4 -14 -24 -35q-11 -12 -16 -24q-4 -9 -4 -44q-1 -16 -8 -28q-9 -14 -27 -12q-8 2 -10 9zM84 118l9 51q3 11 10 19q5 5 11 5t14 -6q6 -5 7 -9 q5 -14 5 -31q0 -22 -7 -49q0 -4 -1 -8q-10 -45 -29 -65q-6 -6 -13 -6q-5 0 -11 3q-4 2 -5 7q-1 7 -1 16q0 21 8 55q2 10 3 18z" />
<glyph unicode="&#x22;" horiz-adv-x="234" d="M163 739q7 16 22 17q7 1 7 -4q1 -4 1 -11q0 -22 -12 -72q-1 -5 -1 -11q0 -11 7 -54q1 -11 1 -20q0 -15 -4 -26q-6 -16 -27 -17q-11 0 -12 9q-6 37 -6 79q0 18 1 37q5 34 23 73zM55 783q7 15 22 17h2q5 0 5 -5q1 -4 1 -9q0 -24 -13 -82q-2 -4 7 -58q1 -11 1 -19 q0 -16 -4 -26q-6 -15 -27 -16q-10 0 -11 8q-7 32 -7 68q0 23 3 47q1 34 21 75z" />
<glyph unicode="#" horiz-adv-x="777" d="M240 237l-95 -12l-70 -5q-20 2 -36 13q-10 7 -10 17q0 9 7 20t17 16q34 14 93 14h8q13 -1 24 -1t20 1q58 3 109 3h25q23 0 105 -7q112 -9 145 -14q11 -2 129 -28l57 -12q0 -1 -4 -2q-11 -2 -29 -2q-22 0 -54 3q-15 2 -26 2h-126l-154 -3h-12q-101 -2 -123 -3zM480 359 q-8 62 -8 158q0 101 8 153q5 32 24 49q12 10 25 0q2 -1 3 -4q3 -7 3 -20q0 -10 -2 -25q-1 -8 -1 -15v-119l-2 -141l2 -29q1 -17 17 -100q3 -8 4 -16l30 -132q3 -19 3 -38q0 -10 -1 -20q-1 -8 -5 -8q-7 0 -26 25q-7 11 -11 19q-15 27 -29 89q-1 9 -4 16q-24 100 -30 158z M159 694q24 -125 27 -148q0 -8 1 -17q1 -16 1 -41q0 -45 -4 -119l-15 -158q-7 -98 -10 -119l-3 -45q-2 -10 -11 -15q-5 -3 -10 -3q-13 0 -23 20q-5 6 -6 14q-3 16 -3 37q0 27 5 64q4 20 5 34l17 122v8q1 10 1 41t-1 81v15l1 76q0 6 -1 12q-5 37 -28 131l-20 50q-1 5 -1 9 q-1 8 -1 15q0 26 10 32q2 1 6 2h4q17 0 35 -27l6 -12q10 -14 18 -59zM106 563q-4 0 -36 -9q-3 0 -7 -1l-34 -8q-6 0 -11 4q-10 10 -10 21.5t10 24.5q9 12 37 13q5 1 8 1q57 7 121 7q97 0 182 -7q146 -9 219 -20.5t112 -28.5q14 -5 14 -19q0 -4 -3 -5q-5 -2 -12 -2 q-13 0 -33 7q-10 4 -18 5q-145 18 -149 18q-19 2 -38 3q-12 1 -34 1q-53 0 -162 -4q-21 -1 -40 -1l-107 1q-5 -1 -9 -1z" />
<glyph unicode="$" horiz-adv-x="563" d="M48 544q25 54 58 89q44 47 79 65l13 6q49 24 119 27h13q55 0 80 -8l18 -9q15 -7 16 -28q1 -11 -9 -15q-3 -1 -6 -1q-12 0 -28 14t-29 14h-13q-72 0 -105 -10q-16 -5 -34 -13q-47 -23 -89 -74l3 3l-28 -34q-33 -40 -38 -52q-4 -13 -5 -27q0 -5 1 -10q3 -23 41 -35l-16 5 l32 -9q26 -7 81 -7h14q16 2 29 0l134 3q26 -3 52 -9q50 -13 58 -52q3 -21 3 -38q0 -46 -22 -72l-7 -9q-58 -53 -143 -79q-16 -5 -57 -16q-57 -15 -154 -15q-35 0 -58 -1q-9 -1 -16 -1q-23 0 -21 8q12 14 48 20q8 2 15 3l117 16q69 14 106 30l80 34q30 16 54 41q21 21 21 43 q0 14 -8 29q-10 21 -49 25q-11 1 -12 1q-9 1 -24 1q-26 0 -69 -3q-17 -1 -32 -1q-81 0 -105 3q-55 9 -66 13t-23 14q-21 16 -28 55q1 -2 -1 10q-1 5 -1 10q0 21 11 46zM294 675q2 71 16 115q6 16 18 19h2q5 0 7 -3q4 -7 4 -20q0 -9 -2 -21q-2 -10 -2 -18l-1 -152q1 -6 1 -12 q5 -109 16 -184q14 -106 31 -163q9 -32 50 -131q12 -28 22 -63t10 -45q0 -3 -2 -3t-6 3q-19 13 -30 32q-28 44 -60 129q-1 3 -2 5q-30 78 -40 135q-8 45 -17 168q-1 5 -1 9l-13 157q-1 20 -1 43zM119 649l-24 102l-2 20q0 24 12 28q1 1 2.5 1t3.5 -1q24 -7 39 -49 q9 -20 13 -72q0 -9 1 -16q6 -75 10 -148t5 -158q3 -73 3 -127q-2 -57 -5 -85q-5 -32 -5 -33q-2 -1 -3 -1l-3 1q-12 12 -15 49q0 5 -1 10q-3 28 -7 158l-3 119v2q-8 104 -21 200z" />
<glyph unicode="%" horiz-adv-x="692" d="M644 232l7 37q2 7 10 8q14 2 17 -16q1 -7 1 -14v-8q-3 -52 -25 -80q-33 -48 -47.5 -59t-35.5 -15q-27 -5 -49 -5q-58 0 -80 37q-32 52 -32 112q0 35 11 72q4 10 7 21q21 62 108 70h5q26 0 55 -29q16 -16 21 -20q12 -11 12 -25q0 -6 -6 -6q-14 3 -38 23q-14 11 -25 16 q-15 5 -27.5 5t-21.5 -5q-42 -24 -53 -46q-4 -6 -6 -14q-12 -43 -12 -75q0 -23 6 -40q4 -10 9 -20q23 -44 69 -44q11 0 22 2q34 5 64 43q19 25 20 26q7 9 12 36q1 7 2 13zM247 710q1 2 1 5q0 8 -10 29q-7 14 2 14h6q25 0 38 -25q5 -10 5 -20q-3 -35 -51 -57l-5 -2 q-74 -31 -101 -33q-7 -1 -14 -1q-19 0 -39 6q-40 10 -56 44q-5 10 -5 20.5t5 19.5q26 40 92 46h-1q0 -1 49 2h2q18 0 28 -18q8 -11 1 -20q-8 -9 -29 3q-16 9 -26 7l-64 -7q-24 -7 -24 -25q0 -45 70 -47q10 -2 21 0q52 3 97 49q3 5 8 10zM146 95q69 187 124 297 q72 142 205 360q7 11 12 20q3 5 4 5t-3 -10q-11 -26 -29 -64l-181 -391l-11 -25q-8 -19 -48 -135q-19 -53 -43 -98q-5 -11 -17 -11q-4 0 -9 1l-8 6q-4 6 -4 15q0 12 8 30z" />
<glyph unicode="&#x26;" horiz-adv-x="686" d="M477 385q11 57 13 61l2 7l11 34q4 5 9 5q2 0 5 -1q12 -4 12 -20l-3 -28v-1q-6 -78 -23 -147l-21 -100q-10 -32 -30 -58q-4 -6 -29 -48q-4 -10 -11 -18q-14 -15 -94 -33q-28 -6 -40 -10q-35 -12 -63 -12q-35 0 -72 23q-28 19 -28 68v30q1 36 24 102l6 21l54 148v1 q20 64 40 161l20 79q1 11 1 23q0 10 -1 16q-4 58 -38 79q-22 12 -42 12q-23 0 -48 -14q-58 -34 -61 -85v-12q0 -50 39 -109q4 -6 10 -14q47 -70 133 -152l43 -43q35 -32 127 -103l142 -103l5 -4l58 -36q8 -6 8 -11.5t-7 -10.5q-7 -6 -16 -6q-12 0 -44 26q-14 12 -22 16 q-58 34 -118 79q-40 28 -115 92l-95 82q-17 15 -33 33q-61 63 -99 125q-42 71 -52 119l-2 11q-2 15 -2 20q0 22 19 62q16 33 46 48q41 20 89 20h8q37 -1 63.5 -22.5t37.5 -58.5q6 -13 6 -31l-4 -37q-6 -59 -23 -122q-1 -5 -22 -64l-5 -16l-15 -70l-38 -97v-2l-33 -100 q-7 -27 -8 -57v-7q0 -54 33 -62q24 -6 54 -6q47 0 119 30q27 10 45 44l12 23q18 34 37 105q2 8 21 103q2 12 5 23z" />
<glyph unicode="'" horiz-adv-x="203" d="M95 769q7 14 21 15h1q3 0 5 -4q2 -13 -10 -71q-1 -5 -1 -8q-2 -4 6 -51q1 -8 1 -15q0 -15 -4 -24q-7 -13 -24 -15q-9 0 -10 7q-6 39 -6 69q0 17 2 32q4 30 19 65z" />
<glyph unicode="(" horiz-adv-x="434" d="M95 566q46 93 76 129l19 22q57 62 118 89q6 4 13 6q3 1 6 1q10 0 17 -15q5 -10 0 -18q-9 -13 -41 -22q-20 -4 -30 -14q-72 -66 -102 -110l-17 -28q-42 -79 -58 -180q-1 -4 -1 -8q-8 -52 -8 -101.5t8 -96.5l13 -87q11 -46 46 -71q17 -14 41 -14t55 15l31 14q27 13 57 52 q15 20 27 32q-17 -67 -74 -118q-4 -3 -6 -5l-64 -27q-7 -2 -15 -2q-6 0 -12 1q-62 10 -88 55q-37 70 -51 172q0 7 -4 35q-3 26 -3 58q0 52 9 119q2 8 2 9q7 49 36 108z" />
<glyph unicode=")" horiz-adv-x="292" d="M173 478q-9 52 -24 101q-27 85 -52 135q-5 10 -31 36q-16 14 -17 33q-3 14 18 21q5 1 9 1q8 0 13 -4q38 -31 65 -93q-9 20 -9 20.5t20 -43.5q39 -90 53 -169q10 -67 10 -130q0 -35 -3 -70q-5 -45 -33 -147q-7 -27 -12 -49q-34 -62 -45 -74q-24 -24 -60 -24l30 56l32 62 l5 14q23 68 34 142q4 25 5 64q0 13 -1 27q-1 50 -7 91z" />
<glyph unicode="*" horiz-adv-x="323" d="M135 793q1 9 12 9h4q8 -1 9 -7q3 -48 3.5 -99t-3.5 -103q-1 -7 -9 -7q-3 0 -7 1q-8 2 -9 7q-3 54 -3 104t3 95zM193 756l29 22q5 3 9 3q5 0 10 -5q3 -3 3 -6q0 -9 -19 -23q-10 -8 -13 -10q-70 -64 -97 -83q-15 -10 -32 -20q-7 -5 -16 7q-3 4 -3 8q0 2 2 4q35 39 101 84z M116 744q-17 13 -18 14q-2 1 -4 1q-4 0 -7 -2q-4 -3 -4 -8q0 -8 10 -20l85 -86q31 -29 44 -29q2 0 4 1q4 2 4 6q0 17 -64 75l-45 44q-3 2 -5 4z" />
<glyph unicode="+" horiz-adv-x="458" d="M101 420q98 5 146 5q20 0 31 -1q18 -2 39 -4q76 -10 85 -13q29 -10 49 -35q6 -8 6 -13q0 -6 -12 -5l-46 5q-7 0 -64 7q-11 2 -22 2l-188 -3q-19 0 -37 3q-59 7 -60 7q-24 7 -31 28q-1 2 -1 4q0 11 18 14q1 0 76 -1h11zM188 368l-21 186l-6 30q-4 18 -31 72q-14 28 -14 52 q0 9 2 18q2 11 9 11q13 0 44 -42q7 -8 13 -17q40 -67 53 -129q0 -4 2 -9q19 -94 22 -237l3 -136q-3 -44 -16 -89q-3 -7 -8 -7q-8 0 -21 16q-11 14 -14 26q-8 35 -8 102q0 20 1 43q0 34 -2 62z" />
<glyph unicode="," horiz-adv-x="225" d="M93 30l5 68v2l-9 58q2 10 12 13h5q21 0 29 -42q3 -9 4 -22q4 -28 4 -55q0 -46 -12 -90q-16 -50 -42 -50q-4 0 -8 1q-7 2 -7 11t6 23q7 19 8 28q4 32 5 55z" />
<glyph unicode="-" horiz-adv-x="514" d="M100 399q8 1 33.5 1t67.5 -1h14h162h12l75 7q20 -2 20 -21q0 -29 -49 -29q-47 -1 -46 -1q-58 -5 -120.5 -5t-130.5 5l-74 2q-25 5 -42 24q-3 4 -3 7q0 8 19 10z" />
<glyph unicode="." horiz-adv-x="191" d="M69 70q24 21 41 21q3 0 6 -1q39 -12 39 -35q0 -3 -1 -7q-7 -33 -56 -42q-6 -1 -12 -1q-28 0 -37 25q-3 4 -3 9q0 15 23 31z" />
<glyph unicode="/" horiz-adv-x="590" d="M212 333l101 160l121 183l49 76q13 16 30 29q14 13 29 13q6 0 12 -2q9 -2 9 -11q0 -24 -29 -54q-15 -17 -21 -27l-126 -184l-120 -183l-98 -163q-12 -15 -23 -32l-51 -82q-15 -20 -30 -20q-9 0 -17 6q-4 3 -4 9q0 18 32 66q27 39 35 53q10 19 93 151z" />
<glyph unicode="0" horiz-adv-x="790" d="M350 665q4 20 4 39q0 57 -39 101q-7 9 -21.5 9t-34.5 -9l-24 -9q-49 -14 -64 -28q-6 -6 -8 -10q-74 -97 -81 -107q-31 -50 -42 -105q-13 -64 -13 -120q0 -61 16 -114q3 -13 19 -51q52 -122 113 -172q28 -25 73 -44q54 -23 110 -23q62 0 126 27q19 7 39 18q120 57 178 149 q21 37 34 67q26 57 26 129q0 28 -4 59l-13 96q-2 22 -31 59q-9 12 -15 22l-18 22l18 -77l13 -141v-24q0 -40 -5 -60q-18 -71 -43 -110q-41 -64 -98 -106q-47 -37 -118 -59q-55 -19 -94 -19q-8 0 -16 1q-61 7 -107 42q-44 36 -83 102q-5 8 -5 9q-34 58 -47 123q-5 29 -5 61.5 t5 69.5q11 85 39 140q29 62 75 98q46 33 73 33h5q8 0 17 -3q18 -8 36 -77q4 -15 6 -15q1 -1 2 2z" />
<glyph unicode="1" horiz-adv-x="265" d="M131 791l-26 15l-26 -22l-6 -25l6 -194l6 -185l5 -153l8 -87l20 -86l20 -37l6 295v244l7 211z" />
<glyph unicode="2" horiz-adv-x="661" d="M-29 625l80 70q9 8 20 15q57 39 109 59q29 12 58 12l22 -2q46 -6 65 -30q11 -16 11 -46q0 -10 -1 -22q-1 -8 -1 -12q-1 -19 -16 -75q-2 -8 -3 -15l-42 -161l-4 -18q-16 -89 -16 -90q-1 -11 -1 -23q0 -15 2 -31l11 -84q9 -46 44 -66q8 -5 17 -5q19 0 43 24q33 35 40 41 q16 11 72 61q14 13 28 23q73 58 125 90q22 15 104 55l40 15l-140 -120l-159 -124l-84 -75q-9 -8 -20 -15q-29 -20 -52 -20h-4q-43 3 -59 30q-48 70 -58 133q-1 7 -2 16q-2 15 -2 32q0 44 13 102l8 41q5 22 33 115q7 22 13 45q18 77 19 115v5q0 23 -15 29q-18 10 -40 10 q-14 0 -29 -4q-22 -6 -59 -32l-20 -14l-63 -34l-12 -6q-12 -4 -65 -12q-6 -1 -10 -2z" />
<glyph unicode="3" horiz-adv-x="701" d="M55 687l-36 -29l3 -20l26 -16l52 36l77 44l105 45l130 9l89 -17l45 -32l16 -33l-16 -48l-29 -25l-49 -48l-68 -52l-19 -30q-1 -3 -2 -7q-1 -17 13 -24q7 -5 35 -10l10 -2l64 -22q12 -7 24 -15q25 -19 50 -63q2 -5 3 -6q27 -48 29 -57q3 -12 3 -25v-7q-1 -43 -40 -85 q-44 -47 -88 -60q-6 -3 -14 -5q-18 -5 -41 -5q-28 0 -62 7l-30 6q-6 1 -20 14q-6 5 -12 7q-16 2 -21 -12q-4 -15 9 -25q31 -29 56 -33q35 -6 74 -6t80 6q29 4 64 29q48 32 73 65q19 25 25 64q5 32 5 57t-5 44q-14 59 -41 86q-3 5 -8 8q-83 74 -128 74q-5 0 -9 -1 q-16 -3 -7 7l69 59l7 7l54 63q13 20 22 42q6 16 6 36q0 24 -9 53q-7 17 -35 34q-3 2 -6 3q-36 19 -69 24q-32 5 -70 5q-19 0 -39 -1q-82 -5 -126 -16q-50 -14 -138 -53q-8 -4 -69 -37q-6 -4 -12 -7z" />
<glyph unicode="4" horiz-adv-x="805" d="M474 740l18 -369l214 78h37l15 -18l-18 -11l-100 -53l-133 -51l-15 -7l3 -206l5 -56l3 -14l-17 -30l-10 -2l-23 26l-10 53l-9 36l-6 184l-221 3l-82 7q-7 0 -28 8q-48 20 -59 34q-9 11 -12 25q-1 5 -1 11q0 27 22 61q16 23 19 27q24 36 61 69q10 9 16 16q39 40 90 85 q68 61 107 92l50 40q7 6 30 16q11 4 21 4q15 0 26 -11q8 -8 8 -24q0 -4 -1 -10q-1 -3 0 -13zM424 362l-15 354l-328 -272l-7 -26l4 -25l22 -19l32 -15l104 -4z" />
<glyph unicode="5" horiz-adv-x="507" d="M92 372l61 74q14 14 30 26q44 28 93 28h7q65 -2 89 -24q6 -4 11 -12q35 -47 35 -117q0 -3 -0.5 -9t-0.5 -14q-5 -89 -44 -169l-4 -9q-34 -65 -82 -99q-7 -3 -15 -8q-28 -17 -60 -17q-19 0 -39 6q-38 11 -70 53q-1 2 -4 6q-6 8 6 2l39 -20l20 -4h1l44 -17q8 -1 15 2 q26 7 56 37q6 7 10 11q21 20 34 48q18 42 30 96q18 85 18 112v21q-2 53 -24 73q-2 2 -6 4q-17 12 -45 12q-12 0 -27 -2q-11 -2 -12 -2q-32 -5 -63 -29q-20 -17 -60 -68l-14 -18l-27 -35q-3 -3 -7 -6q-13 -11 -21 -11q-5 0 -8 4q-6 8 -6 25q0 10 2 22q1 7 1 12q0 9 15 147 q2 13 3 28q7 77 7 99q0 15 -7 70l-13 40q0 6 6 8q43 18 126 24q37 3 62 6l123 17q5 1 10 1l53 4q8 -1 8 -5q0 -3 -2 -6q-18 -25 -67 -37q-19 -5 -28 -7q-15 -5 -79 -12l-14 -3l-85 -15l-58 -4h-1l7 -29v-74q-1 -22 -11 -100z" />
<glyph unicode="6" horiz-adv-x="572" d="M334 256q11 -7 73 -34q43 -20 63 -52q4 -7 4 -13q0 -24 -52 -46q-68 -28 -144 -28h-10h-6q-91 5 -115 12q-31 9 -59 29q-32 22 -32 79q0 9 1 19q1 2 1 6q4 59 43 125q3 7 10 20q23 44 85 122q23 29 39 54q54 83 72 113q30 56 31 61q5 12 7 26q1 7 1 13q0 24 -18 33 q-2 1 -4 1l-20 -25q-2 -5 -1 -27q1 -6 -1 -11q-9 -33 -28 -65q-32 -56 -68 -103l-72 -89l-6 -8l-63 -99q-13 -24 -23 -52q-24 -62 -24 -126v-14q4 -51 33 -78.5t86 -41.5q3 0 11 -3q56 -11 161 -14h6q40 0 75 12q39 13 68 37l43 36q15 15 15 35q0 32 -41 60q-26 16 -27 17 q-17 13 -63 26q-9 2 -16 4l-88 20z" />
<glyph unicode="7" horiz-adv-x="560" d="M91 743q-39 19 -49 35q-2 5 -4 11q-1 2 -1 3q0 3 4 3h2l35 -10l126 -26h1l177 -15l91 -8q26 -6 47 -23q11 -8 11 -26q0 -11 -5 -27t-6 -22q-3 -19 -26 -71q-2 -6 -5 -10l-114 -272l-64 -146q-16 -44 -25 -84l2 -34l-3 -6q-2 -4 -6 -4q-6 0 -15 10q-14 26 -13 53 q4 33 28 98q4 8 48 107q2 7 6 14q92 221 100 242l20 56l29 61q2 6 2 12q0 13 -13 19q-49 20 -96 20q-20 0 -35 2l-142 12h-1q-73 12 -96 21z" />
<glyph unicode="8" horiz-adv-x="467" d="M268 698h54q4 -2 -1 -7q-23 -22 -81 -43q-31 -12 -50 -24l-65 -38q-21 -15 -33 -38q-14 -24 -14 -48t14 -49q17 -32 63 -61q31 -20 46 -34q18 -15 84 -57q58 -36 75 -81q1 -4 2 -9q5 -15 5 -29q0 -60 -84 -107q-77 -43 -126 -43q-22 0 -38 9q-14 8 -24 20q-23 27 -23 71 q0 22 6 48q2 6 10 39q10 40 50 93q16 21 25 34q7 11 55 70q16 21 28 40q74 120 109 203q12 30 26 105q2 11 4 20q1 7 4 88q0 23 4 24h1q2 0 6 -7q19 -38 19 -56q-1 -9 0 -16q2 -28 2 -52q0 -40 -6 -69q-10 -45 -49 -123q-35 -71 -71 -120q-15 -20 -83 -99q-28 -34 -49 -64 q-38 -55 -45 -83q-3 -11 -4 -23q-3 -22 -3 -39q0 -35 11 -51q8 -11 19 -19q10 -7 23 -7q20 0 48 16q24 14 27 15q52 25 67 43q9 11 15 24q5 13 5 25q0 26 -24 50t-83 49q-34 15 -56 30q-70 51 -108 100q-2 2 -5 6q-23 29 -23 60q0 5 1 11q4 40 40 87q16 19 63 49q11 7 21 15 z" />
<glyph unicode="9" horiz-adv-x="636" d="M551 745q15 -201 14 -191q3 -73 10 -291v-116q1 -16 3 -32q2 -13 20 -47q7 -16 9 -30q1 -3 1 -5q0 -8 -9 -12q-3 -1 -4.5 -1t-3.5 1q-31 18 -47 54q-13 31 -16 92v9q-1 21 -4 186q-2 28 -3 55l-17 231q-33 -63 -40 -75l-44 -66q-15 -19 -36 -34l-78 -59q-36 -22 -74 -22 q-9 0 -19 1q-124 19 -171 130q-14 33 -14 66q0 62 51 122q43 51 122 66q11 3 65 11q20 3 41 3q52 0 111 -18q11 -3 26 -9q17 -5 24 -24q4 -11 -4 -16q-7 -4 -17 -4q-13 0 -31 7q-16 7 -25 8l-70 10h-11q-60 -3 -97 -17q-70 -29 -93 -47q-14 -12 -28 -27q-17 -20 -17 -48 q0 -13 4 -29q17 -66 47 -95q5 -6 13 -12q38 -30 78 -30q13 0 26 3q54 13 104 61l23 23q35 35 69 99q7 14 12 22t23 62q7 19 17 35q17 26 29 29q4 1 8 1q10 0 16 -17q4 -9 7 -13z" />
<glyph unicode=":" horiz-adv-x="171" d="M99 259q15 -12 15 -27q0 -10 -6 -21q-1 -5 -5 -9q-21 -25 -42 -25l-16 4l-8 4q-13 11 -13 26q0 14 11 32q2 4 6 8q15 18 32 18q9 0 18 -5zM57 613h8q50 0 58 -37q2 -7 2 -14q0 -20 -19 -35q-11 -9 -23 -9h-1q-29 0 -42 42q-1 5 -3 12q-1 7 -1 13q0 19 13 26q4 2 8 2z" />
<glyph unicode=";" horiz-adv-x="163" d="M65 20l6 55v1l-11 45q2 9 15 10h6q25 0 36 -31q3 -8 4 -18q6 -22 6 -44q0 -36 -16 -70q-19 -41 -52 -41q-4 0 -9 1q-9 2 -9 9q0 6 8 18q9 15 10 22q4 24 6 43zM46 448q22 5 37 5q24 0 34 -12q4 -5 4 -11q0 -11 -16 -28l-10 -13q-20 -24 -29 -26h-3q-4 0 -8 2 q-22 11 -22 43v12v7q0 18 13 21z" />
<glyph unicode="&#x3c;" horiz-adv-x="589" d="M111 399l70 -28q7 -4 14 -9q20 -12 88 -66l28 -22l127 -85q6 -3 12 -8q5 -4 52 -31q29 -15 29 -30q0 -7 -5 -13q-9 -12 -24 -12q-18 0 -43 16q-41 24 -46 26q-36 16 -110 67q-15 11 -28 19l-128 92q-12 8 -25 15q-10 6 -48 13q-20 4 -32 16q-15 15 -15 30q0 11 7 22 q2 2 5 6q29 34 92 66l45 25q70 43 167 95q49 26 88 40q4 2 51 29q16 9 27 9q13 0 19 -12q3 -6 3 -13q0 -19 -32 -39q-43 -26 -42 -25q-23 -16 -87 -46l-25 -12l-92 -47l-64 -41l-1 -1z" />
<glyph unicode="=" horiz-adv-x="506" d="M402 277q-12 -1 -39 -1t-70 1l-155 -1q-6 1 -12 1l-73 -6q-19 3 -19 20q0 27 49 29h43q55 4 115.5 4t125.5 -4l70 -3q24 -3 40 -22q3 -4 3 -7q0 -7 -19 -10zM98 514q13 1 40.5 1t69.5 -1l154 2q6 -2 12 -2l73 6q19 -2 19 -20q0 -27 -48 -28h-44q-55 -5 -115.5 -5 t-125.5 5l-69 2q-25 4 -40 23q-3 4 -3 7q0 7 18 9z" />
<glyph unicode="&#x3e;" horiz-adv-x="589" d="M472 394l-69 -29q-6 -3 -13 -8q-22 -13 -92 -68q-13 -10 -25 -18l-125 -85l-12 -10l-71 -41q-11 -9 -11 -19q0 -6 5 -13q10 -12 25 -12q18 0 44 16q39 23 43 26q39 17 115 71l23 16l129 91l24 14q9 5 48 13q20 4 32 15q15 15 15 31q0 11 -8 23q-1 3 -4 5q-30 33 -94 66 l-44 24q-94 58 -165 94q-45 25 -88 41q-4 1 -51 28q-16 10 -27 10q-13 0 -19 -12q-3 -6 -3 -12q0 -20 34 -40q40 -24 41 -25q22 -18 86 -46q14 -6 26 -12l91 -47l63 -40z" />
<glyph unicode="?" horiz-adv-x="527" d="M258 92q20 0 31 -23q8 -18 -2 -29q-20 -19 -43 -19q-7 0 -15 2q-16 5 -23 17q-4 7 -4 13q0 15 23 29q16 10 33 10zM176 776q57 26 103 26q17 0 33 -4q7 -2 16 -4q86 -26 120 -78q7 -12 13 -25q20 -45 20 -93q0 -42 -16 -85l-8 -18q-32 -73 -103 -111q-13 -7 -30 -14 q-5 -2 -10 -2q-15 0 -26 20q-10 15 -5 30q3 9 18 9q6 0 12 -1q22 -2 29 6q56 63 71 113q5 13 7 28q4 19 4 37q0 47 -30 84q-32 41 -93 41h-11q-85 -5 -122 -30q-16 -10 -29 -25q-33 -37 -36 -106q-4 -53 -4 -58q0 -8 17 -29q10 -12 1 -18q-10 -6 -21 -6q-13 0 -26 9 q-9 8 -12 19q-9 41 -9 79q0 49 15 91l9 22q20 52 79 82q10 5 24 11z" />
<glyph unicode="@" horiz-adv-x="855" d="M803 423v6q0 19 -4 88q-1 23 2 24q2 0 5 -4q32 -38 32 -94v-7q-4 -95 -10 -119q-3 -7 -12 -34q-26 -79 -67 -129q-4 -5 -9 -10q-55 -62 -89 -80q-22 -11 -47 -18q-94 -26 -166 -26q-20 0 -38 2q-28 4 -58 10q-119 28 -180 76q-25 21 -49 49q-87 100 -94 233q-1 18 -1 43 q0 71 63 185q27 49 118 128q63 55 160 55h10q25 -1 67 -6q86 -8 153 -86q64 -75 74 -217q2 -22 2 -44q0 -64 -16 -119q-22 -80 -77 -88q-8 -1 -17 0q-27 2 -36 41q-11 51 -16 60l-39 -54q-20 -29 -45 -43q-75 -44 -86 -48q-28 -11 -56 -11q-20 0 -40 6q-65 21 -88 78 q-8 20 -8 41q0 10 2 21q18 86 92 154q15 15 76 65q23 20 47 20q13 0 26 -6q12 -6 21 -17q12 -15 12 -40q0 -14 -4 -32q-8 -33 -8 -50q-5 10 -13 59q-7 37 -28 37q-5 0 -11 -2q-36 -9 -88 -61q-23 -23 -38 -46q-40 -66 -44 -91q-2 -9 -2 -17q0 -23 14 -43q24 -31 71 -31 q25 0 56 9q11 3 27 8q38 12 75 57q24 32 34 41q12 13 47 76q22 40 39 40q2 0 4 -1q11 -4 11 -29q0 -14 -3 -33q-7 -38 -7 -62q0 -19 5 -29q6 -10 15 -15q4 -2 7 -2q16 0 28 38q16 54 16 109q0 13 -1 27q0 5 -1 17q-8 101 -46 167q-35 62 -66 81q-16 11 -35 16q-51 17 -98 17 q-38 0 -72 -11q-13 -3 -25 -9q-62 -24 -110 -85l-33 -43q-51 -72 -66 -148q-1 -9 -3 -20q-5 -29 -5 -55q0 -50 17 -93l5 -9q39 -89 79 -125q19 -19 47 -35q101 -62 203 -72q25 -2 54 -2q90 0 168 49q16 9 34 22q53 35 84 99q7 13 17 36q22 46 31 127q2 20 5 34z" />
<glyph unicode="A" horiz-adv-x="560" d="M170 315q20 9 76 12h7q133 6 157 6q14 -1 30 -2l81 -4q12 -2 12 -7q0 -6 -17 -16q-33 -20 -111 -21q-36 0 -54 -1q-35 -3 -61.5 -3t-43.5 3q-83 15 -83 27q0 1 1 2q1 3 6 4zM88 41q-8 -16 -24 -15q-18 1 -18 33q0 55 31 147q7 21 11 34l39 189q0 4 1 7q55 194 56 199 q26 76 65 150q8 15 25 15q6 0 14 -2q15 -5 21 -16q46 -91 80 -233q15 -61 22 -87q33 -127 53 -271l17 -106v-10q0 -31 -10 -60q-3 -9 -7 -9q-6 0 -14 28l-17 70q-10 36 -53 236q-5 26 -11 51q-54 228 -74 305q-10 34 -18 34h-1q-8 0 -19 -38q-31 -93 -79 -297 q-12 -52 -23 -95l-40 -186q-11 -37 -27 -73z" />
<glyph unicode="B" horiz-adv-x="572" d="M58 204q-2 26 -2 60q0 77 10 191q8 78 8 142q0 18 -1 36q-1 22 -21 67q-12 27 -12 49v9q9 18 48 18l180 9q70 0 141 -12q66 -10 78 -67q1 -6 1 -12q0 -40 -49 -77q-51 -33 -78 -48l-157 -65q-6 -3 -6 -4q47 -10 181 -45q70 -17 85 -118q2 -9 2 -18q0 -46 -38 -94l-12 -14 q-66 -79 -147 -131q-14 -10 -33 -21q-60 -33 -65 -34q-19 -8 -39 -8q-18 0 -37 6q-32 10 -40 33q-7 28 -8 30q-2 5 2 1l38 -23q10 -6 19 -5q72 14 143 57q2 2 5 4q65 40 114 102q4 3 7 8q37 46 41 57q8 15 8 33q0 7 -1 14q-12 79 -80 96l-106 27q-4 0 -9 2q-95 21 -101 33 q-4 11 111 68q18 8 23 9q65 26 107 60l58 39q13 12 13 24q0 7 -4 14q-20 33 -77 33q-51 0 -60 1q-32 3 -79.5 3t-109.5 -3q-13 -1 -13 -15q0 -10 5 -25q19 -51 19 -63q0 -21 -9 -159q0 -13 -2 -27v-158q-1 -28 -7 -56q-5 -20 -27 -36q-16 -10 -17 3z" />
<glyph unicode="C" horiz-adv-x="664" d="M207 698q30 27 94 52q13 5 22 8q44 18 55 18h4q8 0 17 -3q15 -4 11 -24q-1 -9 -7 -14q-22 -16 -79 -32q-29 -8 -50 -21q-56 -34 -82 -73q-2 -2 -4 -5q-66 -104 -81 -137q-18 -43 -28 -93q-6 -33 -6 -62q0 -59 25 -106q5 -10 11 -20q44 -69 139 -76h15q72 0 178 26 q85 22 142 27q19 2 36 2q28 0 48 -6q6 -1 6 -3q0 -3 -11 -8q-16 -4 -104 -20q-16 -3 -28 -5q-15 -4 -109 -37q-55 -20 -105 -21h-23q-88 0 -119 7q-41 11 -76 38q-75 59 -80 168v21q0 89 47 191l-1 -3q0 -1 34 72q32 67 93 125q7 7 16 14z" />
<glyph unicode="D" horiz-adv-x="625" d="M33 85q-1 13 -1 27q0 78 19 200q12 76 15 131q4 57 4 108q0 81 -9 149l-7 68q1 22 12 32q9 9 24 9q11 0 24 -4q26 -7 42 -9q81 -8 225 -74q30 -14 51 -25q82 -48 83 -48q50 -33 69 -88q12 -35 12 -74q0 -31 -8 -64q-29 -114 -28 -111q-20 -96 -133 -222q-4 -5 -8 -8 q-46 -50 -117 -57q-7 -1 -13 -1q-21 0 -34 8q-38 20 -63 139q-7 34 -7 45q0 5 1 5h1q3 -1 7 -13q25 -74 37 -92q17 -22 45 -31q12 -3 25 -3q53 0 106 63q72 84 97 181q5 20 10 45q20 105 21 121v9q0 62 -41 91q-81 56 -183 92q-13 5 -23 8l-129 42q-20 5 -35 7q-2 -1 -2 -24 q0 -37 5 -131v-17q-5 -45 -7 -203q0 -59 -5 -109l-9 -111q-6 -37 -23 -73q-6 -12 -18 -12q-7 0 -16 4q-15 7 -16 20z" />
<glyph unicode="E" horiz-adv-x="535" d="M204 730q55 12 122 12q42 0 88 -5q-22 2 -22 2.5t71 -5.5q4 -1 8 -1q32 -3 49 -17q3 -3 3 -6t-4 -6q-32 -20 -92 -21q-24 -1 -37 -2l-119 -12h-7q-34 0 -66 8q-14 4 -14 20q0 6 2 13q4 18 18 20zM205 397q41 31 110 47q33 8 35 8l75 24q17 4 31 4q18 0 33 -6q7 -3 7 -7 q0 -11 -45 -31q-26 -14 -27 -14q-21 -9 -94 -29q-19 -4 -36 -10q-7 -3 -41 -24q-16 -11 -32 -11q-5 0 -9 1q-17 2 -17 25q0 17 10 23zM415 264q-7 6 -7 -5l5 -45q-1 -7 -5 -9l-41 -34l-14 -7q-64 -28 -89 -32q-11 -1 -22 -1l-96 -6q-45 3 -66 35q-27 41 -27 96q0 36 12 79 q5 16 15 43l25 96l35 115l6 29q6 42 6 73q0 28 -5 48q-1 7 -4 13q-8 29 -30 35h-3q-6 0 -12 -3q-5 -3 -5.5 -10t5.5 -19q7 -14 7 -22q1 -13 1 -25q0 -34 -5 -56q-2 -11 -21 -78q-3 -6 -4 -11l-42 -140l-2 -12q-28 -113 -28 -114q-6 -30 -6 -66q0 -58 29 -108q24 -40 71 -55 q47 -14 100 -14q25 0 51 3q65 8 133 48q48 26 58 38q13 14 16 32q2 8 2 16q0 40 -43 73z" />
<glyph unicode="F" horiz-adv-x="652" d="M235 482q43 11 98 18l164 24q25 2 49 2q19 0 38 -1q7 0 7 -2q0 -4 -35 -15q-14 -5 -49 -15q-74 -21 -170 -39l-84 -18q-14 -1 -28 -1h-15q-17 1 -23 16q-2 7 1 13q7 13 35 16q8 1 12 2zM64 713l-8 45q1 8 9 13q4 2 10 2q13 0 31 -12q18 -11 31 -11q51 1 175 20q24 3 46 5 l187 17q32 4 61 12q3 1 5 1q13 0 19 -22q2 -7 2 -13q0 -10 -6 -17q-17 -17 -64 -19q-17 -2 -26 -4q-26 -7 -107 -10q-19 -1 -35 -3l-130 -19q-10 -1 -19 -1l-76 -7q-24 1 -47 15q-6 3 -5 -10l12 -83q1 -21 3 -125q2 -60 2 -100t-2 -60l-6 -117q-5 -31 -14 -63 q-21 -71 -30 -86q-14 -25 -41 -40q-4 -2 -7 -2q-8 0 -9 17q0 4 9 64q2 18 20 66q8 21 10 40q9 83 11 270v15l-7 126l-4 95v1z" />
<glyph unicode="G" horiz-adv-x="705" d="M103 463q20 61 62 125q34 53 98 119q58 58 68 66q20 15 44 27q2 1 3 1q5 0 7 -12q3 -9 -1 -16q-7 -16 -34 -43l-11 -13l-79 -93q-4 -3 -7 -8q-37 -51 -58 -94q-30 -59 -43 -108q-20 -71 -20 -119q0 -75 1 -81q3 -29 19 -55q44 -73 96 -79q7 -1 15 -1q138 1 192 15 q70 18 132 68q47 37 47 92q0 45 -30 100q-1 1 -28 25q-18 18 -18 31q0 6 4 11q8 9 18 9q17 0 40 -25q8 -7 13 -16q38 -66 39 -133v-8q0 -66 -30 -106q-3 -4 -6 -7q-39 -50 -103 -75q-12 -3 -27 -9q-91 -31 -156 -31h-8q-14 1 -30 3q-98 12 -147 42q-22 12 -43 31 q-30 26 -37 83q-6 46 -6 47q-2 14 -2 34q0 28 4 69q1 5 1 8q10 85 12 95q3 15 9 31z" />
<glyph unicode="H" horiz-adv-x="652" d="M95 381q9 -1 49 -17q13 -5 25 -5q8 0 15 2q38 11 90 52l37 28q8 7 78 62q30 24 61 40q9 4 15 -11q2 -6 0 -11q-11 -20 -40 -44q-8 -6 -14 -11q-48 -43 -104 -86q-52 -40 -58 -44q-8 -5 -17 -8q-35 -18 -75 -18q-32 0 -60 19q-30 18 -33 35q-1 4 -1 9q-1 12 25 10z M427 766q8 42 35 49q2 1 4 1q11 0 17 -23q2 -5 3 -12q12 -44 28 -163q1 -4 1 -6l21 -189q1 -5 2 -11l36 -239q2 -7 3 -13q5 -16 22 -41q13 -20 13 -51q0 -9 -6 -9q-8 0 -27 15q-14 11 -22 22q-17 21 -29 69q-2 8 -3 14q-5 17 -30 141l-2 12l-27 158v2l-33 160q-1 9 -2 16 q-7 57 -7 73q0 8 3 25zM47 374q-4 128 -4 202q0 43 1 68v6q3 72 17 105q2 5 4 11q7 15 24 15q8 0 10 -8q14 -49 15 -136v-40v-22q0 -52 -3 -178l-11 -240q-3 -40 -8 -83q-3 -36 -17 -52q-2 -2 -3 -2q-2 0 -3 5q-9 29 -9 78q0 17 1 35q1 19 1 34v15q-1 28 -8 109z" />
<glyph unicode="I" horiz-adv-x="217" d="M47 751q13 39 39 45h3q16 0 20 -34q5 -28 6 -119q1 -12 1 -23l4 -212q2 -33 7 -67l18 -200q2 -14 5 -24q2 -13 16 -42q7 -15 8 -46q0 -10 -7 -10q-9 0 -27 14q-13 8 -20 17q-17 22 -26 72q-2 9 -4 16q-16 73 -21 122q-13 113 -13 160q0 24 3 32q7 18 0 6q-12 13 -12 199 l-5 70q1 13 5 24z" />
<glyph unicode="J" horiz-adv-x="644" d="M214 641q51 -9 118 -49q11 -6 13 -7l131 -72q48 -29 85 -72q33 -38 33 -106v-4v-11v-20q-2 -63 -42 -114l-66 -82q-39 -41 -93 -56q-25 -7 -50 -7q-67 0 -130 51q-40 32 -40 100q0 8 1 16q1 7 1 13q1 14 6 -3q18 -74 35 -87q58 -40 121 -40h14q4 1 9 1q40 5 83 47 q-10 -10 17 17q48 49 60 83q4 11 6 22q9 41 9 72q0 28 -7 48q-4 11 -10 22q-17 33 -66 58q-31 15 -42 22l-125 66q-22 11 -43 23l-44 21q-10 7 -15 18q-1 4 -1 8q0 12 16 19q9 4 16 3zM106 714q43 15 142 32q75 15 150 22q92 13 139 13q13 -1 13 -4q0 -9 -78 -34 q-28 -11 -69 -24q-143 -41 -248 -55l-78 -12q-33 0 -54 22q-5 5 -5 9q0 11 33 19z" />
<glyph unicode="K" horiz-adv-x="683" d="M279 434q34 39 152 160l64 69q17 16 38 28q22 14 39 14q7 0 14 -3q10 -4 10 -15q0 -25 -31 -50q-21 -18 -28 -28q-20 -24 -94 -99l-54 -52q-3 -4 -5 -6l-58 -70q-14 -21 -21 -47q-5 -17 -5 -31q0 -37 29 -63q48 -38 127 -56l45 -9q26 -6 85 -6h18h7q45 0 78 -13 q7 -3 7 -6q0 -10 -79 -22q-34 -6 -68 -6q-21 0 -41 2q-117 14 -158 27q-21 6 -42 14q-40 16 -58 60q-21 52 -21 103q0 14 2 29q4 28 35 61zM35 759q13 39 39 45h2q17 0 21 -35q-2 -17 -2 -37q0 -37 8 -82q1 -5 1 -23l4 -213q2 -33 7 -68l18 -200q2 -14 5 -25q2 -13 16 -41 q7 -15 8 -46q0 -11 -7 -11q-9 0 -27 14q-13 9 -20 18q-17 21 -26 72q-2 9 -4 16q-16 73 -21 123q-3 30 -11 192v6q-11 190 -11 200l-5 70q1 13 5 25z" />
<glyph unicode="L" horiz-adv-x="658" d="M36 371q-14 55 -14 152q0 32 2 69v14q0 16 -2 69.5t-2 57.5q0 13 6 24q8 14 21 14q6 0 13 -3q11 -3 13 -15q5 -31 5 -95v-40q0 -38 2 -69l12 -131q6 -40 22 -79q40 -97 66 -131q24 -30 59 -53q54 -35 123 -35q19 0 39 3q16 2 38 6q47 8 109 51q54 36 94 47q3 1 6 1 q13 0 23 -16q5 -7 5 -13q0 -5 -4 -8q-82 -73 -153 -100q-21 -7 -47 -14q-49 -14 -97 -14q-40 0 -79 10l-27 7q-72 21 -124 79q-6 8 -13 16q-61 80 -89 169q-3 13 -7 27z" />
<glyph unicode="M" horiz-adv-x="830" d="M21 100q-5 21 -5 48q0 30 6 67q5 29 7 48q4 32 30 190q0 4 1 9q21 123 29 153l19 83q7 23 21 45q14 24 35 24q9 0 15 -7q17 -24 20 -75q2 -30 7 -48l36 -131q12 -33 28 -65q22 -45 65 -57q10 -3 20 -3q28 0 54 21q29 24 57 76l15 27l59 124l1 1l33 66q12 17 31 30 q15 10 31 10q19 0 40 -14q28 -19 43 -67q1 -2 4 -11q18 -63 52 -228q5 -28 11 -54q13 -60 18 -99l22 -124q2 -14 2 -29.5t-2 -30.5q-3 -13 -20 -13h-5q-11 1 -15 8q-11 21 -11 66q0 20 -3 34l-25 118l-33 146q-25 118 -34 149l-13 50q-5 9 -13 17q-6 8 -14 8t-17 -7l-5 -4 q-17 -25 -44 -88q-11 -27 -23 -48q-58 -97 -73 -117q-10 -14 -23 -29q-24 -26 -63 -41q-10 -4 -19.5 -4t-20.5 4q-63 20 -83 34q-11 6 -20 15q-20 18 -35 61q-2 8 -4 13q-21 58 -43 150q-1 3 -9 73q0 4 -1 9l-28 -139q-21 -87 -26 -113q-9 -53 -17 -122q-17 -131 -19 -160 q0 -5 10 -32q7 -15 -3 -24q-11 -12 -24 -12q-7 0 -15 3q-12 5 -14 16z" />
<glyph unicode="N" horiz-adv-x="962" d="M-8 80q4 12 29 23q14 6 20 13q23 27 34 58q24 72 41 168l24 206l12 119q6 29 22 58q6 11 17 11q10 0 24 -9q11 -6 16 -14q24 -39 44 -103q11 -41 26 -78l19 -63q5 -12 13 -28l60 -116q7 -11 15 -22q35 -47 68 -57q18 -6 71 -15q10 -2 20 -2q67 0 128 69l25 28 q50 63 77 164q22 77 22 78q12 39 21 145q3 26 7 49q4 20 30 21h5q12 0 18 -9q13 -19 13 -51q0 -10 -1 -21q-3 -18 -3 -27q-4 -51 -17 -103q-36 -135 -55 -180l-10 -25q-34 -73 -86 -128q-52 -52 -107 -70q-26 -7 -59 -7q-30 0 -65 6q-4 0 -8 1q-74 17 -120 50q-24 20 -49 70 l-12 21q-27 49 -58 127l-49 152l-24 -210l-12 -99q-12 -53 -22 -77q-28 -74 -34 -86q-8 -12 -19 -25q-37 -47 -75 -52q-3 -2 -7 -2h-3q-19 0 -26 24v9.5v8.5z" />
<glyph unicode="O" horiz-adv-x="790" d="M707 369q-17 -71 -42 -110q-42 -64 -98 -106q-47 -37 -118 -59q-55 -19 -95 -19q-8 0 -16 1q-60 7 -106 42q-45 36 -84 102q-5 8 -5 9q-34 58 -47 123q-4 28 -4 61t4 70q12 85 39 140q29 62 75 98q13 10 62 22q30 8 38 23q1 3 1 7q0 12 -9 25q-3 5 -8 7q-8 4 -18 4 q-17 0 -40 -12q-49 -14 -63 -28q-6 -6 -9 -10q-74 -97 -81 -107q-31 -50 -41 -105q-14 -65 -14 -122q0 -60 16 -112q4 -13 19 -51q52 -122 113 -172q29 -25 73 -44q54 -23 111 -23q61 0 125 27q19 7 39 18q121 57 179 150q21 36 34 66q29 66 29 169v26q-2 62 -40 135 q-31 59 -72 88q-3 3 -8 6q-24 16 -49 16l-27 -5q-17 -6 -17 -23q0 -4 1 -8q1 -7 6 -13q6 -8 27 -8h5q14 0 22 -6q38 -28 61 -73q24 -44 32 -105q6 -34 5.5 -62.5t-5.5 -51.5z" />
<glyph unicode="P" horiz-adv-x="437" d="M152 52q-17 144 -28 278q-15 174 -18 304q-1 32 -1 56q0 65 8 65q26 2 51 14q8 2 19 1q70 -7 97 -22q9 -5 19 -12q28 -20 28 -65v-9q0 -19 -24 -45q-5 -5 -7 -9q-47 -56 -89 -84q-12 -9 -56 -23q-21 -7 -34 -18q-14 -12 -10 -28q1 -5 6 -5h3q54 0 105 30q53 29 111 89 q2 3 11 12q35 35 40 64q1 8 1 17q0 34 -19 71q-20 41 -57 58q-46 22 -119 26h-11q-46 0 -93 -14q-32 -11 -37 -33q-3 -19 -3 -49.5t3 -72.5q3 -21 3 -40q7 -177 11 -240q9 -165 20 -278v-51q4 -14 16 -20q8 -4 16 -4l28 13q13 11 10 24z" />
<glyph unicode="Q" horiz-adv-x="720" d="M511 51q-60 18 -89 38q-36 24 -48 57q-9 24 -9 47q0 18 6 36q12 38 36 38h5q10 -3 2 -23q-7 -14 -6 -22q4 -35 14 -54q13 -28 38 -45q28 -21 74 -34l69 -19q25 -5 68 -5q6 0 6 -1q0 -2 -13 -7q-39 -13 -72 -16h-9q-30 0 -72 10zM135 588q63 92 133 164q35 36 44 42 q15 10 34 12q3 1 6 1q20 0 29 -23q4 -9 3 -19q-2 -16 -26 -27q-15 -7 -22 -13l-51 -43q-7 -7 -13 -16l-81 -101q-32 -45 -53 -97q-40 -100 -47 -132q-4 -20 -4 -41q0 -33 10 -66q28 -98 138 -135l9 -2q22 -7 44 -7q47 0 99 28q15 8 35 20q66 41 116 111l31 46q42 67 55 146 q2 12 2 16q0 21 -23 77q-8 19 -4 19q2 0 7 -4q33 -27 35 -29q2 -4 10 -16q18 -31 18 -72v-12q-1 -4 -1 -8q-6 -67 -35 -124q-36 -72 -89 -129q-2 -1 -3 -3q-58 -63 -102 -89q-13 -8 -27 -15q-58 -26 -104 -26q-9 0 -18 1q-8 0 -18 2q-98 17 -146 50q-19 14 -39 32 q-47 46 -54 124q-1 12 -1 27v18q0 68 25 151v-1l12 40q18 54 62 119q1 2 4 4z" />
<glyph unicode="R" horiz-adv-x="679" d="M437 755q-65 13 -125 14h-8q-39 0 -134 -8q-77 -8 -78 -8q-12 -2 -25 -6q-30 -11 -35 -32q-4 -20 -4 -50.5t4 -72.5q1 -19 2 -36q1 -59 11 -236q7 -164 12 -212v-50q4 -13 16 -19q8 -5 16 -5q13 0 27 13q12 11 10 24q-10 79 -20 212q-16 231 -18 298q-1 25 -1 45 q0 73 9 74q27 3 53 11q6 3 15 4q60 6 123 6h18l90 -11h13q12 0 12 -6q0 -7 -18 -22q-53 -47 -56 -51q-5 -5 -9 -10l-78 -107q-24 -37 -32 -81q-1 -7 -1 -15q0 -42 42 -84q4 -6 14 -16q41 -41 115 -72q31 -13 37 -16q39 -17 126 -33l59 -15h6q14 0 26 4q18 5 18 26 q-1 9 -6 15q-11 10 -43 12q-12 0 -21 2l-92 20l-15 5q-15 6 -79 41q-10 6 -20 11q-57 29 -77 63q-6 8 -11 19q-10 20 -10 40q0 24 13 49q21 36 73 85q31 30 49 54l47 58q14 20 15 46q2 16 -30 20q-21 1 -25 3z" />
<glyph unicode="S" horiz-adv-x="551" d="M114 678q14 7 88 30q6 3 13 5l163 66l64 28q8 3 16.5 3t17.5 -3q12 -3 12 -16q0 -7 -4 -19t-11 -19q-29 -23 -89 -42q-21 -6 -35 -12l-164 -56q-6 -3 -13 -5l-57 -23q-17 -9 -27 -25q-13 -19 -13 -35q0 -14 8 -25q4 -5 8 -8q66 -52 188 -111q83 -40 132 -71 q56 -35 60 -39q18 -15 30 -37q13 -23 13 -49q0 -22 -10 -45q-21 -53 -69 -85l-10 -6q-65 -40 -151 -55l-12 -2q-14 -3 -28 -3q-28 0 -55 13q-40 20 -51 54q-7 25 -7 35q0 9 18 45q10 23 16 0l11 -56q3 -12 9 -16q22 -19 56 -19q6 0 13 1q34 2 90 28q57 27 69 37l19 17 q25 28 25 52q0 9 -4 18q-13 28 -53 51q-25 14 -31 18q-23 15 -101 50q-16 7 -29 14q-59 32 -83 48l-69 41q-14 11 -26 25q-39 45 -39 89q0 31 31 65l8 9q17 17 63 40z" />
<glyph unicode="T" horiz-adv-x="536" d="M159 651q4 37 33 49q3 1 6 1q16 0 26 -25q4 -13 4 -55q0 -12 2 -24l32 -144q10 -37 25 -74l60 -165q5 -10 8 -17l49 -102q21 -38 45 -64q8 -8 0 -8h-4q-32 5 -75 35q-23 19 -48 64l-8 14q-12 20 -37 77q-34 82 -54 142q-31 99 -49 185q-16 70 -16 88q0 12 1 23zM62 692 q35 13 161 45q71 17 172 36q120 23 160 25q3 1 6 1q9 0 9 -3q0 -6 -41 -24q-50 -21 -126 -47q-164 -58 -280 -80l-87 -19q-8 -1 -15 -1q-29 0 -51 17q-7 5 -7 10q0 11 38 23z" />
<glyph unicode="U" horiz-adv-x="790" d="M751 627q20 -77 22 -89q1 -15 1 -31q-5 -144 -31 -203q-13 -31 -35 -69q-60 -95 -185 -155q-21 -11 -41 -19q-66 -27 -129 -27q-59 0 -116 24q-46 19 -76 45q-63 51 -117 179q-16 39 -20 53q-17 54 -17 116q0 59 15 126q11 58 43 109q4 7 19 7q6 0 14 -1q25 -4 24 -19 q0 -7 -4 -16q-28 -58 -40 -146q-5 -38 -5 -72.5t5 -63.5q13 -67 49 -127l5 -10q40 -69 87 -106q48 -36 110 -44q8 -1 16 -1q41 0 99 20q74 23 123 61q59 44 101 110q14 21 36 120q0 4 1 8q5 18 8 105v102q1 28 8 98l28 -81q2 -1 2 -3z" />
<glyph unicode="V" horiz-adv-x="831" d="M244 101q-31 36 -80 120q-5 9 -8 16q-26 44 -113 212l-42 64q-8 16 -8 34q0 17 23 21q15 2 23 -5q33 -28 63 -88q15 -29 26 -47l67 -116l80 -140q23 -36 56 -67q13 -13 29 -13q13 0 27 8q9 5 15 12q67 75 151 207q45 73 76 117l87 120l52 73q5 8 11 14q58 67 68 67 q3 0 3 -4q-7 -28 -33 -87q-3 -7 -43 -74q-50 -87 -71 -119l-93 -135l-1 -1l-91 -143q-13 -19 -28 -37q-35 -45 -63 -59q-5 -4 -13 -6q-31 -14 -59 -14q-16 0 -31 5q-36 13 -71 54q6 -6 -9 11z" />
<glyph unicode="W" horiz-adv-x="896" d="M0 355q0 -97 21 -157l5 -15q30 -75 61 -105q11 -10 26 -20q30 -20 56 -20t48 19q41 33 61 102l16 51q10 30 24 114q5 36 14 65l14 62q10 22 32 27q5 1 11 1q27 0 64 -33q23 -20 24 -21q34 -31 79 -100l10 -15l77 -135l2 -1l45 -74q15 -18 36 -33q19 -13 37 -13l39 14 q27 19 38 70q0 2 3 12q26 134 26 213v6q0 15 -1 32q-4 89 -40 215l4 -13l-10 36q-20 70 -50 111q-19 25 -36 25h-3q-6 0 -10 -6q-3 -5 -3 -13q0 -14 11 -36q7 -15 10 -23l50 -145l5 -22q16 -76 16 -149v-9q0 -46 -19 -147l-2 -12l-8 -51q-4 -12 -12 -20q-7 -8 -16 -8 q-8 0 -17 6q-4 3 -6 7q-22 27 -57 96q-17 30 -32 52q-69 104 -119 162q-38 44 -76 68q-25 15 -68 18q-6 1 -12 1q-25 0 -32 -12q-38 -56 -67 -145l-2 -7q-8 -23 -17 -100q-3 -34 -12 -60q-25 -71 -66 -117q-9 -11 -19 -11q-5 0 -11 3q-5 3 -8 8q-42 59 -71 147l-2 8 q-10 31 -16 106q-2 12 -3 23l-17 140v1l-23 -127q-2 -22 -2 -46z" />
<glyph unicode="X" horiz-adv-x="532" d="M346 176q-65 83 -158 233l-14 23q-18 30 -108 141q-70 89 -70 123q0 5 1 8q2 8 12 14q12 7 23 7q22 0 38 -28l31 -59q2 -5 5 -9q37 -41 103 -139q12 -16 21 -30l101 -142q15 -22 29 -47l82 -119q22 -40 22 -73q0 -9 -2 -18q-2 -14 -11 -14q-15 0 -48 46zM300 351 l-113 -185q-6 -10 -38 -82q-19 -42 -47 -70q-7 -7 -13 -7q-7 0 -12 12q-3 8 -3 20q0 7 1 15q4 63 54 144q39 61 47 76q65 118 196 317q4 5 7 10l60 108q24 35 59 55q5 3 9 3q7 0 7 -13q0 -31 -23 -88q-28 -66 -97 -173l-27 -44q-4 -7 -53 -77z" />
<glyph unicode="Y" horiz-adv-x="649" d="M442 424l45 132l34 108q3 9 8 18l28 81q12 22 31 41q6 5 12 5q10 0 21 -11q8 -9 9 -18v-6q0 -20 -16 -49q-9 -14 -12 -26l-56 -150l-52 -149l-42 -112q-56 -163 -56 -184q0 -12 5 -51q2 -14 -2 -14h-1q-2 0 -5 2q-29 20 -35 71l-4 26q-1 4 -1 9q0 22 11 58q3 7 4 13 l37 107l5 12zM179 526q-71 43 -118 87l-37 33q-15 17 -15 37q0 17 22 22q5 1 9 1q8 0 14 -3q31 -17 73 -64q31 -34 57 -51q46 -30 128 -53l7 -3q49 -14 92 -14q10 0 20 1q13 0 59 30q5 3 6 4q1 0 1 -1t-3 -6q-38 -49 -51 -57l-30 -12q-13 -5 -33 -5q-13 0 -30 2q-10 2 -16 3 q-37 3 -81 17q-45 13 -74 32z" />
<glyph unicode="Z" horiz-adv-x="907" d="M17 727l289 24l198 26q13 1 25 1q32 0 65 -4q34 -4 43 -38q3 -11 0 -24q-9 -44 -51 -99q-23 -30 -34 -50l-86 -128q-2 -4 -4 -7q-51 -93 -55 -102q-11 -25 -19 -55q-7 -29 -7 -56q0 -32 11 -60q14 -40 61 -47q21 -4 49 -4q37 0 87 7q19 3 33 4q37 4 165 27l136 32h2 l59 11q15 1 29 -8q4 -3 4 -7q0 -10 -27 -32q-2 -3 -4 -4q-12 -10 -53 -20l-8 -3q-85 -28 -156 -43q-121 -26 -160 -32l-113 -12h-11q-30 0 -59 9q-51 16 -90 72q-6 8 -15 22q-17 27 -17 67q0 13 2 27q6 55 35 120q23 55 89 168q3 4 58 90q7 9 13 19l36 57q7 17 7 28 q0 13 -28 13q-24 -1 -119 -18q-22 -2 -41 -5q-210 -24 -240 -25l-48 -3h-9q-40 0 -66 15q-19 13 -19 29q0 7 4 14q4 9 27 6q7 -2 12 -2z" />
<glyph unicode="[" horiz-adv-x="501" d="M21 34q-1 21 -1 45q0 111 16 278q6 62 34 250q3 10 4 20q16 104 20 115q3 15 9 31q8 23 27 23h2q6 0 11 -15q4 -10 10 -11q63 -21 112 -21h8q45 3 162 28q56 13 105 15h1q3 0 3 -1q0 -4 -22 -18l-11 -7q-39 -27 -67 -35q-94 -32 -144 -35h-5q-12 -1 -24 -1q-72 0 -129 21 q-3 1 -7 -13l-18 -119l-30 -179l-5 -40q-12 -130 -12 -231v-39q1 -18 26 -18q12 0 30 4q24 7 27 7q20 3 70 30q24 12 46 16q15 2 27 2q26 0 36 -9q3 -4 5 -8q3 -7 3 -13q0 -20 -31 -41q-15 -10 -52 -11q-11 0 -19 -1l-106 -18q-5 -1 -8 -1l-80 -20h-5q-17 0 -18 20z" />
<glyph unicode="\" horiz-adv-x="486" d="M198 513l97 -142l111 -168q41 -65 60 -103l35 -66q1 -2 1 -3t-1 -1q-2 0 -6 3q-36 27 -84 93l-23 32q-33 41 -100 142l-110 167l-98 135q-12 17 -22 36l-51 73q-7 13 -7 24q0 12 11 20q2 1 4 1q15 0 46 -46q29 -44 36 -53q9 -12 90 -129z" />
<glyph unicode="]" horiz-adv-x="510" d="M432 777q0 -11 -12 -35q-4 -8 -4 -16q1 -94 15 -235q3 -44 31 -221q6 -41 10 -77l14 -103q1 -10 0.5 -19.5t-0.5 -19.5q-2 -27 -24 -31q-5 -1 -11 -1q-16 0 -42 6q-13 3 -22 4q-76 9 -86 9h-8q-22 -1 -104 -17q-31 -6 -61 -6q-16 0 -31 2t-15 24q0 16 6 22q14 15 50 16 q11 1 19 2q73 12 114 12q88 0 156 -10q6 -1 4 26l-18 120l-31 242v1q-28 219 -28 227q0 9 1 11q13 19 13 30q0 19 -33 20l-102 -4h-4q-9 1 -22 1q-32 0 -83 -7q-29 -3 -53 -3l-39 -2q-8 2 -16 9q-12 11 -12 23q0 5 2 11q1 6 7 8q23 12 65 12q9 0 19 -1q11 0 19.5 -0.5 t15.5 0.5q80 3 108 3h10q6 0 13 -1l127 -3q42 -5 42 -29z" />
<glyph unicode="^" horiz-adv-x="396" d="M24 538q1 20 23 51q6 9 10 16q9 15 34 49l47 67q10 11 21 22l43 48q14 13 30 13q6 0 13 -2q19 -7 19 -36q0 -5 -1 -11q-3 -30 -3 -44v-5l3 -50q1 -6 3 -11q16 -46 40 -77q8 -10 26 -21q14 -9 33 -29q3 -3 3 -5q0 -3 -8 -3h-3q-24 1 -48 12q-31 15 -55 46q-25 32 -37 74 l-7 22q0 8 4 42q1 9 1 16q0 16 -7 16h-1q-8 -2 -40 -46q-6 -7 -8 -10q-24 -25 -61 -89q-23 -39 -47 -65q-9 -9 -22 1q-5 4 -5 9z" />
<glyph unicode="_" horiz-adv-x="427" d="M79 56h31h64h134h10l63 5q17 -2 17 -18q0 -23 -40 -24q-41 0 -40 0q-48 -4 -100 -4t-109 4l-61 2q-21 3 -34 19q-3 3 -3 6q0 7 16 8z" />
<glyph unicode="`" horiz-adv-x="207" d="M178 691q4 -7 4 -14t-4 -13q-1 -3 -3 -3q-1 0 -3 1q-41 20 -80 57q-4 3 -47 25q-24 12 -32 26q-4 6 -4 13q0 8 7 16q4 5 8 5l2 -1q44 -20 89 -57l50 -40q8 -7 13 -15z" />
<glyph unicode="a" horiz-adv-x="464" d="M66 233l51 86q17 24 40 43q19 17 58 17h12h6q8 -1 -9 -9q-15 -8 -19 -11q-47 -48 -52 -54q-8 -9 -15 -20q-51 -80 -65 -119q-6 -15 -11 -31q-5 -19 -5 -33q0 -25 16 -36q6 -4 14 -4q19 0 48 24q17 15 35 54q7 13 14 23l38 66q8 12 21 22q16 14 33 14q12 0 24 -7 q19 -12 34 -47q4 -11 6 -17q5 -10 21 -61q7 -23 18 -40q9 -11 39 -16q3 -1 6 -1t25 7q7 2 7 -4q-3 -14 -35 -17q-27 -3 -41 -3q-8 0 -12 1q-9 4 -16 9q-21 16 -36 58q-7 18 -13 30l-16 45q-6 8 -16 10q-2 1 -4 1q-14 0 -24 -23q-7 -15 -10 -20l-31 -56q-2 -3 -5 -6 q-37 -50 -39 -52q-14 -15 -33 -25q-28 -15 -48 -15q-15 0 -26 8q-29 23 -34 79v8v2q0 20 16 50q4 11 8 17q17 41 25 53z" />
<glyph unicode="b" horiz-adv-x="394" d="M76 80q-39 68 -55 167l-2 14q-6 39 -6 112v38q2 25 2 50q0 119 37 226q3 8 10 8t16 -6t12 -14q2 -7 2 -18q0 -17 -5 -44q-1 -11 -3 -19l-8 -118v-1q0 -174 2 -199l2 -27q8 -76 16 -98q7 -16 18 -31q24 -36 68 -36h9q34 2 66 36q0 -1 9 10q38 40 43 61q1 10 1 20 q0 26 -30 51q-12 11 -17.5 15t-28.5 9q-5 0 -9 3l-22 15q-2 4 2 6q11 7 31 7q13 0 30 -3q72 -12 92 -68q4 -11 6 -23v-7q0 -31 -31 -78q-4 -7 -5 -8q-34 -48 -79 -75q-46 -25 -83 -25q-8 0 -15 1q-51 5 -75 49z" />
<glyph unicode="c" horiz-adv-x="397" d="M14 217q11 59 50 111q45 59 94 86q5 3 9 5q55 31 109 31h10q4 0 4 -3q0 -6 -24 -27q-4 -2 -7 -5l-76 -46q-2 -1 -5 -3q-37 -29 -61 -62q-31 -41 -38 -72q-10 -42 -10 -60q0 -4 1 -7q2 -12 9 -22q35 -54 96 -64q8 -1 18 -1q32 0 81 12q34 8 61 8q10 0 19 -1q6 -1 6 -3 q0 -6 -31 -22q-7 -5 -16 -8q-61 -33 -73 -37q-17 -5 -34 -6q-8 -1 -16 -1q-46 0 -91 24q-50 26 -69 61q-3 4 -5 9q-15 30 -15 65q0 18 4 38z" />
<glyph unicode="d" horiz-adv-x="535" d="M55 304q29 43 87 70q6 4 16 8q16 8 34 8q15 0 31 -5q9 -2 9 -6q0 -5 -21 -12q-53 -18 -60 -24q-37 -24 -50 -42q-20 -29 -27 -73l-10 -61q0 -19 10 -35q31 -50 88 -57q7 -1 15 -1q52 0 107 31l8 5q46 26 75 76q2 5 6 11q22 44 34 120q0 6 1 11q6 38 10 155v10l2 153v1 l4 60q0 5 -1 10q0 5 -11 0q0 -11 7 -63q1 -4 1 -7l15 -101v-1q14 -107 18 -147l12 -172l5 -89q3 -12 7 -25q2 -11 26 -32q13 -12 13 -25q0 -3 -1 -5q-2 -17 -22 -17q-4 0 -9 1q-9 1 -16 5q-35 21 -39 65l-11 93v74q-1 21 -19 188l-15 146v1q-5 86 -5 127v13q0 42 9 56l2 5 q10 13 22 13q7 0 15 -4q15 -11 23 -50q12 -57 12 -119q0 -180 -12 -278q-17 -141 -35 -191q-7 -20 -16 -37q-21 -46 -80 -81q-67 -41 -117 -45q-9 -1 -17 -1h-9q-73 0 -112 31q-7 5 -13 11q-34 34 -35 100v26q1 71 39 122z" />
<glyph unicode="e" horiz-adv-x="535" d="M516 48l-171 -25q-71 -8 -79 -8q-11 0 -22 1q-54 7 -84 32q-40 36 -44 80q-2 16 -2 34q0 44 14 95q3 5 5 13q16 58 52 94q37 39 81 42q27 2 48 2q39 0 59 -7q19 -6 36 -19q17 -12 17 -31q0 -12 -6 -26q-5 -12 -11 -20q-27 -30 -81 -47q-27 -8 -35 -12q-93 -33 -156 -37 q-3 -1 -8 -1q-9 -1 -19 -1q-50 0 -118 18l-6 1q-18 3 -26 13q-1 2 -1 4t2 3q11 4 28 4q14 0 33 -3q13 -1 23 -1h42q47 4 101 14q48 10 84 21q28 8 56 24l30 15q5 6 9 14q3 8 3 15q0 13 -12 21q-4 1 -6 2q-12 4 -26 4q-26 0 -57 -12q-49 -16 -66 -35q-4 -4 -8 -10 q-32 -48 -43 -119q-1 -6 -2 -13q-2 -13 -2 -24q0 -36 17 -63q17 -30 62 -42q13 -4 35 -4q18 0 43 3q13 1 23 1l107 11q11 0 22 -1q38 -2 62 -15q3 -2 3 -3t-6 -2z" />
<glyph unicode="f" horiz-adv-x="444" d="M-17 386q36 -10 107 -17q71 -10 97 -10h4q94 9 157 31q18 7 16 0q-10 -18 -70 -50q-19 -11 -30 -14q-43 -12 -97 -12q-31 0 -66 4h-7q-40 3 -90 33q-10 7 -17.5 17t-7.5 15q0 3 4 3zM149 76q-14 64 -40 263q-1 11 -3 20l-31 177q-3 29 -3 60v15q4 60 51 84q24 13 63 13 q14 0 30 -2q20 -2 34 -2q101 -3 136 -11q11 -2 22 -6q54 -16 65 -41q1 -6 3 -10q1 -3 1 -4q0 -8 -12 -6l-67 22h-7q-16 2 -39.5 2t-54.5 -2l-92 3q-20 -1 -39 -7q-18 -5 -21 -41q-1 -9 -1 -24q0 -29 5 -79q2 -13 21 -153q7 -54 12 -102l9 -83v-18l-2 -73q-2 -23 -15 -42 q-2 -4 -5 -4q-9 0 -20 51z" />
<glyph unicode="g" horiz-adv-x="421" d="M37 345q26 42 68 67l5 3q48 28 91 28q11 0 4 -20q-2 -5 -4 -8q-12 -12 -49 -32q-14 -7 -25 -15q-30 -27 -50 -58q-14 -23 -18 -47q-5 -33 -5 -51q0 -9 1 -15q2 -6 4 -11q13 -34 44 -39q24 -5 51 -5q36 0 78 9q15 3 46 24q11 7 19 11l49 25q14 4 28 1q28 -10 33 -58 q1 -11 1 -23q0 -69 -20 -152q-16 -72 -34 -97q-7 -11 -17 -22q-43 -50 -82 -54h-15q-24 1 -38 37l-10 24q-7 19 -7 35q0 12 4 23q7 17 23 15q6 0 10 -4q8 -10 8 -38v-7q0 -22 13 -31q5 -3 11 -3q18 0 43 28q31 31 44 77q21 68 26 152q1 14 1 24q0 34 -10 34q-3 0 -5 -4 q-16 -17 -66 -36q-16 -6 -25 -11l-59 -27q-15 -5 -32 -6h-7l-87 22q-39 19 -58 58q-13 24 -13 59q0 12 2 25q6 57 29 93z" />
<glyph unicode="h" horiz-adv-x="572" d="M129 39q-25 34 -44 108q-11 41 -10 43q-2 1 -35 174q-5 31 -6 34l-26 103q-1 9 -2 17t-1.5 12.5t-0.5 5.5q0 8 13 12q4 1 6 1q5 0 8 -4q22 -47 32 -113q3 -21 8 -37l37 -181q2 -7 4 -15q34 -119 47 -126q4 -2 7 -2q14 0 23 26q12 33 17 43l43 74q2 5 17 19q47 47 85 68 q14 7 33 13q5 2 11 2q21 0 45 -29q14 -17 45 -84q11 -25 12 -26l34 -83l6 -11q4 -6 22 -17q10 -5 12 -14q1 -3 1 -5q0 -11 -16 -16q-3 -2 -6 -2q-4 -1 -7 -1q-14 0 -25 15q-18 21 -41 76l-6 14l-33 84q-3 8 -11 20q-20 27 -39 27h-4q-34 -7 -71 -42q-12 -11 -13 -12 q-23 -21 -51 -73l-3 -4q-6 -12 -21 -61q-11 -33 -32 -49q-13 -10 -25 -10q-15 0 -30 15z" />
<glyph unicode="i" horiz-adv-x="148" d="M47 547q11 16 29 16q9 0 19 -4q12 -6 19 -15q4 -7 4 -14q0 -13 -13 -25q-12 -11 -24 -10q-24 2 -35 26q-6 15 1 26zM22 378q10 20 31 22h3q14 0 16 -16q4 -14 5 -58q1 -6 1 -12l4 -107q1 -15 5 -30l15 -104l3 -7l18 -29q2 -6 2 -15q0 -4 -5 -4q-8 0 -29 10q-7 3 -10 6 q-12 9 -21 36l-2 7q-15 34 -18 60l-9 97l-9 98l-4 35q1 5 4 11z" />
<glyph unicode="j" horiz-adv-x="462" d="M165 497q31 61 88 78q12 4 19 4q8 0 7 -6q0 -3 -8 -9q-70 -48 -71 -105q0 -12 2 -24q2 -15 -2 -15q-12 1 -29 37q-8 18 -8 30q0 6 2 10zM196 337q41 -23 82 -73l15 -17l92 -104q32 -41 51 -88q7 -19 7 -42q0 -31 -14 -68q-2 -7 -9 -24q-23 -59 -58 -80l-14 -6 q-64 -27 -141 -27h-20q-10 2 -25 3q-79 5 -125 36q-6 6 -14 11q-18 14 -18 35q0 15 10 34q3 6 8 -7q8 -24 16 -28q50 -26 107 -31q26 -3 51 -3q46 0 86 10q48 11 67 39q38 63 38 102q1 13 -1 25q-5 36 -41 72q-21 21 -29 32q-15 18 -91 100l-27 30l-32 32q-7 9 -7 22 q0 14 20 18h4q7 0 12 -3z" />
<glyph unicode="k" horiz-adv-x="440" d="M81 347q36 35 128 113l55 51q14 11 31 19q20 9 33 9q8 0 14 -4q5 -3 5 -9q0 -18 -28 -37q-16 -11 -22 -17q-23 -24 -79 -71l-46 -39l-2 -2l-50 -47q-11 -16 -17 -35q-4 -12 -4 -23q0 -26 25 -43q39 -27 114 -41q20 -5 29 -6q20 -3 92 -3h6q33 0 61 -10q6 -2 6 -4 q0 -7 -57 -15q-4 0 -10 -1q-29 -4 -55 -4q-19 0 -36 2q-109 12 -147 22q-10 4 -22 7q-35 12 -48 42q-18 36 -18 71q0 11 2 22q3 20 31 43q6 6 9 10zM17 741q10 40 38 46h2q12 0 19 -19l3 -15q5 -28 5 -116q1 -14 1 -27l3 -206q3 -36 9 -72l17 -206l4 -20q2 -12 18 -40 q7 -15 8 -46q0 -10 -8 -10t-26 12q-13 10 -22 19q-15 22 -24 70q-1 11 -4 18q-14 57 -22 122q0 3 -10 177q0 11 -1 20q-10 181 -12 200l-3 66q1 13 5 27z" />
<glyph unicode="l" horiz-adv-x="183" d="M17 749q13 39 38 45h2q17 0 22 -34q5 -28 6 -119q1 -12 1 -23l4 -212q2 -33 7 -67l17 -200q3 -14 5 -25q3 -13 17 -41q7 -15 8 -46q0 -10 -7 -10q-9 0 -27 14q-13 8 -20 17q-17 22 -26 72q-3 9 -4 16q-16 73 -21 122q-4 30 -11 192v5q-11 190 -11 200l-5 70q1 13 5 24z " />
<glyph unicode="m" horiz-adv-x="495" d="M6 271q2 14 20 16q12 1 14 -8q19 -48 33 -144q5 -36 10 -62l10 167l6 44q7 48 27 83q13 21 28 21q3 0 7 -1q13 -4 29 -30q13 -20 26 -20l4 1q25 6 49.5 41.5t47.5 45.5q25 10 44 10q28 0 42 -23q23 -39 26 -112q4 -55 13 -86q5 -17 31 -52q19 -24 20 -47q0 -11 -10 -11 q-7 0 -17 4q-13 5 -20 14q-31 38 -53 108l-6 17q-3 11 -3 35q0 15 1 35v10q0 36 -21 48q-6 3 -11 3q-16 0 -33 -24q-24 -39 -37 -49q-38 -25 -49 -27q-9 -2 -18 -2q-11 0 -34 23q-16 16 -24 6q-23 -28 -24 -84q-2 -33 -4 -49q-2 -11 -2 -75q0 -35 -13 -61q-8 -17 -26 -17 q-4 0 -10 1q-12 2 -19 11q-20 29 -28 87q-4 26 -8 42l-18 75q-2 9 -2 18t2 18z" />
<glyph unicode="n" horiz-adv-x="397" d="M7 322q1 13 17 15q12 1 15 -7q41 -104 48 -212q1 -12 1 1v9q0 102 23 158q14 32 52 49q31 14 53 14q10 0 18 -3q2 -1 6 -2q31 -15 55 -58l13 -22q14 -22 44 -95q6 -15 13 -29l42 -82l2 -1q1 -2 1 -4q0 -3 -4 -3q-8 0 -31 11q-13 5 -27 13q-9 6 -24 31l-51 103q0 2 -1 3 q-21 38 -36 49l-4 4q-12 9 -25 9q-9 0 -19 -4q-21 -7 -33 -32q-15 -30 -20 -74q-1 -4 -1 -10q0 -20 5 -66v-9q0 -32 -12 -56q-9 -17 -26 -17q-7 0 -15 3q-15 6 -22 17q-23 38 -29 108q-4 35 -8 56l-20 92q-1 10 -1 20.5t1 20.5z" />
<glyph unicode="o" d="M28 204q42 61 113 103l47 26q2 1 4 1q8 0 17 -14q9 -13 1 -19l-83 -56q-38 -31 -62 -76q-8 -16 -8 -31q0 -24 22 -48q6 -5 12 -11q33 -23 79 -23q14 0 29 2q8 1 18 2q66 9 80 15q28 12 40 40q2 4 2 8q0 25 -46 73q-23 24 -16 24q2 0 8 -1q48 -14 57 -22l13 -17 q34 -43 34 -69q0 -8 -4 -20q-15 -38 -67 -53q-6 -2 -19 -6q-73 -18 -126 -18q-17 0 -31 2q-15 2 -33 5q-69 12 -92 66q-12 26 -12 51q0 34 23 66z" />
<glyph unicode="p" horiz-adv-x="265" d="M46 -195q-3 -3 -7 -3q-8 0 -18 18q-4 7 -5 14q-3 13 -3 34q0 17 2 41q1 9 1 17q2 46 8 157v108q1 20 7 41q16 59 52 78l6 2q16 7 35 7q27 0 60 -15q52 -24 63 -54q4 -7 5 -14q4 -17 4 -34q0 -43 -26 -91q-30 -51 -89 -79q-5 -3 -10 -5q-18 -8 -34 -8q-24 0 -43 16 q-8 7 -8 15q0 11 12 25q3 4 8 8q6 4 20 -7q9 -7 15 -5q27 8 60 40q33 33 42 60q5 14 5 28q0 17 -9 33q-16 30 -51 37q-8 2 -15 2q-25 0 -41 -19q-13 -16 -17 -53q0 -6 -0.5 -11.5t-0.5 -7.5q0 -10 3 -40v-16l-11 -157v-87v-2l-6 -51q-3 -13 -14 -22z" />
<glyph unicode="q" horiz-adv-x="431" d="M11 114q-1 28 -1 49q0 44 4 64q5 17 13 36q22 57 74 95l12 8q39 25 75 25q14 0 28 -4q14 -3 14 -19q0 -5 -2 -13q-2 -10 -8 -18q-5 -5 -23 3q-10 6 -17 5q-40 -9 -62 -29q-26 -22 -45 -67q-16 -39 -17 -79q-1 -9 -1 -17q0 -32 10 -46q2 -5 5 -8q17 -18 49 -18h10 q32 4 58 29q22 20 51 68l8 13l11 37q2 5 7 7q15 9 27 9q15 0 24 -13q4 -6 4 -16q0 -12 -7 -29q-6 -14 -8 -22l-20 -71q-1 -3 -1 -6q-14 -84 -14 -93q0 -17 2 -35q10 -69 63 -101q18 -12 43 -12q22 0 48 9q2 2 7 3q19 5 46 34q20 20 38 26q15 6 26 -8q3 -6 3 -11 q0 -22 -31 -40l-12 -8q-54 -35 -77 -42q-10 -3 -22 -5q-22 -3 -41 -3q-38 0 -65 13q-3 2 -8 5q-46 26 -65 83q-3 5 -4 9q-5 17 -5 40q0 21 4 48l5 33q1 8 13 65q0 3 1 6l-30 -35q-8 -7 -18 -11q-61 -28 -112 -29q-20 1 -40 28q-4 3 -5 4q-21 28 -22 54z" />
<glyph unicode="r" horiz-adv-x="357" d="M63 21q-3 -13 -18 -13q-4 0 -7 1q-15 1 -16 12q-11 112 -11 190q0 26 1 48l2 25q7 64 41 107q41 51 73 63q13 5 28 7q7 1 15 1q38 0 86 -24l25 -14q47 -24 52 -27q17 -14 37 -47q3 -4 3 -7q0 -4 -10 -2l-103 45q-2 1 -3 1q-43 13 -61 13q-48 0 -47 0q-15 -2 -26 -13 q-37 -32 -54 -92q-1 -5 -2 -11q-4 -13 -4 -36q0 -15 2 -35q2 -13 2 -23l3 -119q-1 -25 -8 -50z" />
<glyph unicode="s" horiz-adv-x="309" d="M67 355l48 17l78 32l32 15h5l9 -1q19 -6 20 -24q0 -5 -3 -10q-8 -12 -36 -20q-12 -3 -19 -6l-90 -36l-26 -10q-4 -3 -6 -9q-1 -3 -1 -7q0 -14 17 -25q21 -15 83 -44q24 -11 43 -22q34 -22 41 -29q6 -7 10 -15q6 -11 6 -25t-6 -30q-12 -31 -36 -47q-26 -19 -74 -30 q-25 -5 -46 -5q-13 0 -25 2q-25 5 -32 25q-4 13 -4 24t4 21q1 4 4 10q6 13 16 -6q12 -25 18 -29q12 -9 29 -9h3q17 1 43 14q30 13 41 26q13 14 13 26q0 4 -2 8q-6 13 -30 27q-6 3 -10 6q-7 5 -52 27q-5 2 -10 5l-39 23l-36 23q-5 4 -9 9q-19 22 -19 44q0 13 19 35 q9 10 29 20z" />
<glyph unicode="t" horiz-adv-x="484" d="M209 54q18 -37 35 -47l9 -5q3 -1 5 -1q10 0 13 18q1 5 1 9q0 20 -14 64q-4 12 -6 23q-45 191 -56 245q-6 45 -31 143l-28 97q-6 32 -6 56q0 23 5 39q4 9 -2 9h-2q-20 -7 -39 -32q-2 -3 -3 -6q-14 -26 -14 -65v-15q1 -21 18 -72q5 -11 7 -21l35 -174q2 -9 41 -156l24 -88 q3 -10 8 -21zM125 278h-19q-56 0 -81 15q-9 6 -17 13q-4 4 -4 7q0 7 21 10l53 7l51 9q15 -52 15 -53q-1 0 -19 -8zM200 354l15 2q116 14 147 17q101 7 130 7h6q12 -1 12 -3q0 -7 -72 -27l-75 -20l-145 -36q-3 -1 -7 -1q-9 45 -11 61z" />
<glyph unicode="u" horiz-adv-x="376" d="M314 237l-4 27q1 3 4 6q5 5 21 -4q4 -2 7 -3l14 -38q8 -32 8 -52q0 -17 -10 -40q-1 -2 -2 -5q-10 -21 -17 -32q-28 -46 -86 -73q-14 -7 -20 -9q-16 -6 -36 -6q-35 0 -80 18q-20 9 -36 21q-34 28 -48 57q-3 6 -6 14q-4 8 -9 24q-8 25 -8 56q0 27 6 58q7 27 21 51q1 3 7 3 t18 -3q23 -6 16 -19q-11 -22 -16 -56v-6q0 -15 6 -44q1 -3 1 -7q6 -21 33 -67q30 -30 55 -39q5 -3 8 -3q20 0 59 14q2 1 6 2q19 6 39 26q28 28 38 53q8 20 11 69v7z" />
<glyph unicode="v" horiz-adv-x="305" d="M-1 246q-2 10 14 15q8 2 15 2q13 0 20 -8q24 -26 53 -123q20 -64 32 -64q8 0 16 16q24 45 56 165q13 46 23 78l16 71q5 13 12 24q7 10 21 10h5q10 -1 11 -8v-9q0 -50 -19 -125q-6 -21 -9 -34q-6 -24 -40 -119q-8 -19 -12 -35q-17 -51 -47 -71q-10 -7 -24 -14q-4 -2 -9 -2 q-19 0 -45 31q-17 23 -38 75q-5 13 -10 23q-35 77 -37 85z" />
<glyph unicode="w" horiz-adv-x="443" d="M-4 316q6 14 26 11q13 -2 15 -11q13 -40 14 -124q0 -70 20 -116q10 -24 38 -24q4 0 8 1q16 2 28 12q20 18 31 63q9 39 24 57q27 31 58 31q5 0 10 -1q17 -3 33 -29q7 -14 12 -19l43 -76q6 -8 10 -8q10 0 15 32q6 30 6 63q0 43 -18 126q-3 13 -5 24q-1 11 14 15q6 2 10 2 q8 0 13 -6q30 -43 36 -105q1 -5 1 -12q2 -19 2 -38q0 -51 -16 -100q-17 -52 -34 -60q-9 -5 -19 -3q-40 4 -66 62l-8 16l-19 50q-9 16 -20 16q-4 0 -9 -3q-28 -15 -42 -63q-15 -51 -36 -72q-23 -21 -51 -21q-17 0 -35 7q-48 18 -70 74q-11 30 -11 86v10v17q0 17 -1 30l-11 62 q-1 12 4 24z" />
<glyph unicode="x" horiz-adv-x="308" d="M38 104q44 98 118 178l35 37q24 25 69 35q26 5 30 6q3 1 4.5 1t1.5 -0.5t-2 -2.5l-59 -41q-11 -10 -17 -18l-83 -109q-34 -49 -52 -105q-7 -22 -18 -22q-6 0 -14 7q-14 13 -14 27q0 3 1 7zM3 319q-6 8 -6 15q0 10 12 16q7 4 13 4q9 0 16 -8q49 -63 140 -197l67 -95 q7 -10 7 -30q0 -8 -1 -18q-1 -9 -4 -9q-1 0 -2 1q-101 122 -242 321z" />
<glyph unicode="y" horiz-adv-x="385" d="M277 42l31 98l27 89q1 1 1 3l21 63q8 14 19 27q3 4 8 4q6 0 14 -10q5 -7 5 -16q0 -16 -13 -42q-3 -6 -5 -13l-38 -110l-35 -110l-28 -82q-37 -116 -37 -136q0 -8 3 -38q0 -8 -1 -9q-2 0 -5 2q-20 16 -24 59q-1 10 -1 12v6q0 17 9 53q3 15 28 87zM102 117q-50 33 -80 63 l-27 28q-8 10 -9 24q0 14 17 17h4q5 0 10 -2q20 -12 49 -48q20 -24 38 -36q34 -24 91 -40q38 -12 67 -12h8q7 2 42 22q-26 -37 -38 -44l-16 -8q-8 -3 -20 -3q-11 0 -25 2q-4 1 -9 1q-24 3 -53 13q-37 14 -49 23z" />
<glyph unicode="z" horiz-adv-x="486" d="M32 263q-17 -6 -21 15q-2 6 -2 11q0 8 7 11q152 61 289 84q24 3 51 7q4 1 8 1q19 0 31 -16q6 -9 3 -18q-18 -53 -69 -128q-42 -61 -60 -107q-5 -16 -5 -28q0 -18 13 -27q3 -3 7 -4q21 -5 48 -5q32 0 71 7q54 10 93 10q7 0 7 -3q0 -4 -18 -16q-21 -16 -36 -19 q-77 -19 -135 -19q-12 0 -24 1q-8 0 -14 1q-45 3 -60 39q-5 10 -5 24q0 19 11 45l3 4q15 33 65 111q16 25 28 47l30 43q4 9 -7 9q-66 -5 -210 -43l-7 -1q-13 -4 -60 -24q-15 -6 -32 -12z" />
<glyph unicode="{" horiz-adv-x="593" d="M164 98q5 10 5 18l2 113q0 9 -1 21q-2 28 -3 59q-3 30 -157 146q-7 5 -7 18q0 11 5 27q2 7 2 9q-1 12 34 34l68 43q16 11 15 19q-4 33 -10 95q-2 22 -2 41q0 29 5 52q7 25 25 30h6q15 0 43 -8q12 -4 22 -5l107 1l132 10q28 0 54 -6q15 -4 15 -23v-6q-1 -12 -8 -19 q-15 -13 -53 -15q-12 0 -20 -1q-60 -8 -112 -8q-81 4 -153 15q-7 1 -8 -22q0 -13 6 -74q7 -97 8 -110l-106 -60l-4 -15q1 -6 12 -11q45 -23 104 -86q29 -33 30 -44l3 -96q8 -82 8 -102q0 -6 -1 -7q-14 -19 -14 -31q0 -18 33 -20l99 1q4 -1 6 -1q14 -2 35 -2q30 0 74 4 q28 2 50 2l38 -1q9 -1 16 -8q12 -12 12 -26q0 -4 -1 -8q-3 -6 -9 -9q-21 -9 -58 -9q-12 0 -26 1q-21 1 -36 1q-32 -1 -56 -1q-49 0 -68 3q-3 1 -6 1l-128 7q-41 6 -41 30q0 10 14 33z" />
<glyph unicode="|" horiz-adv-x="143" d="M21 765q6 28 28 30h6q17 -2 25 -35q5 -31 5 -123q1 -14 1 -28q8 -127 9 -165l19 -337v-70q0 -17 -24 -22q-5 -1 -9 -1q-12 0 -17 8q-12 19 -12 56v16q1 11 1 20t-1 16q-7 88 -8 117l-12 207v1q-12 202 -12 210l-4 72q1 14 5 28z" />
<glyph unicode="}" horiz-adv-x="538" d="M375 721q-6 -8 -7 -16l-9 -126v-8v-59q0 -17 67 -51q64 -34 81 -49q6 -5 6 -16t-7 -30q-2 -6 -2 -8q1 -14 -68 -43q-68 -28 -68 -42q4 -31 5 -95v-18q0 -42 -8 -73q-7 -24 -27 -29h-6q-12 0 -38 5q-14 3 -25 1q-19 -4 -68 -28q-30 -15 -56 -15q-57 1 -110 42l-6 4 q-14 12 -14 33v6q1 14 10 11q39 -17 58 -26l34 -15q6 -1 13 0q27 4 110 35q36 14 57 14q7 0 12 -1q7 -1 8 20q0 -2 0 76l-2 110l125 43l4 15q-1 6 -10 10l-97 56q-33 22 -33 34l3 97q-2 52 -2.5 79t2.5 29q20 24 20 37q0 14 -21 17l-64 3h-1q-26 7 -73 7q-16 0 -34 -1h-28 h-24l-38 2q-8 4 -15 11q-11 11 -11 22q0 6 3 12q2 6 8 8q17 7 42 7q19 0 42 -4q22 -3 36 -4l95 -4q18 -2 35 -6l82 -12q29 -8 29 -33q0 -10 -15 -34z" />
<glyph unicode="~" horiz-adv-x="429" d="M10 330q20 47 59 77q17 13 36 13q11 0 23 -4q20 -7 50 -35l18 -16l26 -23q3 -2 7 -3q28 -10 47 -10q7 0 13 1q18 3 47 26q3 3 6 5q8 6 49 42q6 6 13 12l23 19q2 0 2 -2q0 -13 -41 -64q-21 -25 -39 -38l-41 -31q-11 -7 -26 -9q-6 -1 -12 -1q-22 0 -53 12l-4 2q-9 4 -33 27 l-33 34l-7 4q-24 14 -42 14h-4q-15 -1 -33 -22q-6 -6 -19 -34q-7 -15 -19 -21q-9 -6 -13 11q-2 4 -2 7.5t2 6.5z" />
<glyph unicode="&#xa1;" horiz-adv-x="149" d="M98 575q10 -54 11 -100q1 -8 1 -35q0 -54 -3 -181q-2 -123 -13 -179q-2 -12 -6 -25q-9 -44 -38 -44h-1q-28 3 -30 53v18q0 61 11 179q5 44 6 79l1 148l2 28q4 33 23 52q15 14 26 14q3 0 5 -1q3 -1 5 -6zM105 765q0 -46 -2.5 -54.5t-8.5 -16.5q-3 -4 -8 -4q-9 0 -26 11 q-21 15 -21 30q1 39 23 67q5 8 12.5 8t17.5 -8q13 -11 13 -33z" />
<glyph unicode="&#xa2;" horiz-adv-x="397" d="M171 800l-29 10l-22 -26l-2 -26l41 -194l38 -184l31 -153l23 -86l36 -83l27 -34l-46 297l-43 245l-30 214zM24 412q11 57 48 107q43 57 92 83q4 3 8 5q53 30 105 30h9q4 0 4 -3q0 -6 -23 -26q-4 -2 -6 -4l-73 -45q-3 -1 -5 -3q-36 -28 -59 -59q-30 -40 -37 -70 q-9 -43 -9 -60v-5q3 -11 9 -20q33 -53 92 -63q8 -1 18 -1q31 0 78 12q33 8 59 8q9 0 18 -1q6 -1 6 -3q0 -6 -30 -21q-7 -5 -15 -8q-59 -32 -71 -35q-16 -5 -33 -6q-8 -1 -16 -1q-43 0 -87 22q-48 26 -66 59q-3 4 -5 9q-15 29 -15 64q0 17 4 35z" />
<glyph unicode="&#xa3;" horiz-adv-x="679" d="M114 410q4 1 11 1q13 0 38 -3q6 -1 11 -1l127 -6l93 -8q10 0 18 1q17 2 10 -2q-23 -15 -87 -29q-8 -2 -15 -4q-5 -1 -13 -1q-20 0 -56 6q-16 2 -29 2l-74 -5q-8 0 -18 2q-20 4 -29 28q-4 13 13 19zM203 214q8 32 8 70q0 30 -5 63q-6 44 -36 150l-15 56l-18 70 q-3 15 -2 30q5 72 52 116q12 10 27 21q42 32 103 32q10 0 20 -1t22 -2q40 -5 73 -44q5 -4 10 -12q13 -15 13 -40q0 -6 -1 -13q0 -3 -1 -6q-2 -8 -9 8q-13 23 -19 28q-36 27 -63 31q-15 2 -29 2q-30 0 -54 -10q-38 -16 -73 -56q-2 -2 -4 -5q-15 -17 -15 -49q0 -22 9 -60 l42 -151q17 -73 22 -121q4 -35 4 -58q0 -15 -2 -24l-2 -10q-15 -61 -19 -71q-11 -21 -28 -36q-62 -52 -129 -56q-10 -2 -21 -2q-29 0 -44 28q-5 9 -5 18q0 6 2 12q10 33 57 50q1 0 28 10q16 5 38 5q20 0 45 -4q6 0 9 -1q55 -10 102 -32q16 -7 53 -38q14 -12 26 -19 q48 -29 83 -38q15 -4 64 -6h9l88 -4l84 -1q14 -2 28 -5q3 -1 3 -2q0 -4 -37 -10q-2 -1 -5 -1q-55 -9 -98 -9l-114 -3q-32 1 -63 9q-36 9 -86 45q-22 16 -38 25l-33 21q-1 0 -2 1q-58 24 -66 26q-12 2 -26 3h-3q-20 0 -58 -14q-10 -3 -18 -5l-19 -3q-1 -1 0 -4q6 -8 28 -6 l39 2q10 3 18 11q38 35 51 89z" />
<glyph unicode="&#xa4;" horiz-adv-x="429" d="M279 446l72 55q7 4 10 4q4 0 -1 -9q-9 -16 -46 -63q-39 -50 -179 -151l-92 -62q-11 -8 -29 6q-7 5 -7 10q0 2 2 4q62 58 201 156zM17 457q-6 6 -6 14q0 7 5 15t12 8q3 0 6 -2q185 -110 257 -169q44 -37 82 -78q52 -58 52 -68q0 -2 -2 -2q-1 0 -3 1q-15 4 -75 51 q-49 39 -184 127q-87 54 -144 103zM92 433q48 52 57 55q4 2 38 2h6q90 0 126 -57q12 -18 12 -33q0 -102 -43 -134q-36 -29 -122 -29q-51 0 -90 55l6 130l15 11h-5zM124 391q-2 -17 -2 -32q0 -66 34 -81q12 -4 26 -4q92 0 103 73q1 8 1 17q-6 71 -89 73q-56 0 -69 -33 q-4 -7 -4 -13z" />
<glyph unicode="&#xa5;" horiz-adv-x="682" d="M286 58q27 2 59 2q80 0 184 -13l74 -9q13 -1 13 -3q0 -1 -19 -2l-257 -10q-39 -3 -48 -8q-2 -1 -3 -1q-8 0 -11 15q-2 8 -2 13q0 13 10 16zM253 296q30 2 65 2q78 0 178 -12l74 -9q18 -2 18 -5t-29 -7q-96 -12 -216 -13q-24 0 -49 1q-19 0 -35 1q-14 1 -16 24 q-1 17 10 18zM256 398q27 2 59 2q80 0 184 -13q49 -5 74 -9q18 -2 18 -4q0 -4 -29 -8q-96 -12 -215 -12h-49q-20 0 -35 1q-14 1 -17 24q-1 18 10 19zM550 780h59q-38 -89 -134 -291q-26 -53 -42 -98v-13q0 -35 3 -152q1 -26 1 -54q0 -55 -4 -114h-46l-10 350q47 82 113 245 q34 83 60 127zM70 715l59 -3q36 -59 129 -195l119 -175l3 -65q-66 84 -300 424q-6 7 -10 14zM492 823q-13 0 -12 -22q0 -19 12 -21l166 -3h1q11 0 11 14q0 5 -1 11q-3 23 -17 24h-17q-33 0 -111 -2q-16 -1 -32 -1zM21 784q-12 0 -12 -19q0 -23 12 -24l166 -3h1q11 0 11 14 q0 5 -1 11q-3 23 -17 24h-17q-33 0 -111 -2q-16 -1 -32 -1z" />
<glyph unicode="&#xa6;" horiz-adv-x="176" d="M39 631l-4 66q1 12 5 25q5 26 25 27h5q16 -1 23 -32q6 -31 6 -118v-19q1 -43 1 -70t-1 -38v-7q-1 -14 -25 -14q-23 1 -24 14zM54 255l4 63q1 17 24 19h5q12 0 17 -8q9 -14 9 -40q0 -12 -2 -26q-3 -19 -3 -31q1 -58 1 -87v-21l1 -38q-1 -6 -8 -11q-18 -13 -35 -13l-13 2 q-11 3 -11 14q0 38 11 177z" />
<glyph unicode="&#xa7;" horiz-adv-x="590" d="M142 633q175 -108 249 -166q46 -38 94 -83q27 -26 27 -57q0 -18 -9 -37q-3 -5 -7 -5q-11 0 -34 30q-5 6 -6 7q-5 6 -9 32q-2 13 -9 19q-53 44 -183 131q-83 55 -142 107q-8 7 7 18q13 8 22 4zM121 683q15 7 91 31q6 3 13 5l166 67l65 29q8 3 17 3t18 -3q13 -3 13 -16 q0 -8 -5 -20t-12 -19q-29 -24 -90 -43q-22 -6 -36 -12l-167 -57q-6 -3 -14 -6l-57 -23q-17 -9 -28 -25q-13 -20 -13 -36q0 -14 8 -25q4 -5 9 -9q67 -53 191 -113q84 -41 134 -72q57 -36 62 -40q18 -15 30 -38q13 -24 13 -49q0 -23 -10 -46q-21 -54 -70 -87l-10 -6 q-66 -41 -154 -56l-12 -3q-13 -3 -27 -3q-29 0 -58 14q-41 21 -52 56q-7 22 -7 33q0 10 18 47q11 24 17 0l10 -56q4 -12 10 -17q22 -19 57 -19q6 0 13 1q35 2 92 29q58 27 70 37q10 8 19 18q26 29 26 53q0 9 -4 18q-13 29 -54 52q-25 14 -31 18q-24 15 -104 51l-29 15 q-60 32 -85 48l-70 42q-14 11 -26 25q-40 46 -40 92q0 31 31 66l9 8q17 18 63 41z" />
<glyph unicode="&#xa8;" horiz-adv-x="451" d="M300 744q13 31 58 36q6 1 11 1q22 0 35 -13q14 -14 14 -31q0 -15 -12 -32q-15 -21 -40 -27q-5 -1 -11 -1q-27 0 -48 27q-10 13 -10 26q0 7 3 14zM29 747q20 20 50 20q13 0 29 -4q24 -7 38 -23q7 -7 7 -15q0 -14 -21 -29t-42 -15h-3q-36 1 -58 31q-7 10 -7 18.5t7 16.5z " />
<glyph unicode="&#xa9;" horiz-adv-x="634" d="M278 705q58 29 118 39q5 1 10 1q22 0 29 -15q2 -4 2 -9q0 -24 -58 -54q-4 -2 -2 4l14 32q0 3 -4 2q-85 -19 -150 -64l-13 -9q-70 -52 -99 -93q-11 -17 -22 -39q-49 -100 -53 -171q-1 -13 -1 -26.5t1 -26.5q5 -99 60 -134q6 -4 15 -9q85 -39 167 -39q28 0 56 5q27 4 56 12 q68 20 120 85q6 8 43 61q39 53 39 124q1 7 0 15q0 18 -41 60q47 -28 59 -57q3 -8 5 -17q3 -13 3 -27q0 -34 -17 -74q-2 -4 -6 -13q-34 -79 -73 -120q-8 -9 -17 -17q-43 -41 -110 -62q-5 -1 -13 -4q-57 -17 -107 -17q-17 0 -33 2q-4 1 -7 1q-90 13 -114 22q-34 12 -63 38 q-56 51 -67 132q-2 15 -3 33q-1 14 -1 28q0 71 30 143q5 13 13 31q28 61 87 120l29 28q42 41 112 77q2 1 6 2zM188 365q7 43 38 81q34 45 76 67q43 23 83 23h7q10 -1 -15 -22q-4 -2 -5 -4l-59 -34l-2 -2q-28 -21 -45 -45q-24 -31 -29 -53q-7 -29 -7 -43q0 -6 1 -10 q1 -6 6 -12q25 -40 72 -48q5 -1 11 -1q24 0 67 10q26 6 47 6h10q4 -1 4 -3q0 -4 -22 -16l-14 -7q-47 -24 -61 -28q-9 -2 -19 -2h-11q-35 0 -70 16q-39 21 -56 51q-10 22 -10 47q0 14 3 29z" />
<glyph unicode="&#xaa;" horiz-adv-x="340" d="M45 688l42 60q10 13 25 24q15 12 45 12q6 0 13 -1q6 0 -7 -6q-11 -5 -13 -7q-40 -34 -48 -44q-1 -2 -3 -4q-43 -58 -54 -92l-3 -6q-4 -13 -4 -22q0 -16 12 -23q5 -3 11 -3q14 0 35 16q11 9 29 38q3 7 8 13l30 45l14 12q12 8 25 8q9 0 18 -4q13 -7 26 -34q2 -4 4 -7 l23 -58l5 -8q8 -7 35 -11l23 4q1 0 1 -2q-3 -10 -26 -11q-19 -2 -30 -2t-15 2l-8 4q-15 10 -28 41q-4 10 -8 16l-12 31q-4 4 -12 5q-11 3 -21 -16l-7 -11l-25 -39q0 -1 -2 -2q-29 -34 -36 -39q-8 -6 -18 -11q-20 -10 -35 -10q-11 0 -20 6q-23 15 -25 57q-2 11 12 36q4 5 5 9 q13 26 19 34z" />
<glyph unicode="&#xab;" horiz-adv-x="613" d="M311 384l49 -27q4 -3 10 -6q12 -11 61 -63l18 -18l88 -78q5 -4 8 -8t37 -29q19 -14 19 -28q0 -5 -3 -11q-7 -11 -17 -11q-12 0 -29 14q-28 22 -32 24q-25 16 -76 63l-20 17l-89 85q-8 7 -17 13q-6 6 -32 11q-15 4 -22 15q-11 14 -11 28q0 13 8 26q20 31 64 61l31 23 q48 39 116 87q33 24 60 37q3 1 35 25q12 10 20 10q9 0 13 -11q2 -5 2 -10q0 -20 -26 -41l-26 -20q-16 -16 -60 -43l-18 -10l-63 -44l-44 -37l-1 -1zM64 381l49 -27l9 -7q13 -11 62 -62q9 -10 19 -18l87 -78l9 -9q3 -3 36 -28q20 -13 20 -27q0 -6 -4 -12q-7 -11 -17 -11 q-12 0 -30 14q-27 22 -30 24q-27 15 -77 62l-20 18l-90 85q-7 6 -16 13q-7 5 -32 11q-15 4 -23 15q-10 13 -10 27q0 13 8 26q21 32 63 61l32 23q49 40 116 88q33 23 61 37q2 1 34 25q12 9 20 9t13 -10q2 -5 2 -11q0 -20 -27 -41l-25 -19q-16 -17 -60 -43q-10 -5 -17 -11 l-64 -43l-43 -37l-1 -1z" />
<glyph unicode="&#xac;" horiz-adv-x="490" d="M24 478q-12 0 -12 16q0 3 1 7q3 19 14 20q86 11 158 11q57 0 106 -7q26 -3 53 -7q73 -12 89 -66q23 -76 23 -167q0 -22 -1 -45q-1 -7 -5 -72q-1 -11 -14 -11q-3 0 -7 1q-13 1 -16 10q-7 33 -7 96v30v10q0 50 -9 88q-14 61 -47 74l-9 2q-63 15 -125 15q-13 0 -27 -1 q-107 -4 -165 -4z" />
<glyph unicode="&#xad;" horiz-adv-x="379" d="M79 395q12 1 33 1t51 -1h116h10l53 7q17 -3 17 -22q0 -28 -35 -28l-35 -1q-42 -4 -87.5 -4t-95.5 4l-53 2q-18 4 -30 24q-3 4 -3 7q0 8 19 10z" />
<glyph unicode="&#xae;" horiz-adv-x="634" d="M285 725q56 28 115 38q5 1 10 1q21 0 28 -15q2 -5 2 -9q0 -24 -56 -52q-5 -3 -4 3l16 31q0 4 -5 3q-83 -19 -147 -64l-12 -8q-68 -50 -97 -91q-11 -17 -22 -38q-48 -98 -52 -168q-1 -13 -1 -25.5t1 -26.5q6 -97 59 -131q6 -4 15 -9q83 -38 162 -38q28 0 56 5q26 4 55 12 q67 19 117 82q7 9 43 60q38 53 38 122q1 7 0 15q0 17 -41 58q47 -27 59 -55q3 -8 5 -16q3 -13 3 -27q0 -33 -17 -73q-2 -4 -6 -13q-33 -77 -72 -117q-7 -9 -16 -17q-42 -40 -108 -61q-5 -1 -13 -3q-56 -17 -104 -17q-17 0 -33 2q-4 1 -7 1q-88 13 -111 22q-34 12 -62 37 q-55 50 -66 129q-2 14 -3 32q-1 12 -1 25q0 71 30 143q5 13 13 30q27 60 85 118l28 27q41 41 110 75q2 2 6 3zM383 589q-33 8 -65 9q-18 0 -74 -5q-43 -4 -53 -7q-15 -6 -18 -18q-1 -10 -1 -29t1 -48q0 -6 1 -13q0 -32 6 -132q3 -91 6 -118v-30q3 -5 8 -9q4 -2 8 -2 q9 0 16 9q4 5 3 12q-4 44 -10 118q-8 129 -9 166v20q0 47 4 48q10 0 28 7q4 1 8 1q28 3 57 3h15l54 -7q14 0 -7 -18q-25 -23 -30 -31l-43 -64q-10 -18 -14 -41q-1 -4 -1 -8q0 -26 30 -57q21 -23 68 -43q6 -4 11 -6q19 -10 65 -18l34 -9q6 0 13 2q10 2 10 12q0 3 -1 6 q0 3 -3 5q-5 7 -24 8q-5 0 -8 1l-54 13q-1 0 -2 1q-3 1 -45 24q-3 2 -7 4q-32 18 -46 46q-5 11 -5 22q0 14 7 28q10 19 42 53q13 13 21 25l27 35q5 10 6 24q0 9 -21 10q-5 1 -8 1z" />
<glyph unicode="&#xaf;" horiz-adv-x="379" d="M66 646q13 1 36 1t56 -1l129 1q6 -1 11 -1l59 7q18 -1 18 -24q0 -30 -38 -31l-39 -1q-46 -5 -96.5 -5t-105.5 5l-59 4q-20 5 -33 25q-3 4 -3 8q0 9 21 10z" />
<glyph unicode="&#xb0;" horiz-adv-x="346" d="M29 698q36 52 101 89q10 6 32 17q2 1 4 1q6 0 14 -11q6 -11 0 -15q-70 -49 -76 -54q-27 -23 -45 -56q-7 -13 -7 -26q0 -21 21 -41q4 -5 8 -9q27 -18 66 -18q14 0 30 2q3 0 9 1q58 7 72 15q19 10 28 31q1 2 1 5q0 20 -41 64q-16 19 -11 19q2 0 7 -2q42 -12 48 -19 q4 -4 10 -13q28 -35 28 -58v-6q0 -4 -3 -10q-11 -33 -60 -46q-5 -2 -10 -3q-59 -15 -105 -15q-20 0 -37 3q-8 1 -17 3q-58 10 -76 54q-10 22 -10 43q0 28 19 55z" />
<glyph unicode="&#xb1;" horiz-adv-x="454" d="M146 409q83 5 120 4h20q14 -1 31 -4q60 -7 67 -10q23 -7 39 -27q11 -16 -5 -15l-36 5q-6 0 -50 5q-9 1 -18 1l-149 -2q-15 0 -29 2q-47 6 -48 6q-19 5 -25 22q-3 11 14 15q1 0 60 -2h9zM215 368l-17 148q-2 11 -4 24q-4 14 -25 56q-11 22 -11 42q0 7 2 14q1 9 7 9 q10 0 34 -34q6 -6 10 -13q33 -53 43 -102q0 -4 1 -7q15 -74 18 -188l2 -108q-2 -34 -12 -70q-6 -14 -24 7q-9 11 -11 21q-6 28 -6 84v30q0 27 -1 49zM93 72q8 2 31.5 2t62.5 -2h12h150h11l69 7q19 -2 19 -20q0 -27 -45 -27q-44 -1 -43 -1q-53 -4 -111 -4t-121 4l-68 2 q-23 5 -39 23q-3 4 -3 7q0 7 18 8z" />
<glyph unicode="&#xb2;" horiz-adv-x="376" d="M-34 731l50 40q1 1 4 2q31 21 58 31q17 5 34 5h10q26 -3 35 -15q5 -8 5 -27q0 -7 -1 -14q0 -6 -10 -45l-25 -92q-8 -45 -8 -58q0 -7 1 -15q6 -48 6 -49q7 -18 23 -27q4 -2 8 -2q12 0 28 16q12 12 18 16l53 43q40 29 68 46q12 7 56 28l21 8l-75 -61l-85 -64l-50 -41l-7 -4 q-16 -10 -27 -10h-2q-23 2 -32 15q-27 38 -33 75q-1 6 -1 13q0 25 9 65q2 6 3 12l24 80q10 41 11 59q1 13 -9 18q-9 4 -20 4q-8 0 -17 -2t-35 -18q-3 -3 -7 -5q-38 -20 -41 -20z" />
<glyph unicode="&#xb3;" horiz-adv-x="311" d="M-17 765l-16 -12l1 -8l12 -7l24 15l36 19l48 18l61 4l41 -7l21 -13l7 -14l-7 -21l-13 -10l-23 -20l-32 -22l-9 -14v-1q-2 -7 5 -10l21 -5q36 -12 37 -13l5 -2q11 -8 24 -29q15 -24 15 -37q-1 -19 -18 -36q-24 -21 -48 -27q-5 -1 -13 -1q-17 0 -48 5l-16 8q-7 1 -9.5 -4.5 t4.5 -10.5q15 -12 25 -14q17 -2 35 -2t37 2q14 2 30 13q22 13 34 26q9 11 11 27q2 14 2.5 24.5t-2.5 18.5q-6 25 -22 38q-39 31 -60 31h-4q-8 -2 -3 4l35 26l28 31q4 5 8 13q3 6 3 14q0 10 -5 23q-3 7 -19 15.5t-32 10.5q-15 1 -32 1h-19q-37 -2 -58 -7q-23 -6 -65 -22z" />
<glyph unicode="&#xb4;" horiz-adv-x="223" d="M43 670h-3q-15 0 -22 9q-2 2 -2 4t2 4q29 28 83 55q8 3 40 33q22 20 37 23h2q16 0 26 -14q1 -3 1 -5q0 -5 -3 -7q-39 -36 -86 -62l-56 -34q-10 -5 -19 -6z" />
<glyph unicode="&#xb5;" horiz-adv-x="667" d="M108 549q5 15 24 17q10 1 12 -7q5 -18 5 -48q0 -20 -2 -46q-1 -13 -1 -25q0 -25 4 -44l18 -82q13 -40 48 -56q41 -17 82 -17q61 0 124 37q53 33 64 111q2 14 4 36q1 8 1 16q0 41 -22 96q-16 35 -21 55q-1 4 -21 30q-4 6 0 6h1q41 -18 66 -56q15 -24 35 -84q5 -17 11 -30 l45 -111l57 -144q19 -57 19 -77q0 -5 -5 -5q-13 1 -34 24q-2 3 -4 5q-11 16 -24 63q-5 16 -12 29l-36 94q-5 10 -8 10q-5 0 -8 -19q-6 -34 -33 -51l-23 -14q-58 -39 -81 -46q-18 -6 -40 -7q-55 -2 -84 -2q-20 0 -29 1q-48 8 -83 41q-41 39 -50 113l-9 86q-3 18 -3 35 q0 35 13 66zM23 186q13 141 28 200l14 49q4 9 15 9q4 0 9 -1q12 -3 12 -10q0 -58 -38 -220q-13 -56 -20 -99l-15 -102q-1 -2 -2 8q-6 59 -6 106q0 33 3 60z" />
<glyph unicode="&#xb6;" horiz-adv-x="718" d="M266 673q11 -2 10 -18q0 -10 -7 -12q-18 -8 -67 -8q-28 0 -47 -8q-58 -25 -77 -45q-10 -11 -18 -27q-8 -17 -8 -33q0 -26 23 -48l5 -4q40 -33 106 -39q6 -2 31 -4h7q25 0 70 12q17 6 31 8q9 1 16 1q17 0 17 -9q1 -12 -27 -25q-41 -21 -111 -25q-15 -1 -16 -1h-14 q-37 0 -68 13q-58 25 -59 25q-23 13 -36 37q-18 33 -18 65q0 28 15 56q21 39 74 61q7 2 31 11q50 18 107 18q15 0 30 -1zM223 35q-10 1 -8 18q2 11 8 11q37 2 75 2q120 0 246 -17q4 0 10 -1q12 -1 -7 -14q-13 -9 -23 -9q-50 -2 -96 -2q-107 0 -190 10q-8 1 -15 2zM479 712 q0 14 23 15q21 0 22 -12q13 -118 13 -270q0 -45 -1 -93q-1 -77 -6 -77h-1q-4 2 -8 35l-34 231q-8 74 -8 143v28zM279 713q0 11 27 12q24 1 25 -10l39 -414q7 -112 7 -227q0 -9 -10 -9q-6 0 -16 4q-19 6 -20 15l-51 615q0 5 -0.5 9t-0.5 5zM31 758q-8 1 -8 10q0 3 1 8 q3 10 10 11q148 29 262 29h15h27q167 -3 356 -37q14 -2 33 -5q7 -1 11 -8.5t4 -14.5t-5 -7l-321 18q-32 1 -68 2h-8q-41 0 -176 -8q-27 -1 -52 -1q-42 0 -81 3z" />
<glyph unicode="&#xb7;" horiz-adv-x="171" d="M38 415q33 29 60 29q4 0 8 -1q56 -18 56 -51q0 -5 -2 -11q-8 -48 -80 -61q-8 -1 -15 -1q-43 0 -58 36q-3 6 -3 12q0 22 34 48z" />
<glyph unicode="&#xb8;" horiz-adv-x="152" d="M53 187q-2 -6 -2 -14q0 -14 6 -34q1 -5 2 -8q2 -6 17 -30q8 -13 8 -24q0 -16 -19 -26q-6 -3 -26 1q-11 1 -17 -4q-9 -7 -9 -17q0 -4 1 -8q2 -7 8 -8q16 -5 31 -5q25 0 49 14q28 16 28 55q-1 16 -18 43q-9 14 -13 25q-1 4 -1 18v17q1 15 -8 23q-5 5 -10 5q-10 0 -21 -13 q-4 -5 -6 -10z" />
<glyph unicode="&#xb9;" horiz-adv-x="115" d="M68 807l-18 7l-19 -10l-5 -12l5 -93l5 -86l3 -73l6 -42l14 -41l15 -17l3 140v116l6 99z" />
<glyph unicode="&#xba;" horiz-adv-x="346" d="M34 704q35 52 100 89l33 18q2 1 3 1q7 0 15 -12q6 -10 0 -15q-70 -48 -76 -53q-27 -23 -45 -57q-7 -13 -7 -26q0 -21 21 -41q4 -5 8 -8q27 -18 66 -18q14 0 30 2q3 0 9 1q58 7 72 15q18 9 28 30q1 2 1 5q0 21 -41 65q-16 18 -11 18q2 0 7 -1q41 -13 48 -20q4 -3 9 -13 q29 -34 29 -56q0 -4 -1 -7q0 -5 -2 -11q-12 -32 -60 -46q-5 -1 -11 -2q-61 -15 -107 -15q-18 0 -34 2q-8 1 -17 4q-58 10 -77 54q-9 21 -9 42q0 28 19 55z" />
<glyph unicode="&#xbb;" horiz-adv-x="652" d="M595 407l-52 -32q-4 -3 -10 -9q-17 -14 -70 -74q-9 -12 -18 -22l-93 -93l-10 -12l-52 -45q-10 -10 -10 -22q0 -7 4 -14q8 -13 19 -13q13 0 31 16q33 29 35 30q29 21 83 77l20 20l96 100l19 17q8 7 35 14q16 3 25 17q11 17 11 35q0 15 -9 31q-22 37 -68 71l-35 29 q-71 64 -124 105q-34 27 -66 44q-5 3 -37 30q-14 12 -23 12.5t-14 -12.5q-2 -6 -2 -13q0 -24 28 -48q24 -20 29 -25q17 -20 62 -49l22 -15l68 -53l48 -45zM326 398l-51 -31q-5 -5 -10 -9q-17 -16 -70 -76l-19 -21l-92 -93q-6 -6 -10 -12l-53 -45q-9 -11 -9 -21q0 -7 4 -14 q7 -13 19 -13t31 15q34 30 35 30q29 21 84 76q10 12 20 21l95 100l19 17q7 6 34 13q17 5 26 18q11 18 11 36q0 15 -8 30q-23 37 -69 71l-35 29q-71 64 -124 105q-34 26 -67 44q-5 2 -37 31q-13 11 -22 11t-13 -12q-3 -7 -3 -14q0 -24 29 -48q23 -20 28 -23q18 -21 61 -50 q13 -8 23 -15l68 -52l49 -45z" />
<glyph unicode="&#xbc;" horiz-adv-x="547" d="M172 365l93 145l110 167l45 70q12 15 27 26q14 12 29 12q4 0 9 -1q8 -3 8 -11q0 -22 -27 -50q-13 -15 -19 -24l-115 -168l-110 -166l-89 -150l-21 -29l-46 -75q-14 -18 -28 -18q-7 0 -15 5q-4 3 -4 8q0 17 30 61q24 36 31 48q9 18 86 138zM428 406l10 -184l109 29h19 l8 -10l-9 -6l-51 -28l-68 -28l-8 -4l2 -110l2 -30l1 -7l-9 -16l-5 -2l-11 14l-6 28l-3 20l-4 98l-113 2l-48 5q-4 1 -9 4q-29 12 -35 25q-1 2 -1 6v5q0 16 15 40q4 5 5 8q8 12 40 46l45 46q35 32 56 48q29 24 35 28q3 1 5 2q16 6 25 -3q3 -4 3 -26zM403 204l-8 190 l-168 -146l-4 -14l3 -14l10 -9l17 -8l54 -3zM90 795l-19 7l-20 -10l-5 -12l5 -92l5 -87l3 -73l6 -42l16 -40l15 -18l5 140v116l4 100z" />
<glyph unicode="&#xbd;" horiz-adv-x="590" d="M122 762l-16 8l-17 -11l-4 -13l4 -102l4 -97l3 -80l5 -46l13 -45l13 -19l3 155v127l5 111zM202 291l43 37l4 2q27 19 50 28q15 5 30 5h8q22 -3 30 -14q5 -7 4 -25v-13q0 -5 -9 -41l-21 -84q-8 -41 -8 -55q0 -6 1 -12q6 -44 7 -47q5 -15 18 -22q4 -2 8 -2q10 0 24 15 q10 11 15 15l46 39q34 26 58 41q11 7 49 26l18 7l-65 -56l-73 -57l-44 -39q-3 -1 -5 -3q-13 -9 -23 -9h-3q-20 1 -27 13q-24 35 -28 70q-1 5 -1 12q0 22 8 59l2 10l21 74q8 37 9 54q1 12 -7 16t-18 4q-6 0 -14 -2t-31 -17l-6 -4q-33 -18 -35 -18q1 0 -35 -7zM168 359l80 126 l95 144l39 60q10 13 23 23q12 10 24 10q5 0 9 -1q7 -2 7 -9q0 -19 -23 -43q-12 -13 -17 -21l-99 -145l-95 -144l-77 -129l-18 -25l-40 -65q-12 -15 -24 -15q-6 0 -13 4q-3 2 -3 7q0 14 25 52q21 31 27 42q8 15 74 119z" />
<glyph unicode="&#xbe;" horiz-adv-x="701" d="M563 448l11 -200l130 30h22l9 -11l-10 -5l-61 -32l-81 -30l-9 -4l1 -121l4 -32l2 -8l-12 -18l-5 -1l-14 16l-6 30l-6 21l-3 108l-135 2l-55 5q-6 1 -12 3q-34 14 -40 28q-2 4 -2 7q-1 4 -1 7q0 17 18 41q5 6 7 10q9 14 42 45l5 5q23 23 55 50q40 34 65 53q34 26 40 29 q4 2 8 3q17 7 29 -3q4 -5 4 -22v-6zM532 227l-9 207l-199 -159l-5 -16l3 -14l14 -11l19 -8l63 -3zM257 378l93 146l110 167l45 69q11 15 26 27q14 12 28 12l10 -2q9 -2 9 -10q0 -22 -27 -50q-14 -15 -20 -24l-114 -168l-110 -167l-89 -149q-11 -14 -21 -29l-47 -75 q-13 -18 -27 -18q-7 0 -15 5q-4 2 -4 8q0 17 29 61q24 35 31 48q10 17 86 138zM16 770l-15 -15l1 -11l11 -9l22 20l32 23l44 24l53 5l39 -8l18 -19l6 -17l-6 -26l-13 -14l-19 -25l-29 -28l-8 -18v-2q-2 -9 4 -12q3 -3 19 -7l30 -14q3 -2 7 -6q10 -9 22 -37q14 -33 14 -47 q-1 -24 -18 -47q-19 -27 -41 -33q-7 -3 -18 -3q-14 0 -33 5q-3 1 -5 1q-2 1 -9 8q-2 3 -5 4q-7 1 -8 -7q-2 -7 4 -13q12 -16 23 -18q15 -2 31 -2t34 2q11 3 26 16q20 17 30 35q8 12 11 34q2 17 2 31t-2 24q-7 33 -21 49q-35 40 -54 40h-3q-6 -3 -4 2l33 37l26 39q3 9 5 17 q3 9 3 20q0 12 -4 28q-3 10 -17 20q-15 9 -29 13q-15 2 -33 2h-12q-34 -3 -52 -9q-21 -7 -58 -28z" />
<glyph unicode="&#xbf;" horiz-adv-x="455" d="M227 707q-21 0 -31 23q-7 17 2 27q18 18 40 18q7 0 15 -2q16 -3 22 -15q4 -7 4 -14q0 -15 -21 -28q-16 -9 -31 -9zM314 50q-55 -26 -101 -26q-15 0 -30 3q-7 1 -15 3q-84 26 -116 74q-8 12 -14 24q-19 43 -19 89q0 41 15 83q2 8 5 17q30 70 99 108q12 7 29 14q5 2 10 2 q13 0 24 -19q10 -15 5 -28q-3 -10 -21 -10h-7q-21 3 -28 -5q-53 -61 -68 -110q-3 -12 -6 -27q-3 -16 -3 -31q0 -48 30 -85q31 -39 88 -39q6 0 13 1q82 6 117 30q15 9 27 24q32 37 34 103q2 50 2 56q0 8 -16 27q-9 12 -1 17q11 7 22 7t23 -8q9 -8 12 -19q9 -41 9 -79 q0 -45 -13 -84q-3 -10 -8 -22q-20 -51 -76 -80q-10 -4 -22 -10z" />
<glyph unicode="&#xc0;" horiz-adv-x="470" d="M302 740q8 -12 1 -23q-2 -4 -7 -2q-31 14 -68 48q-3 3 -39 22q-22 11 -29 22q-6 13 2 25q4 4 7 4l3 -1q41 -19 77 -49l42 -33q8 -6 11 -13zM128 281q21 8 74 10q92 5 126 5h15l25 -2l70 -2q13 -2 13 -7t-15 -14q-29 -17 -98 -18q-33 0 -50 -2q-31 -3 -54.5 -3t-39.5 3 q-73 15 -73 25q0 1 1 2t6 3zM53 37q-6 -15 -20 -14q-16 2 -16 30q0 47 27 128q6 20 9 33l37 174q48 169 53 184q22 65 55 128q7 13 22 13q5 0 12 -2q14 -4 20 -14q40 -83 72 -213l18 -72q30 -113 47 -242l15 -94q1 -7 1 -14q0 -25 -9 -49q-2 -7 -6 -7q-5 0 -13 25l-15 63 q-9 31 -47 210l-10 44q-43 188 -67 271q-8 31 -15 31q-4 1 -10 -15q-4 -7 -8 -19q-27 -82 -70 -263q-11 -47 -21 -85l-36 -163q-9 -35 -25 -68z" />
<glyph unicode="&#xc1;" horiz-adv-x="490" d="M168 735q-15 -1 -22 8q-3 3 0 7q25 25 73 49q7 2 35 28q20 18 33 20h4q12 0 20 -12q3 -7 -1 -10q-34 -32 -76 -55l-49 -29q-9 -5 -17 -6zM136 282q22 8 76 10q124 6 147 6q13 -1 28 -2l74 -3q11 -2 11 -6q0 -6 -16 -15q-30 -18 -102 -19q-33 0 -51 -3q-32 -3 -56.5 -2.5 t-41.5 2.5q-81 16 -76 28q2 2 7 4zM59 28q-7 -16 -22 -15q-17 1 -17 32q0 48 28 130q8 22 11 37l36 171q1 6 3 10q50 180 54 192q23 66 57 133q7 13 23 13q6 0 13 -2q14 -3 19 -14q42 -86 74 -217q14 -55 21 -80q31 -118 48 -252l17 -96q1 -7 1 -14q0 -27 -10 -53 q-3 -8 -6 -8q-6 0 -13 26l-16 66q-9 33 -49 219q-5 24 -10 45q-40 171 -70 283q-9 32 -15 33q-8 0 -20 -36q-28 -83 -72 -274l-21 -90l-39 -171q-10 -35 -25 -68z" />
<glyph unicode="&#xc2;" horiz-adv-x="421" d="M132 726q8 22 41 57l10 10q10 12 19 12q7 0 14 -6q41 -41 60 -85q4 -8 -9 -13q-6 -2 -10 0q-16 10 -40 41q-7 9 -13 16l-36 -43q-8 -9 -20 -14q-11 -4 -16 12q-2 7 0 13zM110 269q18 6 63 10h7q110 5 131 5q11 -1 25 -2l65 -2q12 -2 12 -7q0 -6 -14 -14q-29 -16 -95 -17 q-29 0 -44 -1q-29 -3 -51 -3t-37 3q-67 13 -67 23q0 3 5 5zM41 40q-6 -14 -20 -12t-14 28q0 44 25 119q6 19 9 31l32 155l2 8l46 165q22 64 54 127q7 12 21 12q5 0 12 -2q13 -4 18 -14q38 -76 68 -198l17 -68q28 -106 44 -226l14 -88v-6q0 -27 -8 -53q-2 -7 -5 -7 q-5 0 -12 25l-14 58q-9 29 -44 197l-10 41q-42 180 -63 254q-7 28 -13 28q-4 1 -10 -13q-3 -7 -7 -18q-26 -78 -66 -247l-19 -80l-34 -154q-9 -32 -23 -62z" />
<glyph unicode="&#xc3;" horiz-adv-x="445" d="M52 701q20 44 49 65q1 2 3 3q15 12 33 12q9 0 19 -4q18 -6 44 -30q9 -9 17 -15l21 -19q4 -3 8 -4q24 -9 42 -9q6 0 11 1q16 3 41 23q3 3 6 5q7 5 44 39q5 4 9 8l21 17q1 0 1 -1q0 -13 -32 -52q-2 -3 -4 -5q-14 -20 -34 -34q-34 -26 -38 -28q-10 -5 -21 -7q-5 -1 -11 -1 q-18 0 -43 10q-4 2 -7 3q-8 3 -29 23l-27 29q-4 3 -8 5q-19 12 -36 12h-5q-13 -1 -29 -19q-4 -5 -16 -30q-6 -13 -16 -19q-9 -5 -13 10q-2 7 0 12zM123 256q17 7 61 10h6q109 5 129 5l25 -2l63 -2q12 -2 12 -7t-14 -13q-27 -16 -91 -17q-29 0 -44 -1q-28 -3 -49.5 -3 t-36.5 3q-67 13 -67 22q0 1 1 2t5 3zM55 32q-6 -13 -19 -12q-15 1 -15 28q0 44 25 118q6 18 9 29l32 152l2 8q42 152 53 183q18 50 45 102q7 13 21 13q5 0 11 -2q12 -4 17 -14q37 -74 65 -190q12 -50 18 -71q27 -104 43 -221l14 -84v-10q0 -26 -8 -50q-2 -7 -5 -7 q-5 0 -11 23l-14 57q-9 32 -41 182l-12 52q-44 186 -61 249q-8 28 -13 28q-7 0 -18 -31q-24 -71 -62 -235l-21 -85l-32 -148q-9 -32 -23 -64z" />
<glyph unicode="&#xc4;" horiz-adv-x="469" d="M271 782q8 20 32 21h3q12 0 19 -7q7 -9 7 -19q0 -11 -8 -23q-8 -11 -19 -13q-3 -1 -5 -1q-16 0 -26 20q-7 12 -3 22zM108 792q10 13 25 13q8 0 17 -4q11 -4 18 -13q4 -5 4 -9q0 -10 -15 -20q-10 -8 -20 -7q-20 1 -30 21q-6 11 1 19zM124 280q18 7 67 10h6q119 5 141 5 l27 -2l70 -2q13 -2 13 -7q0 -6 -15 -15q-31 -17 -102 -18q-30 0 -47 -1q-31 -3 -54.5 -3t-38.5 3q-72 14 -72 25q0 2 5 5zM50 35q-6 -15 -21 -13t-15 30q0 47 26 128q7 19 10 33l35 165l2 9l49 175q23 69 58 137q7 13 22 13q6 0 13 -2q14 -5 20 -16q39 -80 69 -207 q13 -53 20 -77q30 -111 48 -241l15 -95v-6q0 -28 -9 -56q-2 -8 -5 -8q-6 0 -13 27l-15 62q-9 31 -47 210q-6 23 -10 44q-46 193 -68 271q-7 31 -14 31q-4 1 -11 -15q-3 -7 -7 -19q-28 -83 -70 -264q-11 -47 -21 -85l-36 -165q-10 -33 -25 -66z" />
<glyph unicode="&#xc5;" horiz-adv-x="438" d="M145 779q30 30 36 31h19h3q57 0 76 -35q4 -8 4 -14q0 -61 -31 -78q-21 -11 -64 -11q-29 0 -52 30l3 71l9 6h-3zM169 755q21 22 39 22q43 0 43 -35q-9 -39 -50 -43q-35 0 -35 27q0 4 1 9q1 9 6 20h-4zM120 248q20 7 68 9q109 5 128 5l25 -2l64 -2q12 -2 12 -6 q0 -5 -14 -13q-27 -16 -90 -17q-29 0 -45 -2q-29 -3 -50.5 -2.5t-35.5 2.5q-67 13 -67 23q0 2 5 5zM53 24q-6 -14 -19 -13q-15 1 -15 28q0 45 25 118q6 18 9 29l31 153q1 4 2 7l48 169q20 59 51 117q6 12 20 12q5 0 12 -2q12 -4 17 -13q37 -75 65 -191q12 -48 18 -70 q27 -104 43 -222l14 -86v-10q0 -25 -8 -48q-2 -7 -5 -7q-5 0 -12 23l-14 58q-8 29 -43 193q-5 21 -9 40q-42 178 -61 249q-8 28 -14 29q-7 0 -17 -32q-25 -75 -64 -241q-10 -43 -19 -78l-33 -152q-9 -31 -22 -60z" />
<glyph unicode="&#xc6;" horiz-adv-x="753" d="M408 71q55 12 120 12q41 0 87 -5q-22 2 -22 2.5t70 -5.5q4 -1 7 -1q32 -3 49 -17q7 -6 -2 -12q-30 -19 -89 -20q-24 -1 -37 -2l-117 -12h-7l-65 8q-13 4 -13 19q0 6 2 13q4 18 17 20zM426 419q53 11 118 11q40 0 85 -4q55 -4 60 -4q31 -1 47 -17q3 -3 3 -6t-4 -6 q-31 -20 -88 -21q-24 0 -38 -1l-117 -12h-7q-32 0 -65 8q-12 4 -12 20q0 6 1 12q4 18 17 20zM415 739q53 11 118 11q43 0 91 -5l53 -5q32 -1 49 -16q3 -3 3 -5q0 -3 -4 -6q-32 -20 -90 -21q-24 -1 -37 -2l-117 -12h-7l-65 8q-12 4 -12 20q0 5 1 11q4 19 17 22zM415 739 q53 11 118 11q43 0 91 -5l53 -5q32 -1 49 -16q3 -3 3 -5q0 -3 -4 -6q-32 -20 -90 -21q-24 -1 -37 -2l-117 -12h-7l-65 8q-12 4 -12 20q0 5 1 11q4 19 17 22zM164 310q25 8 81 10l122 10q29 0 60 -6q23 -4 23 -8q0 -9 -37 -29q-32 -17 -67 -17h-10q-16 1 -28 0q-11 -1 -21 -1 q-33 0 -58 8q-65 20 -64 19q-17 8 -1 14zM27 45q-9 -15 -25 -15h-2q-12 1 -12 16q0 7 3 17q10 52 59 139q11 20 18 34l75 176q2 6 6 13q88 181 107 214q35 60 81 124q11 14 27 14q7 0 14 -2q14 -5 16 -16q25 -87 30 -222q1 -59 2 -86q2 -39 2 -81q0 -85 -8 -180l-5 -99 q-4 -37 -24 -72q-4 -7 -8 -7q-5 0 -7 22l-3 73q-1 29 -1 233v42q-4 185 -10 293q-2 33 -8 35q-8 0 -28 -38q-50 -89 -135 -279q-23 -54 -45 -97l-78 -180q-17 -36 -41 -71z" />
<glyph unicode="&#xc7;" horiz-adv-x="503" d="M245 174q-2 -6 -2 -14q0 -14 6 -34q1 -5 2 -8q2 -6 17 -30q8 -13 8 -24q0 -16 -19 -26q-6 -3 -26 1q-11 1 -17 -4q-12 -9 -8 -25q2 -7 8 -8q16 -5 31 -5q25 0 49 14q28 16 28 55q-1 16 -18 43q-9 14 -13 25q-1 4 -1 18v17q1 15 -8 23q-5 4 -10 4q-10 0 -21 -12 q-4 -5 -6 -10zM162 708q26 23 77 42q12 5 18 7q36 14 45 15q8 0 17 -2q12 -4 9 -21q-2 -7 -6 -10q-18 -13 -64 -26q-24 -7 -41 -17q-45 -28 -64 -56q-3 -4 -6 -9q-55 -85 -67 -112q-15 -35 -23 -75q-5 -27 -5 -51q0 -48 20 -85q4 -9 10 -18q37 -58 114 -61h14q60 0 144 21 q70 18 115 22q17 1 31 1q27 0 40 -5q2 -1 2 -2q0 -3 -8 -6q-14 -5 -80 -16q-15 -3 -28 -6q-14 -3 -91 -30q-44 -15 -84 -16h-32q-60 0 -84 6q-33 8 -62 31q-61 48 -65 137v17q0 73 38 154q-2 -5 -2.5 -5t29.5 62q27 58 77 104q6 4 12 10z" />
<glyph unicode="&#xc8;" horiz-adv-x="472" d="M320 713q7 -12 1 -22q-2 -5 -6 -2q-36 17 -66 47q-3 3 -38 20q-21 10 -27.5 21.5t2.5 24.5q3 4 6 4q2 0 3 -1q39 -19 74 -48zM196 616q48 10 106 10q37 0 78 -4q-20 2 -20 2.5t63 -5.5q3 -1 6 -1q29 -2 43 -14q3 -3 3 -5q0 -3 -4 -6q-27 -17 -79 -18q-21 -1 -33 -2 l-104 -10h-7l-57 7q-12 3 -12 16q0 5 2 12q4 16 15 18zM197 325q36 28 97 41q28 8 30 8l65 21q14 3 27 3q16 0 29 -5q6 -3 6 -6q0 -10 -38 -28q-24 -12 -25 -12q-17 -8 -81 -25q-17 -4 -32 -9q-6 -2 -36 -21q-14 -10 -28 -10q-4 0 -7 1q-15 3 -15 22q0 15 8 20zM381 209 q-6 5 -6 -4l4 -39q-1 -6 -4 -9l-36 -29l-13 -6q-55 -24 -77 -28q-10 -1 -19 -1l-84 -5q-39 2 -58 31q-24 35 -24 81q0 33 12 71q4 15 12 38l22 84l31 100q3 12 5 26q5 37 5 64q0 24 -4 41q-1 6 -3 11q-8 25 -26 30q-3 1 -5 1q-5 0 -9 -3q-10 -4 0 -25q6 -12 6 -20 q1 -13 1 -24q0 -28 -4 -46q-2 -10 -19 -68q-2 -6 -3 -10q-34 -110 -37 -122l-2 -10q-24 -99 -24 -100q-5 -26 -5 -58q0 -51 25 -94q21 -35 62 -48q42 -12 89 -12q21 0 43 2q57 8 116 42q42 23 51 34q11 11 14 27q1 7 1 13q0 35 -37 65z" />
<glyph unicode="&#xc9;" horiz-adv-x="496" d="M276 704q-14 -1 -21 8q-3 3 0 6q28 26 71 47q5 2 33 27q18 18 31 20h4q10 0 19 -10q4 -7 0 -12q-37 -32 -74 -52l-48 -28q-8 -5 -15 -6zM194 601q50 10 110 10q38 0 81 -4q-21 2 -21 2.5t65 -5.5q4 -1 7 -1q29 -2 45 -15q3 -3 3 -5q0 -3 -4 -6q-29 -18 -83 -19 q-22 -1 -34 -2l-108 -11h-7q-30 0 -59 8q-13 3 -13 17q0 5 2 12q4 16 16 19zM195 299q37 28 100 42q30 8 32 8l68 22q14 3 26 3q17 0 31 -6q6 -2 6 -6q0 -9 -39 -28q-24 -12 -26 -12q-18 -9 -85 -27q-17 -4 -32 -9q-7 -3 -37 -22q-15 -10 -30 -10q-3 0 -7 1q-16 2 -16 23 q0 15 9 21zM386 178q-7 5 -7 -5l5 -40q-1 -7 -5 -9l-37 -30l-13 -7q-58 -25 -80 -28q-10 -1 -20 -1l-87 -6q-41 2 -60 32q-25 37 -25 85q0 34 12 73q4 15 13 39l23 87l31 105q4 12 6 26q5 38 5 66q0 25 -4 43q-1 7 -3 12q-8 26 -28 32h-4l-10 -2q-10 -5 0 -27q7 -13 7 -20 q1 -12 1 -22q0 -31 -5 -51q-2 -10 -19 -71q-2 -6 -4 -10q-34 -114 -38 -126l-2 -11q-25 -103 -25 -104q-5 -27 -5 -60q0 -53 26 -98q22 -36 64 -50q43 -13 91 -13q22 0 46 3q59 8 120 44q44 24 54 35q11 12 14 28q1 7 1 14q0 37 -38 67z" />
<glyph unicode="&#xca;" horiz-adv-x="460" d="M191 694q7 20 38 53q7 7 11 12q11 12 21 12q7 0 13 -6q40 -40 59 -83q3 -8 -9 -13q-6 -2 -10 1q-16 10 -39 39q-7 9 -13 16l-35 -42q-9 -8 -20 -13q-10 -5 -16 11q-2 7 0 13zM181 569q46 10 102 10q35 0 73 -4l-19 2l60 -5q3 -1 6 -1q27 -2 41 -14q3 -2 3 -5q0 -2 -4 -5 q-26 -16 -76 -17q-20 -1 -31 -2l-99 -10h-7q-27 0 -54 7q-11 3 -11 17q0 4 1 10q4 15 15 17zM182 292q34 26 92 39q27 7 29 7l62 20q14 3 25 3q16 0 28 -5q6 -2 6 -6q0 -9 -37 -26q-22 -11 -23 -11q-17 -8 -78 -24q-16 -4 -30 -9q-6 -2 -34 -20q-13 -9 -27 -9l-7 1 q-15 2 -14 23q0 12 8 17zM357 181q-6 5 -6 -4l4 -37q-1 -6 -4 -8l-34 -28l-12 -6q-53 -23 -74 -26q-9 -1 -18 -1l-80 -5q-37 2 -55 29q-23 34 -23 79q0 30 11 66q4 14 12 36l21 80l29 96q3 11 5 24q5 35 5 61q0 23 -4 39q-1 6 -3 11q-7 24 -25 29h-3q-5 0 -10 -2 q-9 -4 0 -24q6 -12 6 -19q1 -12 1 -23q0 -27 -4 -44q-2 -9 -18 -65q-2 -5 -3 -9q-32 -105 -35 -116l-2 -10q-23 -94 -23 -95q-5 -25 -5 -56q0 -48 24 -89q20 -33 59 -46q39 -12 84 -12q20 0 42 3q54 7 110 40q40 22 49 32q10 11 13 26q1 7 1 13q0 33 -35 61z" />
<glyph unicode="&#xcb;" horiz-adv-x="499" d="M323 779q6 21 32 22h3q12 0 19 -8q8 -9 8 -19q0 -11 -10 -23q-8 -11 -19 -13q-4 -1 -7 -1q-15 0 -24 19q-7 13 -2 23zM155 790q11 13 27 13q8 0 18 -4q9 -5 16 -14q4 -5 4 -10q0 -10 -14 -20q-10 -7 -20 -6q-21 1 -32 21q-6 11 1 20zM201 633q52 11 115 11q38 0 80 -4 l-21 2l67 -6q3 -1 6 -1q30 -2 46 -15q3 -3 3 -5q0 -3 -4 -6q-29 -18 -85 -19q-22 -1 -34 -3l-110 -11h-7q-31 0 -61 8q-13 4 -13 18q0 5 2 12q4 17 16 19zM202 325q38 29 103 43q30 8 32 8l69 22q16 4 29 4q17 0 30 -6q6 -3 6 -7q0 -10 -40 -29q-25 -12 -26 -12 q-19 -9 -87 -26q-18 -5 -33 -10q-7 -3 -38 -23q-15 -10 -30 -10l-8 1q-17 3 -15 26q0 13 8 19zM397 201q-7 6 -7 -4l5 -41q-1 -7 -5 -9l-37 -31l-14 -7q-59 -26 -82 -29q-10 -1 -20 -1l-89 -6q-41 3 -61 33q-26 38 -26 88q0 34 12 73q5 16 14 40l23 89l32 107q4 12 6 27 q5 38 5 67q0 26 -4 44q-1 6 -3 12q-8 27 -28 32h-4q-6 0 -11 -2q-10 -4 0 -27q7 -13 7 -21q1 -14 1 -26q0 -29 -4 -48q-2 -10 -20 -73l-4 -10l-39 -129l-2 -11q-25 -104 -25 -105q-6 -28 -6 -62q0 -54 27 -100q22 -37 65 -51q44 -13 93 -13q24 0 48 3q60 8 122 45 q45 24 55 35q11 12 14 29q1 7 1 15q0 37 -39 67z" />
<glyph unicode="&#xcc;" horiz-adv-x="231" d="M64 630q11 34 33 39h2q13 0 18 -29q4 -24 5 -102q1 -10 1 -19l3 -179q2 -28 6 -57l15 -170q2 -12 4 -21q2 -10 14 -34q6 -13 7 -40q0 -8 -6 -8q-7 0 -23 12q-11 7 -17 15q-14 18 -22 61q-2 7 -3 13q-14 62 -18 104q-3 25 -9 162v5q-10 162 -10 168l-4 59q1 11 4 21z M168 729q3 -5 3 -11q0 -4 -2 -9q-1 -3 -4 -3q-1 0 -2 1q-29 13 -63 44q-3 3 -36 20q-20 9 -26 20q-3 5 -3 10q0 7 5 13q3 4 6 4q2 0 3 -1q36 -17 69 -45l39 -29q7 -7 11 -14z" />
<glyph unicode="&#xcd;" horiz-adv-x="228" d="M49 630q9 34 33 39h2q13 0 18 -29q4 -24 5 -102q1 -10 1 -19l2 -171q2 -32 7 -65l15 -174q1 -9 3 -17q3 -10 15 -34q6 -13 7 -40q0 -8 -6 -8q-7 0 -22 11q-12 8 -18 16q-14 18 -22 58q-1 9 -3 16q-13 52 -18 104q-2 16 -9 153q-1 7 -1 14l-10 168l-3 58q1 11 4 22z M31 725h-3q-11 0 -17 7q-1 2 -1 3t1 3q26 24 65 43q5 2 30 25q17 16 30 18h2q12 0 19 -11q1 -3 1 -5t-2 -4q-31 -29 -68 -48l-43 -27q-8 -3 -14 -4z" />
<glyph unicode="&#xce;" horiz-adv-x="256" d="M68 642q9 34 32 39h2q13 0 18 -29q4 -24 5 -102q1 -10 1 -19l3 -179q2 -28 6 -57l15 -170q2 -12 4 -21q2 -11 14 -34q6 -13 7 -39q0 -9 -6 -9q-7 0 -23 12q-11 7 -17 15q-13 17 -21 58q-2 9 -4 16q-14 62 -18 104q-2 18 -8 144q0 12 -1 23q-10 161 -10 169l-3 56 q1 11 4 23zM28 734q8 21 40 55q5 6 9 10q10 13 20 13q7 0 14 -7q40 -40 58 -83q1 -2 1 -3q0 -6 -9 -9q-3 -2 -5.5 -2t-4.5 2q-16 9 -38 38q-8 10 -15 17l-34 -42q-9 -8 -21 -13q-2 -1 -4 -1q-6 0 -11 12q-1 3 -1 6.5t1 6.5z" />
<glyph unicode="&#xcf;" horiz-adv-x="256" d="M58 624q11 35 33 38h3q12 0 17 -28q4 -25 5 -102q1 -10 1 -19l3 -179q2 -29 6 -58l15 -173q1 -9 3 -17q2 -9 15 -35q6 -13 7 -39q0 -9 -6 -9q-7 0 -22 11q-11 8 -18 17q-14 18 -22 58q-1 9 -3 15q-14 64 -18 105q-3 25 -9 162v5q-10 157 -10 168l-4 56q1 12 4 24z M166 750q7 19 30 20q12 0 19 -8t7 -17q0 -10 -9 -21q-7 -9 -16 -11q-4 -1 -7 -1q-14 0 -22 17q-6 11 -2 21zM15 759q10 12 24 12q8 0 18 -4q9 -4 14 -11q3 -4 3 -9q0 -9 -12 -18q-8 -7 -17 -7h-2q-19 1 -29 19q-2 5 -2 9q0 5 3 9z" />
<glyph unicode="&#xd0;" horiz-adv-x="720" d="M27 421q7 1 25 1t48 -1h102h8l48 6q13 -2 13 -19q0 -28 -30 -28l-31 -1q-36 -5 -76 -5t-84 5l-46 2q-17 5 -27 23q-2 4 -2 6q0 9 17 10zM218 70q-1 13 -1 27q0 71 17 184q10 69 14 120q4 55 4 105q0 72 -8 134l-7 64q2 20 11 29q9 8 22 8q10 0 22 -4q25 -8 40 -9 q73 -7 204 -67q31 -14 52 -25l78 -43q46 -32 63 -82q11 -33 11 -68q0 -30 -8 -61l-26 -103q-18 -87 -117 -200q-7 -7 -12 -14q-42 -45 -108 -51q-9 -1 -16 -1q-18 0 -29 7q-36 18 -59 129q-7 32 -7 43q0 4 1 4h1q2 -1 6 -13q25 -69 34 -82q16 -23 42 -31q13 -4 26 -4 q49 0 97 58q67 81 90 167q5 19 10 42q18 98 18 113v11q0 56 -38 82q-74 51 -173 87q-9 4 -18 6l-132 42q-12 2 -21 4q-1 -1 -1 -11q0 -29 6 -132v-16q-5 -42 -7 -189q0 -54 -5 -101l-10 -106q-6 -34 -21 -66q-4 -9 -15 -9q-6 0 -14 3q-15 6 -16 19z" />
<glyph unicode="&#xd1;" horiz-adv-x="817" d="M242 684q22 51 60 80q17 13 37 13q11 0 23 -4q21 -7 51 -36q11 -10 20 -17l28 -23q2 -3 5 -4q27 -9 48 -9q8 0 14 1q17 4 47 26q4 3 7 5l62 55q20 17 24 17q1 0 1 -1q-8 -22 -42 -64q-15 -19 -39 -38l-43 -32q-11 -7 -25 -9q-6 -1 -12 -1q-24 0 -59 14q-9 4 -33 27 l-34 36l-7 5q-23 13 -40 13q-4 0 -7 -1q-14 -1 -34 -21q-3 -4 -19 -34q-8 -15 -19 -22q-9 -7 -14 10q-2 8 0 14zM10 35q4 10 25 19q12 6 18 13q20 22 29 50q20 64 35 146q3 16 16 137q2 20 6 40l9 102q6 26 19 51q6 10 16 10q8 0 20 -8q9 -5 13 -13q24 -37 39 -89l22 -67 l17 -54q5 -11 12 -25l52 -100q5 -10 11 -18q30 -40 59 -50q15 -5 63 -12q9 -1 18 -1q59 0 114 61q8 9 17 21q43 53 67 141q16 61 19 69q10 34 18 123q3 24 6 44q4 19 27 19h2q12 0 17 -9q11 -15 11 -43q0 -9 -1 -18q-3 -15 -3 -24q-1 -43 -14 -88q-31 -118 -47 -159 q-5 -9 -9 -19q-30 -65 -76 -110q-42 -44 -83 -58l-9 -3q-23 -7 -51.5 -7t-62.5 7q-62 12 -103 42q-23 19 -45 63q-4 9 -8 16q-28 50 -50 110l-42 132l-21 -182l-12 -84q-7 -44 -17 -69q-26 -65 -28 -68q-7 -14 -19 -28q-32 -40 -64 -45q-3 -1 -6 -1h-2q-17 0 -24 20 q-1 4 -1 8t1 8z" />
<glyph unicode="&#xd2;" horiz-adv-x="718" d="M616 307q-15 -61 -36 -94q-34 -52 -83 -90q-37 -29 -101 -50q-42 -15 -76 -15q-9 0 -17 1q-50 6 -90 35q-38 30 -71 86l-4 7v1q-29 49 -40 104q-4 24 -4 52t4 60q10 72 32 118q26 53 65 83q11 8 52 19q26 6 31 19q5 9 -3 25q-4 7 -9 9q-4 1 -10 1q-14 0 -39 -8 q-43 -14 -54 -25q-3 -2 -7 -8q-63 -79 -69 -90q-25 -41 -36 -90q-11 -54 -11 -100q0 -53 14 -98q6 -21 15 -42q43 -105 96 -147q29 -23 62 -37q46 -19 95 -19q52 0 106 22q15 8 33 15q101 49 150 127q17 26 30 57q24 57 24 145v20q-1 51 -30 109q-2 2 -3 5q-26 50 -61 75 q-3 2 -7 5q-20 13 -41 13q-12 0 -24 -4q-16 -6 -13 -26q0 -6 4 -11q6 -8 27 -7q12 0 19 -5q34 -26 52 -62q21 -37 28 -89q4 -26 4 -50.5t-4 -45.5zM450 751q4 -6 4 -12q0 -4 -3 -9q-1 -3 -4 -3q-1 0 -2 1q-34 17 -63 45q-3 3 -36 19q-20 10 -26 21q-3 5 -3 10q0 6 5 13 q3 4 6 4q2 0 3 -1q37 -18 70 -46l39 -30q7 -6 10 -12z" />
<glyph unicode="&#xd3;" horiz-adv-x="753" d="M615 313q-15 -60 -36 -93q-35 -54 -83 -90q-40 -31 -100 -50q-47 -16 -81 -16q-7 0 -13 1q-51 6 -90 36q-38 30 -71 86q-4 7 -4 8q-29 49 -40 104q-5 24 -5 51.5t5 59.5q10 72 33 119q25 52 64 83q11 8 52 18q26 7 31 20q5 9 -3 24q-4 7 -9 9q-7 3 -15 3q-14 0 -34 -10 q-39 -11 -54 -24q-5 -5 -7 -8q-63 -82 -69 -91q-26 -42 -35 -89q-12 -54 -12 -102q0 -52 14 -96q6 -22 16 -43q44 -104 96 -146q24 -21 62 -37q46 -20 94 -20q52 0 106 23q21 8 33 15q102 49 151 127q16 25 29 56q25 57 25 146v20q-2 52 -34 114q-26 50 -61 74q-3 2 -7 5 q-20 15 -41 15l-23 -5q-15 -7 -15 -21q0 -3 1 -7q1 -5 4 -9q6 -8 28 -7q12 0 19 -5q32 -24 52 -62q20 -37 27 -89q5 -29 5 -53t-5 -44zM357 732h-3q-11 0 -16 7q-2 1 -2 3t2 3q23 23 64 43q4 2 31 26q17 15 29 17h2q12 0 19 -11q1 -2 1 -4q0 -3 -2 -5q-30 -28 -67 -48 l-43 -26q-8 -4 -15 -5z" />
<glyph unicode="&#xd4;" horiz-adv-x="732" d="M609 304q-13 -59 -36 -94q-33 -52 -82 -89q-39 -30 -101 -51q-47 -15 -79 -15q-7 0 -14 1q-53 6 -90 36q-38 29 -71 86q-1 1 -5 7q-30 51 -39 105q-4 24 -4 52t4 59q11 76 32 119q26 53 65 82q11 8 52 19q26 6 31 19q5 9 -3 25q-4 7 -9 9q-4 2 -11 2q-14 0 -39 -9 q-43 -14 -54 -25l-7 -7q-52 -67 -69 -91q-24 -38 -35 -89q-11 -54 -11 -101q0 -53 14 -98q6 -20 15 -42q43 -105 96 -147q28 -22 62 -36q46 -19 94 -19q52 0 106 22q15 5 34 15q102 50 150 127q14 22 30 56q24 57 24 146v20q-2 53 -32 109l-2 4q-27 51 -62 77q-3 1 -5 3 q-20 13 -41 13q-12 0 -24 -4q-14 -5 -14 -20v-6q1 -6 5 -11q6 -7 27 -7q12 0 19 -5q33 -25 52 -61q21 -40 28 -89q4 -29 4 -52q0 -26 -5 -45zM301 737q7 20 38 53q7 7 11 12q11 12 21 12q7 0 13 -6q40 -40 58 -83q1 -2 1 -4q0 -5 -9 -8q-3 -1 -5.5 -1t-4.5 1q-16 10 -39 39 q-7 9 -13 16l-36 -42q-8 -8 -20 -13q-2 -1 -4 -1q-6 0 -11 12q-1 3 -1 6.5t1 6.5z" />
<glyph unicode="&#xd5;" horiz-adv-x="695" d="M591 310q-15 -60 -36 -93q-35 -55 -83 -90q-39 -30 -100 -51q-47 -15 -80 -15q-7 0 -14 1q-51 6 -90 36q-38 30 -71 86q-3 6 -4 7q-30 52 -40 105q-5 24 -5 52t5 59q10 72 33 119q25 52 64 82q11 8 53 19q25 6 30 19q4 9 -3 24q-3 8 -9 10q-4 2 -11 2q-14 0 -38 -9 q-43 -14 -54 -25q-4 -3 -7 -7q-63 -82 -69 -91q-26 -41 -35 -89q-12 -54 -12 -102q0 -52 14 -97q7 -23 16 -42q43 -105 96 -147q25 -21 62 -36q46 -20 94 -20q52 0 106 23q21 8 33 15q102 49 151 127q16 25 29 56q25 56 25 146v20q-2 50 -31 108q-2 2 -3 5q-25 49 -59 74 q-5 3 -9 6q-20 13 -41 13l-23 -4q-16 -6 -14 -25q1 -6 4 -11q6 -8 28 -8q12 0 19 -5q33 -25 52 -61q20 -37 27 -89q5 -30 5 -54t-5 -43zM184 732q19 44 52 69q14 11 32 11q10 0 20 -3q17 -6 44 -31q9 -8 17 -14l22 -20q3 -2 6 -3q23 -9 42 -9q6 0 12 1q15 3 42 23q3 2 5 4 l53 47q17 15 21 15q1 0 1 -1q-7 -19 -36 -55q-19 -22 -34 -33l-37 -27q-10 -6 -22 -9q-4 -1 -9 -1q-21 0 -52 13q-8 3 -29 23l-29 31l-6 4q-21 12 -38 12h-3q-14 -2 -29 -19q-3 -4 -16 -30q-7 -13 -17 -19q-8 -5 -12 9q-1 3 -1 6.5t1 5.5z" />
<glyph unicode="&#xd6;" horiz-adv-x="845" d="M631 310q-15 -60 -36 -93q-35 -55 -83 -90q-39 -30 -100 -51q-47 -15 -80 -15q-7 0 -14 1q-51 6 -90 36q-38 30 -71 86q-3 6 -4 7q-30 52 -40 105q-5 24 -5 52t5 59q10 72 33 119q25 52 64 82q11 8 52 19q26 6 31 19q4 9 -3 24q-3 8 -9 10q-4 2 -11 2q-14 0 -38 -9 q-43 -14 -54 -25q-4 -3 -7 -7q-63 -82 -69 -91q-26 -41 -35 -89q-12 -54 -12 -102q0 -52 14 -97q7 -23 16 -42q42 -104 95 -147q27 -21 63 -36q46 -20 94 -20q52 0 106 23q21 8 33 15q102 49 151 127q16 25 29 56q25 54 25 137q0 14 -1 29q-1 50 -30 107q-1 3 -3 6 q-25 49 -59 74q-5 3 -9 6q-20 13 -41 13l-23 -4q-16 -6 -14 -25q1 -6 4 -11q6 -8 28 -8q12 0 18 -5q33 -24 53 -61t27 -89q5 -27 5 -51t-5 -46zM533 764q7 25 40 25h3q27 0 41 -18q12 -15 12 -33q0 -11 -5 -24q-10 -24 -31 -26h-5q-31 0 -48 31q-9 15 -9 30q0 8 2 15z M159 782q13 20 38 20q7 0 15 -1q22 -4 34 -21q6 -9 6 -18q0 -14 -13 -29q-14 -17 -31 -17h-2q-29 1 -45 28q-7 11 -7 22q0 8 5 16z" />
<glyph unicode="&#xd7;" horiz-adv-x="385" d="M278 543l62 87q7 8 10 8t-1 -13q-7 -25 -41 -102q-33 -79 -157 -239q-41 -54 -80 -99q-8 -10 -23 7q-13 14 -7 23q54 94 174 245zM14 553q-6 9 -6 22q0 11 5 25q5 11 10 11q3 0 6 -3q151 -161 210 -245q47 -68 88 -147q46 -92 46 -108q0 -3 -2 -3q-1 0 -2 1q-14 7 -66 83 q-46 64 -156 191q-81 93 -133 173z" />
<glyph unicode="&#xd8;" horiz-adv-x="722" d="M110 133q0 -1 12 -16l11 -11q-13 -25 -22 -28q-13 -3 -20 9q-1 2 -1 5q0 12 20 41zM224 247l77 121l108 163l111 165q7 10 19 22q26 28 26 50q0 8 -8 11q-4 1 -8 1q-14 0 -29 -12q-19 -14 -26 -26l-43 -68l-108 -163l-91 -143q-37 -53 -69 -109l-41 -71l21 -30zM665 355 q-17 -70 -41 -106q-39 -62 -94 -103q-40 -31 -113 -56q-49 -17 -87 -17q-11 0 -20 1q-59 7 -101 41q-43 31 -82 96q-1 5 -4 9q-33 56 -46 118q-5 28 -5 59.5t5 67.5q13 83 38 134q28 62 73 94q13 10 59 22q29 7 36 22q3 14 -7 30q-4 6 -8 8t-11 2q-16 0 -45 -10 q-49 -16 -61 -28q-6 -6 -8 -9l-78 -102q-30 -47 -40 -101q-13 -63 -13 -117q0 -59 15 -109q6 -20 18 -48q49 -119 109 -167q31 -26 71 -42q52 -21 106 -21q59 0 121 25l38 17q114 55 171 144q19 33 32 65q29 64 29 167v20q-2 59 -39 129q-29 57 -69 85q-3 3 -8 6 q-23 15 -46 15q-13 0 -27 -5q-16 -6 -16 -22q0 -3 1 -7q1 -7 5 -13q6 -8 26 -8h5q14 0 21 -5q37 -28 59 -71q22 -41 32 -101q4 -33 4 -59q0 -29 -5 -50z" />
<glyph unicode="&#xd9;" horiz-adv-x="750" d="M693 546l18 -73q2 -17 2 -36q-2 -125 -27 -183q-17 -40 -33 -64q-54 -87 -167 -141q-20 -10 -37 -17q-60 -25 -118 -25q-54 0 -105 22q-41 18 -69 41q-59 47 -107 164q-10 23 -17 46q-15 47 -15 106q0 53 12 115q11 53 40 99q5 7 28 5q24 -3 24 -18q0 -6 -4 -14 q-25 -55 -36 -132q-5 -35 -5 -66t5 -58q9 -54 44 -116q4 -6 5 -9q38 -64 79 -95q41 -34 100 -40q8 -1 17 -1q37 0 87 17q68 22 112 56q55 42 93 100q10 17 28 99q3 9 5 17q4 22 7 96v91v1l6 89l27 -70q0 -4 1 -6zM415 718q4 -7 4 -13t-3 -11q-1 -3 -4 -3q-1 0 -3 1 q-32 14 -70 49q-4 4 -40 22q-22 11 -29 22q-2 6 -2 11q0 8 5 15q3 4 6 4q2 0 4 -1q41 -19 77 -50l44 -33q8 -7 11 -13z" />
<glyph unicode="&#xda;" horiz-adv-x="704" d="M690 550l18 -74q2 -17 2 -35q-2 -126 -27 -184q-13 -29 -33 -63q-55 -87 -167 -142q-14 -5 -38 -16q-61 -25 -119 -25q-53 0 -104 21q-38 17 -68 41q-59 47 -107 164q-10 23 -17 47q-16 49 -16 107q0 53 13 113q12 56 39 100q5 8 30 5q23 -4 23 -19q0 -6 -4 -14 q-24 -46 -36 -131q-5 -35 -5 -66.5t5 -58.5q10 -59 43 -115l6 -9q38 -65 79 -96q39 -31 100 -40h12q42 0 92 17q72 24 112 55q55 44 91 101q12 17 30 97q2 10 5 18q4 22 6 96v92l7 89q24 -64 27 -70q0 -3 1 -5zM298 689h-3q-12 0 -19 7q-2 2 -2 4t2 3q29 27 72 48q5 2 34 29 q18 17 33 19h2q13 0 21 -12q2 -3 2 -5q0 -3 -3 -5q-41 -37 -75 -54l-48 -30q-9 -3 -16 -4z" />
<glyph unicode="&#xdb;" horiz-adv-x="719" d="M276 708q9 23 46 61q5 6 10 11q11 14 21 14l15 -7q45 -45 66 -93q3 -9 -10 -14q-7 -2 -11 0q-18 11 -44 44q-7 10 -14 18l-40 -48q-9 -9 -21 -14q-13 -5 -18 13q-2 8 0 15zM686 551q19 -70 20 -90v-20q-2 -126 -26 -184q-14 -31 -33 -63q-55 -86 -168 -141 q-13 -7 -36 -16q-61 -26 -119 -26q-53 0 -104 22q-40 17 -70 40q-59 48 -106 164q-10 21 -17 47q-15 50 -15 108q0 53 12 113q10 53 39 99q6 8 30 5q23 -4 23 -18q0 -7 -4 -15q-24 -50 -36 -131q-5 -35 -5 -66t5 -59q12 -61 44 -115l5 -8q34 -60 79 -96q43 -33 100 -40 q7 -1 14 -1q37 0 90 17q66 22 112 55q53 40 92 101q12 20 33 115q5 17 7 96v92l7 89q25 -67 25 -68z" />
<glyph unicode="&#xdc;" horiz-adv-x="768" d="M718 580q19 -73 20 -94v-21q-2 -130 -27 -191q-22 -46 -35 -66q-56 -88 -174 -147q-20 -8 -38 -17q-63 -25 -122 -25q-57 0 -110 23q-42 17 -72 41q-62 49 -111 170q-11 27 -18 49q-16 51 -16 112q0 55 13 118q13 57 41 103q5 9 29 5q25 -2 25 -18q0 -6 -4 -15 q-25 -54 -37 -137q-5 -37 -5 -69t5 -61q11 -59 46 -120l5 -8v-1q37 -63 82 -99q43 -34 104 -41q8 -1 17 -1q38 0 91 17q71 24 117 58q57 44 96 104q11 17 30 103q3 9 5 17q4 18 7 100v96l7 92q26 -69 26 -70zM469 782q16 26 49 26h5q24 0 35 -19q6 -11 6 -21q0 -19 -18 -38 q-17 -17 -38 -19h-4q-23 0 -36 29q-5 12 -5 22q0 11 6 20zM194 789q13 17 33 17q8 0 18 -3q21 -4 28 -21q4 -8 4 -16q0 -18 -18 -34q-13 -14 -28 -14h-4q-27 3 -36 33q-3 10 -3 18q0 11 6 20z" />
<glyph unicode="&#xdd;" horiz-adv-x="613" d="M246 704q-14 -1 -21 8q-3 3 0 6q27 25 68 45q4 2 31 27q18 16 32 18h3q11 0 18 -11q3 -6 -1 -10q-31 -29 -70 -50l-45 -27q-8 -5 -15 -6zM406 363l42 121l33 105l5 10l28 74q9 21 27 38q5 5 10 5q9 0 19 -12q7 -7 8 -15v-6q0 -19 -14 -45q-8 -14 -11 -23 q-49 -130 -51 -138l-48 -137l-38 -102q-39 -113 -51 -167q-1 -2 -1 -6q0 -12 5 -44q2 -13 -2 -13h-1q-2 0 -4 2q-26 19 -33 66l-3 24q-1 4 -1 9q0 20 11 53q2 6 3 11q5 19 38 109zM166 455q-66 40 -109 81l-34 30q-13 14 -14 33q-2 17 19 21q5 1 10 1q7 0 13 -3 q28 -16 66 -57q28 -33 52 -48q45 -28 120 -50l5 -1q44 -14 83 -14q10 0 19 1q11 0 55 28q8 4 6 2q0 -1 -3 -5q-34 -45 -49 -52q-2 -2 -25 -11q-11 -5 -30 -5q-13 0 -29 2q-8 2 -15 3q-31 3 -73 15q-43 14 -67 29z" />
<glyph unicode="&#xde;" horiz-adv-x="409" d="M82 538q57 6 100 6q40 0 67 -5q25 -6 51 -15q58 -20 64 -85q1 -10 1 -18q0 -58 -45 -81q-77 -38 -177 -38q-18 0 -51 1q-14 0 -9 23q3 21 16 21l92 -4q34 1 61 11q65 24 65 76q0 41 -62 60q-19 7 -53 7q-18 0 -41 -2h-17q-32 0 -55 6q-14 3 -15 23q-1 13 8 14zM34 54 q56 6 125 6t152 -6q39 -2 53 -3q7 0 7 -2q0 -1 -12 -4q-87 -19 -251 -27q-39 -1 -67 -1q-13 0 -15 20q-2 16 8 17zM10 749q52 5 116 5q77 0 171 -7q41 -4 64 -5q22 -1 22 -4t-33 -7q-137 -18 -313 -19h-30q-10 0 -10 12q0 3 1 8q2 16 12 17zM7 681q0 12 20 12h5q11 0 12 -9 l26 -574q0 -21 2 -42q0 -10 -13 -10q-4 0 -8 1q-16 2 -17 13q-10 150 -27 609z" />
<glyph unicode="&#xdf;" horiz-adv-x="529" d="M221 551l95 39q24 12 47 29l54 40q21 20 21 39q0 9 -4 17q-21 39 -77 40l-69 1q-34 4 -83.5 4t-112.5 -4h-4q-16 -1 -16 -19q0 -10 6 -26q20 -62 21 -72q1 -6 1 -10q0 -36 -10 -195l-2 -35l1 -188q-1 -39 -9 -77q-4 -25 -28 -44q-18 -14 -19 2q-2 33 -2 73q0 93 10 227 q9 106 9 188q0 22 -1 43q0 29 -22 85q-14 36 -14 64v7q3 22 38 23h14l186 11q77 0 155 -15q71 -16 82 -83q1 -9 1 -17q0 -51 -52 -93q-47 -39 -67 -50l-15 -10l-97 -42q-23 -12 -23 -20q0 -6 10 -10l69 -32q23 -10 53 -19q77 -23 98 -165q2 -14 2 -28q0 -73 -53 -128 q-61 -62 -140 -74q-17 -3 -37 -4q-51 -2 -52 -2q-39 5 -50 62q-1 2 -1 5q0 25 41 82q3 5 2 -2q-9 -49 -8 -56q0 -15 7 -22q17 -19 49 -19q10 0 21 2q3 2 15 4q62 10 84 25q13 9 25 23q53 57 53 108q0 10 -1 20q-15 100 -87 119l-101 32q-9 2 -20 4q-18 4 -30 47q-5 18 -5 35 v5q1 32 38 53z" />
<glyph unicode="&#xe0;" horiz-adv-x="398" d="M57 222l51 85q16 23 39 42q18 18 55 18q6 0 14 -1h6q8 -1 -9 -9q-15 -8 -18 -11q-47 -47 -52 -53q-7 -9 -14 -20q-51 -78 -65 -117q-6 -15 -10 -31q-6 -19 -6 -34q0 -23 16 -34q6 -4 14 -4q19 0 47 24q17 15 35 53q7 13 14 23l38 65q8 12 20 22q16 13 32 13q12 0 24 -7 q19 -11 33 -46q5 -11 7 -16q5 -10 20 -61q7 -22 18 -39q9 -11 38 -16q4 -1 7 -1q2 0 25 7q6 2 6 -3q-3 -15 -34 -17q-26 -4 -40 -4q-9 0 -13 2q-9 3 -16 8q-20 16 -35 58q-7 18 -13 29l-15 45q-6 7 -16 10h-3q-14 0 -25 -23q-7 -14 -10 -19l-30 -56q-3 -2 -5 -5 q-37 -50 -39 -52q-14 -15 -33 -25q-27 -14 -46 -14q-15 0 -26 8q-30 22 -34 78v7.5v2.5q0 19 16 49q4 11 7 17q17 41 25 52zM298 469q4 -6 4 -13q0 -5 -3 -10q-1 -3 -4 -3q-1 0 -3 1q-32 14 -70 49q-4 3 -41 22q-22 11 -29 23q-2 5 -2 10q0 8 5 15q3 5 7 5q2 0 3 -1 q41 -19 78 -51l44 -33q8 -7 11 -14z" />
<glyph unicode="&#xe1;" horiz-adv-x="385" d="M47 198l45 76q15 21 35 38q17 15 50 15h12h5q7 -1 -8 -8q-13 -7 -16 -10q-42 -42 -46 -47q-7 -8 -13 -18q-45 -70 -58 -105q-5 -13 -9 -27q-5 -17 -5 -30q0 -22 14 -31q6 -4 13 -4q17 0 42 22q15 13 31 47q6 12 12 21l34 58q7 10 18 19q14 12 29 12q10 0 21 -6 q17 -10 30 -41l6 -15q4 -9 18 -54q6 -20 16 -35q8 -10 34 -14q3 -1 6 -1q2 0 22 6q6 2 6 -3q-3 -13 -31 -15q-24 -3 -36 -3q-8 0 -11 1q-8 3 -14 8q-18 14 -32 51q-6 16 -11 26l-14 40q-5 7 -14 9h-3q-12 0 -22 -20q-6 -13 -9 -17l-27 -50q-2 -2 -4 -5q-33 -44 -35 -46 q-12 -13 -29 -22q-24 -13 -42 -13q-13 0 -23 7q-26 20 -30 70v7v2q0 17 14 44q4 9 7 15q15 36 22 46zM144 400h-3q-11 0 -16 7q-1 1 -1 3t1 3q22 22 64 43q6 2 31 25q17 16 29 18h2q12 0 19 -11q1 -3 1 -5t-2 -4q-30 -28 -67 -48l-43 -26q-8 -4 -15 -5z" />
<glyph unicode="&#xe2;" horiz-adv-x="392" d="M134 439q8 21 41 55q5 6 9 10q10 12 19 12q7 0 14 -6q40 -40 59 -83q3 -8 -9 -13q-6 -2 -10 0q-16 10 -39 40q-7 9 -13 16l-35 -42q-8 -9 -20 -14q-11 -4 -16 12q-2 7 0 13zM53 200l45 76q15 21 35 38q17 15 50 15h12h5q7 -1 -8 -8q-13 -7 -16 -10q-42 -42 -46 -47 q-7 -8 -13 -18q-45 -70 -58 -105q-5 -13 -9 -27q-5 -17 -5 -30q0 -22 14 -31q6 -4 13 -4q17 0 42 22q15 13 31 47q6 12 12 21l34 58q7 10 18 19q14 12 29 12q10 0 21 -6q17 -10 30 -41l6 -15q4 -9 18 -54q6 -20 16 -35q8 -10 34 -14q3 -1 6 -1q2 0 22 6q6 2 6 -3 q-3 -13 -31 -15q-24 -3 -36 -3q-8 0 -11 1q-8 3 -14 8q-18 14 -32 51q-6 16 -11 26l-14 40q-5 7 -14 9h-3q-12 0 -22 -20q-6 -13 -9 -17l-27 -50q-2 -2 -4 -5q-33 -44 -35 -46q-12 -13 -29 -22q-24 -13 -42 -13q-13 0 -23 7q-26 20 -30 70v7v2q0 17 14 44q4 9 7 15 q15 36 22 46z" />
<glyph unicode="&#xe3;" horiz-adv-x="414" d="M16 438q20 44 49 65q1 2 3 3q15 12 33 12q9 0 19 -4q18 -6 44 -30q9 -9 17 -15l21 -19q4 -3 8 -4q24 -9 42 -9q6 0 11 1q16 3 41 23q3 3 6 5q7 5 44 39q5 4 9 8l21 17q2 0 1 -3q-6 -19 -32 -50q-2 -3 -4 -5q-14 -20 -34 -34q-34 -26 -38 -28q-10 -5 -21 -7q-5 -1 -11 -1 q-18 0 -43 10q-4 2 -7 3q-8 3 -29 23l-27 29q-4 3 -8 5q-19 12 -36 12h-5q-13 -1 -29 -19q-4 -5 -16 -30q-6 -13 -16 -19q-9 -5 -13 10q-2 7 0 12zM53 210l45 76q15 21 35 38q17 15 50 15h12h5q7 -1 -8 -8q-13 -7 -16 -10q-42 -42 -46 -47q-7 -8 -13 -18q-45 -70 -58 -105 q-5 -13 -9 -27q-5 -17 -5 -30q0 -22 14 -31q6 -4 13 -4q17 0 42 22q15 13 31 47q6 12 12 21l34 58q7 10 18 19q14 12 29 12q10 0 21 -6q17 -10 30 -41l6 -15q4 -9 18 -54q6 -20 16 -35q8 -10 34 -14q3 -1 6 -1q2 0 22 6q6 2 6 -3q-3 -13 -31 -15q-24 -3 -36 -3q-8 0 -11 1 q-8 3 -14 8q-18 14 -32 51q-6 16 -11 26l-14 40q-5 7 -14 9h-3q-12 0 -22 -20q-6 -13 -9 -17l-27 -50q-2 -2 -4 -5q-33 -44 -35 -46q-12 -13 -29 -22q-24 -13 -42 -13q-13 0 -23 7q-26 20 -30 70v7v2q0 17 14 44q4 9 7 15q15 36 22 46z" />
<glyph unicode="&#xe4;" horiz-adv-x="403" d="M49 202l45 76q15 21 35 38q17 15 50 15h12h5q7 -1 -8 -8q-13 -7 -16 -10q-42 -42 -46 -47q-7 -8 -13 -18q-45 -70 -58 -105q-5 -13 -9 -27q-5 -17 -5 -30q0 -22 14 -31q6 -4 13 -4q17 0 42 22q15 13 31 47q6 12 12 21l34 58q7 10 18 19q14 12 29 12q10 0 21 -6 q17 -10 30 -41l6 -15q4 -9 18 -54q6 -20 16 -35q8 -10 34 -14q3 -1 6 -1q2 0 22 6q6 2 6 -3q-3 -13 -31 -15q-24 -3 -36 -3q-8 0 -11 1q-8 3 -14 8q-18 14 -32 51q-6 16 -11 26l-14 40q-5 7 -14 9h-3q-12 0 -22 -20q-6 -13 -9 -17l-27 -50q-2 -2 -4 -5q-33 -44 -35 -46 q-12 -13 -29 -22q-24 -13 -42 -13q-13 0 -23 7q-26 20 -30 70v7v2q0 17 14 44q4 9 7 15q15 36 22 46zM250 441q7 19 29 20h3q11 0 17 -7q7 -8 7 -17q0 -10 -8 -21q-7 -10 -17 -12q-3 -1 -6 -1q-14 0 -23 18q-6 11 -2 20zM100 451q10 12 23 12q7 0 16 -4q10 -4 16 -12 q3 -4 3 -9q0 -9 -13 -18q-8 -6 -16 -6h-2q-19 1 -28 19q-2 5 -2 9q0 5 3 9z" />
<glyph unicode="&#xe5;" horiz-adv-x="408" d="M53 202l45 76q15 21 35 38q17 15 50 15h12h5q7 -1 -8 -8q-13 -7 -16 -10q-42 -42 -46 -47q-7 -8 -13 -18q-45 -70 -58 -105q-5 -13 -9 -27q-5 -17 -5 -30q0 -22 14 -31q6 -4 13 -4q17 0 42 22q15 13 31 47q6 12 12 21l34 58q7 10 18 19q14 12 29 12q10 0 21 -6 q17 -10 30 -41l6 -15q4 -9 18 -54q6 -20 16 -35q8 -10 34 -14q3 -1 6 -1q2 0 22 6q6 2 6 -3q-3 -13 -31 -15q-24 -3 -36 -3q-8 0 -11 1q-8 3 -14 8q-18 14 -32 51q-6 16 -11 26l-14 40q-5 7 -14 9h-3q-12 0 -22 -20q-6 -13 -9 -17l-27 -50q-2 -2 -4 -5q-33 -44 -35 -46 q-12 -13 -29 -22q-24 -13 -42 -13q-13 0 -23 7q-26 20 -30 70v7v2q0 17 14 44q4 9 7 15q15 36 22 46zM132 520q30 30 36 31h19h3q57 0 76 -35q4 -8 4 -14q0 -61 -31 -78q-21 -11 -64 -11q-30 0 -52 30l3 71l9 6h-3zM156 496q21 22 39 22q43 0 43 -35q-9 -39 -50 -43 q-35 0 -35 27q0 4 1 9q1 9 6 20h-4z" />
<glyph unicode="&#xe6;" horiz-adv-x="676" d="M673 96l-151 -22q-63 -7 -70 -7q-9 0 -19 1q-48 6 -74 28q-35 32 -39 71q-2 14 -2 29q0 39 13 84q2 5 4 12q14 51 46 83q33 34 71 37q22 2 40 2q36 0 55 -7q16 -5 31 -16t15 -28q0 -10 -5 -23q-4 -10 -10 -17q-23 -27 -71 -42q-24 -7 -31 -10q-82 -29 -137 -33 q-3 -1 -7 -1h-15q-45 0 -106 15l-5 1q-16 3 -23 12q-3 4 1 6q9 3 24 3q13 0 29 -2q12 -1 21 -1h37q41 3 89 12q42 9 74 19q24 7 49 21l26 13q5 5 8 12t3 13q0 12 -11 19q-3 1 -5 2q-11 3 -23 3q-22 0 -50 -10q-43 -14 -58 -31q-4 -4 -7 -9q-28 -42 -38 -105q-1 -5 -2 -11 q-1 -11 -1 -21q0 -32 14 -56q15 -26 55 -37q11 -3 31 -3q16 0 38 2q11 1 20 1l94 10q10 0 20 -1q33 -2 54 -13q3 -2 3 -3t-5 -2zM49 192l45 76q15 21 35 38q17 15 50 15h12h5q7 -1 -8 -8q-13 -7 -16 -10q-42 -42 -46 -47q-7 -8 -13 -18q-45 -70 -58 -105q-5 -13 -9 -27 q-5 -17 -5 -30q0 -22 14 -31q6 -4 13 -4q17 0 42 22q15 13 31 47q6 12 12 21l34 58q7 10 18 19q14 12 29 12q10 0 21 -6q17 -10 30 -41l6 -15q4 -9 18 -54q6 -20 16 -35q8 -10 34 -14q3 -1 6 -1q2 0 22 6q6 2 6 -3q-3 -13 -31 -15q-24 -3 -36 -3q-8 0 -11 1q-8 3 -14 8 q-18 14 -32 51q-6 16 -11 26l-14 40q-5 7 -14 9h-3q-12 0 -22 -20q-6 -13 -9 -17l-27 -50q-2 -2 -4 -5q-33 -44 -35 -46q-12 -13 -29 -22q-24 -13 -42 -13q-13 0 -23 7q-26 20 -30 70v7v2q0 17 14 44q4 9 7 15q15 36 22 46z" />
<glyph unicode="&#xe7;" horiz-adv-x="304" d="M12 195q9 47 40 89q36 47 76 69q4 2 7 4q45 25 89 25h6t3 -2q0 -6 -19 -22q-3 -2 -5 -4l-61 -37q-2 -1 -4 -3q-30 -23 -49 -49q-25 -33 -31 -58q-7 -34 -7 -49v-5q2 -9 7 -17q28 -44 77 -52q7 -1 15 -1q25 0 65 10q28 7 50 7q7 0 14 -1q5 -1 5 -3q0 -5 -25 -17 q-6 -4 -13 -7q-49 -26 -59 -29q-13 -4 -27 -5q-7 -1 -13 -1l-73 19q-40 21 -55 49q-2 3 -4 7q-12 25 -12 53q0 15 3 30zM122 40q-2 -6 -2 -14q0 -14 6 -34q1 -5 2 -8q2 -6 17 -30q8 -13 8 -24q0 -16 -19 -26q-6 -3 -26 1q-11 1 -17 -4q-9 -7 -9 -17q0 -4 1 -8q2 -7 8 -8 q16 -5 31 -5q25 0 49 14q28 16 28 55q-1 16 -18 43q-9 14 -13 25q-1 4 -1 18v17q1 15 -8 23q-5 4 -10 4q-10 0 -21 -12q-4 -5 -6 -10z" />
<glyph unicode="&#xe8;" horiz-adv-x="510" d="M494 38l-151 -22q-63 -7 -70 -7q-9 0 -19 1q-48 6 -74 28q-35 32 -39 71q-2 14 -2 29q0 39 13 84q2 5 4 12q14 51 46 83q33 34 71 37q22 2 40 2q36 0 55 -7q16 -5 31 -16t15 -28q0 -10 -5 -23q-4 -10 -10 -17q-23 -27 -71 -42q-24 -7 -31 -10q-82 -29 -137 -33 q-3 -1 -7 -1h-15q-45 0 -106 15l-5 1q-16 3 -23 12q-1 2 -1 3q0 2 2 3q9 3 24 3q13 0 29 -2q12 -1 21 -1h37q41 3 89 12q42 9 74 19q24 7 49 21l26 13q5 5 8 12t3 13q0 12 -11 19q-3 1 -5 2q-11 3 -23 3q-22 0 -50 -10q-43 -14 -58 -31q-4 -4 -7 -9q-28 -42 -38 -105 q-1 -5 -2 -11q-1 -11 -1 -21q0 -32 14 -56q15 -26 55 -37q11 -3 31 -3q16 0 38 2q11 1 20 1l94 10q10 0 20 -1q33 -2 54 -13q3 -2 3 -3t-5 -2zM361 446q4 -6 4 -12q0 -4 -3 -9q-1 -3 -4 -3q-1 0 -2 1q-29 13 -63 44q-3 3 -36 20q-20 10 -26 20q-3 5 -3 10q0 7 5 13q3 4 6 4 q2 0 3 -1q37 -17 70 -45l39 -30q7 -6 10 -12z" />
<glyph unicode="&#xe9;" horiz-adv-x="535" d="M240 481q-14 -1 -21 7q-3 4 0 7q24 24 70 47q6 2 34 27q18 17 31 20h2q13 0 21 -12q3 -7 -1 -10q-33 -31 -73 -53l-47 -28q-9 -4 -16 -5zM542 49l-165 -24q-69 -8 -76 -8q-10 0 -21 2q-52 6 -81 30q-38 35 -42 77q-2 16 -2 33q0 42 14 91q2 5 4 13q16 55 50 90 q36 37 78 40q26 2 46 2q38 0 57 -7q18 -5 34 -17t16 -31q0 -11 -5 -25q-4 -11 -11 -19q-25 -29 -77 -45q-26 -8 -34 -11q-89 -32 -149 -36q-4 -1 -8 -1q-9 -1 -19 -1q-48 0 -113 17l-5 1q-18 3 -25 13q-2 2 -2 4t3 3q10 3 26 3q13 0 31 -2q14 -1 23 -1h41q44 3 97 13 q45 10 80 21q27 7 54 22l28 15q6 5 9 13t3 14q0 13 -12 21q-3 1 -5 2q-12 4 -25 4q-25 0 -55 -12q-47 -15 -63 -34q-4 -4 -8 -9q-30 -46 -41 -115q-1 -5 -2 -12q-2 -13 -2 -24q0 -35 16 -60q16 -28 60 -40q12 -4 33 -4q18 0 42 3q12 1 22 1l102 11q11 0 22 -1q36 -3 59 -15 q4 -2 4 -3t-6 -2z" />
<glyph unicode="&#xea;" horiz-adv-x="535" d="M206 503q9 23 45 61q6 7 10 11q11 14 22 14q8 0 15 -7q45 -45 66 -92q3 -9 -10 -15q-7 -2 -11 0q-18 11 -44 45l-14 17l-39 -46q-9 -10 -22 -16q-13 -4 -18 13q-2 8 0 15zM530 40l-168 -24q-71 -8 -78 -8q-10 0 -21 1q-54 7 -83 31q-39 36 -43 79q-2 16 -2 33q0 43 14 93 l5 13q15 57 51 92q36 38 79 42q23 2 42 2q42 0 63 -8q18 -6 35 -18t17 -31q0 -11 -6 -25q-4 -12 -11 -19q-26 -30 -79 -47q-27 -8 -35 -11q-91 -33 -152 -37q-3 -1 -8 -1h-15q-50 0 -119 17l-6 1q-18 3 -26 13q-1 2 -1 3q0 3 3 4q10 3 26 3q14 0 32 -2q14 -1 24 -1h41 q46 3 99 13q47 10 82 21q27 8 55 24l29 14q5 6 9 13q3 8 3 15q0 13 -12 21q-4 1 -6 2q-12 4 -25 4q-25 0 -56 -12q-48 -15 -65 -34q-4 -4 -7 -10q-31 -47 -43 -117q-1 -5 -2 -12q-1 -11 -1 -22q0 -37 16 -64q16 -29 61 -41q12 -4 34 -4q18 0 43 3q12 1 22 1l104 11 q12 0 23 -1q36 -2 60 -14q4 -2 4 -4q0 -1 -6 -2z" />
<glyph unicode="&#xeb;" horiz-adv-x="514" d="M508 37l-163 -24q-69 -8 -76 -8q-10 0 -21 1q-51 7 -80 31q-37 34 -42 76q-2 15 -2 30q0 42 14 92q2 6 5 13q15 55 49 90q36 37 77 40q24 2 43 2q39 0 60 -7q17 -6 33 -18q16 -11 16 -30q0 -11 -5 -25q-5 -11 -11 -18q-25 -29 -77 -45q-26 -8 -33 -11q-89 -32 -148 -36 q-3 -1 -8 -1h-15q-49 0 -115 16l-6 1q-17 4 -25 13q-1 2 -1 4t2 3q10 3 27 3q13 0 31 -2q13 -1 22 -1h40q45 3 96 13q46 9 80 20q26 8 53 23l28 14q6 5 9 13t3 14q0 13 -12 20q-3 2 -5 3q-11 3 -24 3q-24 0 -55 -11q-46 -15 -62 -33q-5 -5 -8 -10q-30 -46 -41 -114 q-1 -5 -2 -11q-2 -12 -2 -24q0 -34 16 -60q16 -28 59 -40q13 -3 34 -3q17 0 41 2q12 1 21 1l102 11q11 0 21 -1q36 -2 59 -14q3 -2 3 -3t-5 -2zM315 496q8 20 32 21h3q12 0 18 -7q7 -9 7 -19q0 -11 -8 -22q-7 -11 -18 -13q-4 -1 -7 -1q-15 0 -24 19q-7 12 -3 22zM153 507 q11 12 25 12q8 0 17 -4q11 -4 18 -13q4 -5 4 -9q0 -10 -15 -20q-8 -6 -15 -6h-4q-21 1 -31 20q-2 5 -2 10t3 10z" />
<glyph unicode="&#xec;" horiz-adv-x="202" d="M171 476q4 -7 4 -14q0 -5 -3 -11q-2 -5 -7 -2q-35 15 -76 52q-4 4 -43 24q-24 13 -32 25q-3 6 -3 11q0 8 6 16q4 5 8 5q2 0 3 -1q44 -21 84 -54l47 -36q8 -8 12 -15zM58 378q11 20 31 22h3q14 0 16 -16q4 -14 5 -58q1 -6 1 -12l4 -107q1 -15 5 -30l15 -104l3 -7l18 -29 q2 -6 2 -15q0 -4 -5 -4q-8 0 -29 10q-7 3 -10 6q-12 9 -21 36l-2 7q-15 34 -18 60l-9 97l-9 98l-4 35q1 5 4 11z" />
<glyph unicode="&#xed;" horiz-adv-x="214" d="M30 488q-16 -1 -23 8q-1 2 -1 3.5t1 3.5q26 27 76 52q7 2 37 29q20 19 35 22h2q14 0 23 -13q1 -3 1 -5q0 -4 -3 -6q-35 -33 -79 -57l-51 -31q-10 -5 -18 -6zM44 369q11 20 31 23h2q15 0 17 -17q4 -13 5 -57q1 -6 1 -12l4 -106q1 -14 4 -30l16 -102l2 -7l18 -29 q2 -6 2 -14q1 -5 -5 -5q-7 0 -28 10q-7 3 -11 6q-12 9 -20 35l-2 7q-15 34 -18 60l-8 96l-10 97l-4 34q2 5 4 11z" />
<glyph unicode="&#xee;" horiz-adv-x="184" d="M16 465q9 24 46 63q6 7 11 11q11 14 22 14q8 0 15 -7q45 -45 67 -94q1 -2 1 -3q0 -7 -11 -12q-7 -2 -12 0q-18 11 -44 45q-8 11 -15 19l-39 -48q-9 -10 -23 -16q-12 -5 -18 14q-1 4 -1 7.5t1 6.5zM48 350q10 19 29 21h2q14 0 16 -16q4 -12 5 -54q1 -6 1 -12l3 -101 q2 -13 5 -28l15 -98l2 -6l17 -28q2 -5 2 -14q0 -4 -5 -4q-8 0 -26 9q-7 4 -11 6q-11 9 -19 34l-2 7q-14 32 -17 57l-8 92l-9 91l-4 33q1 5 4 11z" />
<glyph unicode="&#xef;" horiz-adv-x="262" d="M93 338q10 19 29 21q16 1 18 -15q4 -13 5 -54q1 -6 1 -11l3 -100q1 -13 5 -28l14 -96l2 -7l17 -27q3 -6 3 -14q0 -4 -5 -4q-8 0 -27 9q-7 3 -10 6q-11 9 -19 33l-2 7q-14 31 -17 56l-8 91l-9 90l-3 33q1 4 3 10zM190 443q7 22 32 23h3q13 0 19 -8q8 -9 8 -20t-9 -23 q-8 -11 -19 -13q-3 -1 -7 -1q-15 0 -25 20q-7 12 -2 22zM22 454q10 13 25 13q8 0 18 -4q11 -4 18 -13q4 -5 4 -10q0 -10 -15 -20q-9 -7 -18 -7h-2q-22 1 -32 21q-2 5 -2 9q0 6 4 11z" />
<glyph unicode="&#xf0;" d="M44 436q-20 19 -9 19h1q3 0 75 -24q35 -11 50 -11q16 0 93 25q22 8 31 8q6 0 7 -3q1 -5 -14 -20q-44 -46 -75 -53q-12 -2 -26 -2q-60 2 -115 46q-8 7 -18 15zM359 194q-41 60 -111 101q-14 7 -45 25q-2 1 -5 1l-15 -13q-9 -13 -2 -19l81 -55q37 -30 61 -73q7 -15 7 -29 q0 -25 -21 -48q-6 -5 -12 -11q-31 -22 -76 -22q-14 0 -29 2q-7 1 -17 2q-64 9 -78 14q-27 12 -39 39q-1 3 -1 8q0 24 45 71q21 24 15 24q-3 0 -8 -1q-46 -15 -55 -22q-4 -4 -13 -16q-33 -41 -33 -65q0 -10 4 -22q14 -36 65 -52q6 -2 18 -5q71 -18 123 -18q15 0 29 2 q15 2 33 5q67 12 89 64q12 25 12 50q0 32 -22 63z" />
<glyph unicode="&#xf1;" horiz-adv-x="397" d="M5 435q21 46 52 69q1 2 3 3q16 12 35 12q10 0 21 -4q19 -6 46 -32l18 -16l22 -20q5 -3 9 -4q25 -9 43 -9q7 0 13 1q17 3 44 24q3 3 6 5l47 42q5 4 9 8l22 18q2 0 2 -1t-1 -2q-6 -20 -33 -53l-5 -5q-15 -22 -36 -36q-36 -28 -40 -30q-11 -5 -22 -7q-6 -1 -13 -1 q-19 0 -45 10q-4 2 -7 3q-8 3 -31 25l-28 30q-5 4 -9 6q-20 12 -38 12h-5q-14 -1 -31 -20q-4 -5 -17 -32q-6 -13 -17 -20q-9 -5 -14 11q-1 4 -1 7t1 6zM15 302q1 12 16 14q10 1 14 -6q37 -96 43 -194q1 -11 1 1v9q0 92 21 143q13 30 48 45q28 13 48 13q9 0 17 -3q2 -1 5 -2 q29 -14 51 -53l11 -20q13 -20 41 -87q5 -14 11 -26l40 -76l1 -1q1 -2 1 -3q0 -2 -3 -2q-7 0 -29 10q-12 4 -24 11q-9 6 -23 29l-46 94q0 1 -1 2q-20 35 -33 46q-2 1 -5 3q-9 8 -22 8q-8 0 -18 -4q-19 -6 -29 -28q-14 -28 -19 -68v-10q0 -18 4 -60v-9q0 -29 -11 -50 q-9 -16 -24 -16q-6 0 -14 3q-14 5 -20 16q-21 34 -27 98q-3 32 -7 51l-18 85q-1 9 -1 18t1 19z" />
<glyph unicode="&#xf2;" d="M269 388q8 -12 1 -23q-2 -4 -6 -2q-32 14 -69 48q-3 3 -39 22q-22 11 -28 22q-7 13 2 25q3 4 7 4q1 0 3 -1q40 -19 76 -49l42 -33q8 -6 11 -13zM31 193q41 60 111 101l45 25q3 1 5 1q8 0 16 -13q9 -13 1 -18l-81 -56q-38 -30 -62 -74q-7 -15 -7 -29q0 -24 22 -48 q5 -6 12 -11q32 -23 77 -23q13 0 28 2q8 1 18 2q64 9 78 14q28 12 40 40q1 3 1 8q0 24 -45 71q-22 24 -15 24q2 0 7 -1q47 -14 56 -22q4 -4 13 -16q34 -43 34 -68q0 -8 -5 -19q-14 -37 -65 -52q-7 -3 -19 -6q-71 -18 -123 -18q-16 0 -30 2q-15 2 -33 5q-67 12 -90 64 q-12 26 -12 51q0 33 23 64z" />
<glyph unicode="&#xf3;" d="M137 412q-14 -1 -20 8q-4 3 0 6q24 24 69 47q7 2 34 27q19 18 32 20h2q13 0 21 -12q3 -7 -1 -10q-33 -30 -73 -52l-47 -29q-9 -4 -17 -5zM28 199q42 60 112 102q14 7 45 25q2 1 5 1q8 0 16 -13q9 -13 1 -19l-82 -55q-37 -31 -61 -74q-7 -15 -7 -30q0 -25 21 -48 q6 -5 12 -11q32 -22 77 -22q14 0 29 2q8 1 18 2q64 9 78 14q27 12 39 39q2 4 2 8q0 25 -45 72q-22 24 -16 24q3 0 8 -1q47 -14 56 -22q4 -4 13 -16q34 -43 34 -68q0 -9 -5 -20q-14 -37 -65 -52q-7 -2 -19 -5q-74 -18 -127 -18q-14 0 -26 1q-16 2 -33 6q-68 12 -91 64 q-12 25 -12 50q0 33 23 64z" />
<glyph unicode="&#xf4;" d="M114 436q9 23 45 60q6 6 10 11q10 13 21 13l15 -7q44 -43 64 -90q3 -9 -10 -14q-6 -2 -10 0q-18 11 -43 43l-14 18l-38 -46q-9 -10 -22 -15q-12 -5 -18 13q-2 7 0 14zM28 199q42 60 112 102q14 7 45 25q2 1 5 1q8 0 16 -13q9 -13 1 -19l-82 -55q-37 -31 -61 -74 q-7 -15 -7 -30q0 -25 21 -48q6 -5 12 -11q32 -22 77 -22q14 0 29 2q8 1 18 2q64 9 78 14q27 12 39 39q2 4 2 8q0 25 -45 72q-22 24 -16 24q3 0 8 -1q47 -14 56 -22q4 -4 13 -16q34 -43 34 -68q0 -9 -5 -20q-14 -37 -65 -52q-7 -2 -19 -5q-74 -18 -127 -18q-14 0 -26 1 q-16 2 -33 6q-68 12 -91 64q-12 25 -12 50q0 33 23 64z" />
<glyph unicode="&#xf5;" d="M-14 417q22 47 53 70q1 2 3 3q17 13 35 13q10 0 21 -4q20 -7 48 -32q10 -10 18 -17l23 -20q4 -3 8 -4q27 -10 47 -10q6 0 11 1q17 3 44 25q3 3 6 5q8 6 48 42q5 5 10 9l22 18q2 0 2 -1t-1 -2q-6 -21 -34 -54q-2 -3 -4 -5q-16 -22 -37 -37q-37 -28 -41 -30q-11 -6 -23 -8 q-5 -1 -11 -1q-20 0 -47 11q-4 2 -8 3q-8 3 -31 25l-29 31q-5 3 -9 6q-21 13 -39 13h-5q-14 -2 -31 -21q-5 -5 -18 -32q-6 -14 -17 -21q-10 -5 -14 11q-1 4 -1 7t1 6zM24 193q41 60 110 101q14 7 45 25q2 1 5 1q8 0 16 -13t1 -19l-81 -55q-37 -30 -61 -73q-7 -15 -7 -29 q0 -25 21 -48q6 -5 12 -11q31 -22 76 -22q14 0 29 2q8 1 17 2q64 9 78 14q27 12 39 39q2 4 2 8q0 25 -45 71q-22 24 -15 24q2 0 7 -2q47 -14 55 -21q5 -4 13 -16q34 -43 34 -67q0 -9 -5 -20q-14 -36 -64 -52q-7 -2 -19 -5q-71 -18 -123 -18q-15 0 -29 2q-15 2 -32 5 q-67 12 -90 64q-12 25 -12 49q0 33 23 64z" />
<glyph unicode="&#xf6;" horiz-adv-x="433" d="M28 219q45 64 119 109q16 8 50 27q10 5 22 -13q9 -14 1 -20l-88 -60q-40 -33 -65 -79q-9 -17 -9 -33q0 -26 24 -51l13 -11q34 -24 82 -24q15 0 31 2q8 1 19 2q69 9 84 15q29 13 42 42q2 4 2 9q0 27 -48 77q-19 19 -19 24q0 1 2 1t8 -1q51 -15 60 -23q5 -5 14 -18 q36 -45 36 -70q0 -11 -4 -23q-16 -40 -71 -57q-7 -2 -19 -5q-79 -20 -135 -20q-16 0 -30 2q-17 2 -36 6q-72 13 -97 69q-12 27 -12 53q0 36 24 70zM270 477q8 23 34 24h3q13 0 21 -8q8 -9 8 -20q0 -12 -10 -25q-8 -12 -19 -14q-4 -1 -7 -1q-17 0 -27 21q-7 13 -3 23zM95 489 q11 13 26 13q9 0 19 -4q12 -4 19 -14q4 -5 4 -10q0 -10 -16 -21q-9 -7 -19 -7h-2q-22 1 -32 22q-3 6 -3 10q0 6 4 11z" />
<glyph unicode="&#xf7;" horiz-adv-x="474" d="M92 395q8 1 32 1t63 -1h13h153h11l71 7q19 -2 19 -20q0 -27 -47 -27q-44 -2 -43 -2q-55 -4 -114 -4t-123 4l-69 3q-24 4 -40 22q-3 4 -3 7q0 8 18 9zM242 254q12 -10 12 -24q0 -8 -4 -17q-1 -5 -5 -8q-18 -21 -35 -21q-7 0 -14 4q-3 1 -6 3q-12 9 -12 23q0 11 9 26 q3 3 6 7q13 15 27 15q7 0 15 -4zM207 554h7q41 0 48 -31q2 -6 2 -12q0 -17 -17 -30q-9 -7 -19 -7h-1q-24 0 -35 35q-1 4 -2 10q-2 7 -2 12q0 15 12 21q3 2 7 2z" />
<glyph unicode="&#xf8;" d="M149 184l50 101l59 115l26 51q5 8 12 16q6 6 13 6q4 0 9 -2q3 -1 3 -4q-1 -27 -23 -75l-5 -12q-6 -15 -58 -116l-47 -91l-42 -97q-7 -13 -16 -25q-29 -43 -38 -50q-7 -5 -13 -5q-5 0 -10 4q-2 2 -2 6q0 13 20 50q8 16 12 25q5 12 50 103zM20 214q43 62 116 105l47 26 q2 1 4 1q9 0 18 -14q9 -13 1 -19l-85 -58q-39 -31 -63 -76q-8 -16 -8 -31q0 -26 22 -50l13 -11q33 -23 78 -23q15 0 31 2q8 1 18 2q67 9 82 14q28 13 40 41q2 4 2 9q0 26 -47 74q-22 25 -16 25q3 0 8 -2q49 -14 58 -22q5 -5 14 -17q36 -45 35 -71q-2 -11 -5 -20 q-15 -38 -68 -54q-7 -2 -19 -5q-75 -19 -129 -19q-16 0 -30 2q-16 2 -34 5q-70 13 -94 67q-12 26 -12 52q0 35 23 67z" />
<glyph unicode="&#xf9;" horiz-adv-x="376" d="M249 401q7 -12 1 -24q-2 -4 -7 -2q-32 15 -71 49q-3 4 -40 23q-22 11 -29 22q-7 14 2 26q3 4 7 4l3 -1q42 -19 79 -50l43 -34q8 -6 12 -13zM324 251l-5 28q1 3 5 7q5 4 21 -5q4 -2 8 -3l14 -39q8 -32 8 -54q0 -17 -10 -41q-1 -2 -2 -5q-10 -21 -18 -33q-28 -47 -89 -75 l-20 -9q-16 -7 -36 -7q-35 0 -82 20q-22 9 -37 21q-36 29 -50 58q-3 7 -6 15q-5 9 -9 24q-9 27 -9 60q0 27 6 58q7 28 22 53q1 2 7 2t18 -2q24 -7 17 -20q-11 -23 -17 -58v-6q0 -15 7 -45q1 -3 1 -7q6 -22 34 -69q30 -31 56 -41q6 -2 9 -2q20 0 60 14l6 2q20 7 40 27 q29 29 39 55q8 20 12 70v7z" />
<glyph unicode="&#xfa;" horiz-adv-x="376" d="M134 386q-14 -1 -21 8q-3 3 0 7q25 24 71 47q7 3 35 28q19 18 32 20h2q13 0 21 -12q4 -7 -1 -10q-33 -31 -74 -53l-48 -29q-9 -5 -17 -6zM321 244l-5 28q1 3 5 7q5 4 21 -5q4 -2 8 -3l14 -39q8 -32 8 -53q0 -17 -10 -40q-1 -2 -2 -6q-10 -21 -18 -32q-28 -47 -88 -74 q-13 -7 -20 -9q-16 -7 -37 -7q-34 0 -80 19q-22 9 -37 21q-36 29 -49 58l-7 14q-4 9 -8 25q-9 26 -9 59q0 26 6 57q7 28 21 52q2 3 8 3t18 -3q23 -6 17 -20q-12 -22 -17 -56v-6q0 -16 7 -45q1 -4 1 -7q5 -22 33 -69q30 -30 56 -40q5 -2 8 -2q20 0 60 13q3 1 6 3q20 6 40 26 q29 29 39 55q7 20 11 70v6z" />
<glyph unicode="&#xfb;" horiz-adv-x="376" d="M104 409q9 23 46 61l10 12q11 13 22 13q7 0 15 -7q45 -44 66 -93q4 -9 -10 -14q-7 -2 -11 0q-18 11 -44 45l-14 18l-40 -48q-8 -10 -22 -15q-12 -5 -18 13q-2 8 0 15zM324 244l-5 28q1 4 5 7q5 4 21 -5q4 -2 8 -3l14 -39q8 -32 8 -53q0 -18 -10 -41q-1 -2 -2 -6 q-10 -21 -18 -32q-28 -47 -89 -75q-13 -7 -20 -9q-16 -7 -37 -7q-35 0 -81 19q-22 9 -37 21q-36 29 -50 59q-3 6 -6 14q-5 9 -9 25q-9 26 -9 59q0 27 6 58q7 28 22 53q1 3 7 3t18 -3q24 -7 17 -20q-11 -23 -17 -57v-6q0 -16 7 -46q1 -3 1 -7q6 -22 34 -69q30 -30 56 -40 q6 -3 9 -3q20 0 60 14l6 2q20 7 40 27q29 29 39 55q8 20 12 70v7z" />
<glyph unicode="&#xfc;" horiz-adv-x="430" d="M355 268l-4 31q1 4 4 7q7 5 24 -5q5 -2 8 -3l16 -43q9 -36 9 -60q0 -18 -11 -44q-1 -2 -2 -6q-12 -23 -20 -36q-31 -51 -97 -82q-15 -7 -22 -10q-18 -7 -41 -7q-39 0 -90 21q-23 10 -40 23q-40 32 -55 64l-7 16q-5 10 -10 27q-9 28 -9 63q0 30 7 66q7 31 23 58q3 6 28 0 q20 -6 20 -16q0 -3 -1 -6q-12 -25 -19 -63v-6q0 -17 8 -50q1 -4 1 -8q6 -24 37 -76q33 -33 61 -44q7 -3 10 -3q22 0 67 15q2 1 6 2q22 8 44 30q32 32 43 60q9 22 12 78v7zM271 444q8 23 35 25h3q14 0 22 -9q8 -10 8 -22t-9 -25q-9 -12 -21 -14q-4 -1 -7 -1q-17 0 -29 21 q-7 14 -2 25zM86 456q12 14 29 14q9 0 19 -4q12 -5 20 -15q4 -5 4 -10q0 -12 -17 -23q-10 -7 -20 -7h-2q-23 1 -34 23q-3 6 -3 11q0 6 4 11z" />
<glyph unicode="&#xfd;" horiz-adv-x="385" d="M125 332q-13 -1 -19 7q-3 3 0 6q22 22 64 43q6 2 31 25q17 16 29 18h2q12 0 19 -11q3 -6 -1 -9q-30 -28 -67 -48l-43 -26q-8 -4 -15 -5zM260 32l28 88l24 80q1 1 1 2l19 57q7 13 17 24q3 4 7 4q6 0 13 -9q5 -6 5 -13q0 -14 -12 -39q-3 -6 -5 -12l-34 -99l-31 -99 q-21 -60 -25 -73q-34 -104 -34 -122q0 -8 3 -35q0 -7 -1 -8q-2 0 -4 2q-18 14 -22 53q-1 9 -1 11v6q0 15 8 47q3 13 25 78q7 19 19 57zM103 99q-45 30 -72 57l-24 25q-7 9 -8 21q0 13 15 16h3q5 0 10 -2q18 -11 44 -43q18 -22 34 -33q30 -21 82 -36q33 -10 59 -10h8 q6 1 38 19q-24 -33 -34 -39l-15 -7q-7 -3 -18 -3q-9 0 -22 2q-4 1 -8 1q-22 2 -48 11q-33 13 -44 21z" />
<glyph unicode="&#xfe;" horiz-adv-x="343" d="M85 510q44 5 77 5q37 0 63 -6q16 -5 34 -12q47 -19 52 -82q1 -10 1 -19q0 -53 -36 -74q-61 -36 -140 -36h-8h-36q-12 1 -7 25q4 17 14 17l76 -4q26 2 46 10q51 24 52 73q0 38 -50 57q-16 6 -47 6q-13 0 -30 -1h-14q-23 0 -42 5q-13 4 -13 24q0 11 8 12zM32 51q43 5 97 5 q59 0 132 -6q23 -1 36 -3q6 0 6 -2q0 -1 -11 -4q-81 -19 -213 -25q-24 -1 -42 -1q-11 0 -12 21q0 14 7 15zM12 711q41 4 94 4q65 0 146 -6q25 -3 42 -4q18 -2 18 -4q0 -3 -28 -7q-119 -19 -259 -19h-15q-7 1 -7 12q0 4 1 10q2 13 8 14zM10 646l46 4l23 -586l-47 3 q-8 143 -22 579z" />
<glyph unicode="&#xff;" horiz-adv-x="385" d="M219 396q7 19 29 20h3q11 0 17 -7q7 -8 7 -17q0 -10 -8 -21q-7 -10 -17 -12q-3 -1 -6 -1q-14 0 -23 18q-6 11 -2 20zM69 406q10 12 23 12q7 0 16 -4q10 -4 16 -12q3 -4 3 -9q0 -9 -13 -18q-9 -7 -18 -6q-19 1 -28 19q-5 10 1 18zM260 32l28 88l24 80q1 1 1 2l19 57 q7 13 17 24q3 4 7 4q6 0 13 -9q5 -6 5 -13q0 -14 -12 -39q-3 -6 -5 -12l-34 -99l-31 -99q-21 -60 -25 -73q-34 -104 -34 -122q0 -8 3 -35q0 -7 -1 -8q-2 0 -4 2q-18 14 -22 53q-1 9 -1 11v6q0 15 8 47q3 13 25 78q7 19 19 57zM103 99q-45 30 -72 57l-24 25q-7 9 -8 21 q0 13 15 16h3q5 0 10 -2q18 -11 44 -43q18 -22 34 -33q30 -21 82 -36q33 -10 59 -10h8q6 1 38 19q-24 -33 -34 -39l-15 -7q-7 -3 -18 -3q-9 0 -22 2q-4 1 -8 1q-22 2 -48 11q-33 13 -44 21z" />
<glyph unicode="&#x152;" horiz-adv-x="1325" d="M994 730q55 12 122 12q42 0 88 -5q-22 2 -22 2.5t71 -5.5q4 -1 8 -1q32 -3 49 -17q3 -3 3 -6t-4 -6q-32 -20 -92 -21q-24 -1 -37 -2l-119 -12h-7q-34 0 -66 8q-14 4 -14 20q0 6 2 13q4 18 18 20zM995 397q41 31 110 47q33 8 35 8l75 24q17 4 31 4q18 0 33 -6q7 -3 7 -7 q0 -11 -45 -31q-26 -14 -27 -14q-21 -9 -94 -29q-19 -4 -36 -10q-7 -3 -41 -24q-16 -11 -32 -11q-5 0 -9 1q-17 2 -17 25q0 17 10 23zM1205 264q-7 6 -7 -5l5 -45q-1 -7 -5 -9l-41 -34l-14 -7q-64 -28 -89 -32q-11 -1 -22 -1l-96 -6q-45 3 -66 35q-27 41 -27 96q0 36 12 79 q5 16 15 43l25 96l35 115l6 29q6 42 6 73q0 28 -5 48q-1 7 -4 13q-8 29 -30 35h-3q-6 0 -12 -3q-5 -3 -5.5 -10t5.5 -19q7 -14 7 -22q1 -13 1 -25q0 -34 -5 -56q-2 -11 -21 -78q-3 -6 -4 -11l-42 -140l-2 -12q-28 -113 -28 -114q-6 -30 -6 -66q0 -58 29 -108q24 -40 71 -55 q47 -14 100 -14q25 0 51 3q65 8 133 48q48 26 58 38q13 14 16 32q2 8 2 16q0 40 -43 73zM707 369q-17 -71 -42 -110q-42 -64 -98 -106q-47 -37 -118 -59q-55 -19 -95 -19q-8 0 -16 1q-60 7 -106 42q-45 36 -84 102q-5 8 -5 9q-34 58 -47 123q-4 28 -4 61t4 70q12 85 39 140 q29 62 75 98q13 10 62 22q30 8 38 23q1 3 1 7q0 12 -9 25q-3 5 -8 7q-8 4 -18 4q-17 0 -40 -12q-49 -14 -63 -28q-6 -6 -9 -10q-74 -97 -81 -107q-31 -50 -41 -105q-14 -65 -14 -122q0 -60 16 -112q4 -13 19 -51q52 -122 113 -172q29 -25 73 -44q54 -23 111 -23q61 0 125 27 q19 7 39 18q121 57 179 150q21 36 34 66q29 66 29 169v26q-2 62 -40 135q-31 59 -72 88q-3 3 -8 6q-24 16 -49 16l-27 -5q-17 -6 -17 -23q0 -4 1 -8q1 -7 6 -13q6 -8 27 -8h5q14 0 22 -6q38 -28 61 -73q24 -44 32 -105q6 -34 5.5 -62.5t-5.5 -51.5z" />
<glyph unicode="&#x153;" horiz-adv-x="923" d="M904 48l-171 -25q-71 -8 -79 -8q-11 0 -22 1q-54 7 -84 32q-40 36 -44 80q-2 16 -2 34q0 44 14 95q3 5 5 13q16 58 52 94q37 39 81 42q27 2 48 2q39 0 59 -7q19 -6 36 -19q17 -12 17 -31q0 -12 -6 -26q-5 -12 -11 -20q-27 -30 -81 -47q-27 -8 -35 -12q-93 -33 -156 -37 q-3 -1 -8 -1q-9 -1 -19 -1q-50 0 -118 18l-6 1q-18 3 -26 13q-1 2 -1 4t2 3q11 4 28 4q14 0 33 -3q13 -1 23 -1h42q47 4 101 14q48 10 84 21q28 8 56 24l30 15q5 6 9 14q3 8 3 15q0 13 -12 21q-4 1 -6 2q-12 4 -26 4q-26 0 -57 -12q-49 -16 -66 -35q-4 -4 -8 -10 q-32 -48 -43 -119q-1 -6 -2 -13q-2 -13 -2 -24q0 -36 17 -63q17 -30 62 -42q13 -4 35 -4q18 0 43 3q13 1 23 1l107 11q11 0 22 -1q38 -2 62 -15q3 -2 3 -3t-6 -2zM28 204q42 61 113 103l47 26q2 1 4 1q8 0 17 -14q9 -13 1 -19l-83 -56q-38 -31 -62 -76q-8 -16 -8 -31 q0 -24 22 -48q6 -5 12 -11q33 -23 79 -23q14 0 29 2q8 1 18 2q66 9 80 15q28 12 40 40q2 4 2 8q0 25 -46 73q-23 24 -16 24q2 0 8 -1q48 -14 57 -22l13 -17q34 -43 34 -69q0 -8 -4 -20q-15 -38 -67 -53q-6 -2 -19 -6q-73 -18 -126 -18q-17 0 -31 2q-15 2 -33 5 q-69 12 -92 66q-12 26 -12 51q0 34 23 66z" />
<glyph unicode="&#x178;" horiz-adv-x="649" d="M675 937q13 31 58 36q6 1 11 1q22 0 35 -13q14 -14 14 -31q0 -15 -12 -32q-15 -21 -40 -27q-5 -1 -11 -1q-27 0 -48 27q-10 13 -10 26q0 7 3 14zM404 940q20 20 50 20q13 0 29 -4q24 -7 38 -23q7 -7 7 -15q0 -14 -21 -29t-42 -15h-3q-36 1 -58 31q-7 10 -7 18.5t7 16.5z M442 424l45 132l34 108q3 9 8 18l28 81q12 22 31 41q6 5 12 5q10 0 21 -11q8 -9 9 -18v-6q0 -20 -16 -49q-9 -14 -12 -26l-56 -150l-52 -149l-42 -112q-56 -163 -56 -184q0 -12 5 -51q2 -14 -2 -14h-1q-2 0 -5 2q-29 20 -35 71l-4 26q-1 4 -1 9q0 22 11 58q3 7 4 13l37 107 l5 12zM179 526q-71 43 -118 87l-37 33q-15 17 -15 37q0 17 22 22q5 1 9 1q8 0 14 -3q31 -17 73 -64q31 -34 57 -51q46 -30 128 -53l7 -3q49 -14 92 -14q10 0 20 1q13 0 59 30q5 3 6 4q1 0 1 -1t-3 -6q-38 -49 -51 -57l-30 -12q-13 -5 -33 -5q-13 0 -30 2q-10 2 -16 3 q-37 3 -81 17q-45 13 -74 32z" />
<glyph unicode="&#x2c6;" horiz-adv-x="396" d="M24 538q1 20 23 51q6 9 10 16q9 15 34 49l47 67q10 11 21 22l43 48q14 13 30 13q6 0 13 -2q19 -7 19 -36q0 -5 -1 -11q-3 -30 -3 -44v-5l3 -50q1 -6 3 -11q16 -46 40 -77q8 -10 26 -21q14 -9 33 -29q3 -3 3 -5q0 -3 -8 -3h-3q-24 1 -48 12q-31 15 -55 46q-25 32 -37 74 l-7 22q0 8 4 42q1 9 1 16q0 16 -7 16h-1q-8 -2 -40 -46q-6 -7 -8 -10q-24 -25 -61 -89q-23 -39 -47 -65q-9 -9 -22 1q-5 4 -5 9z" />
<glyph unicode="&#x2dc;" horiz-adv-x="342" d="M-220 102q20 47 59 77q17 13 36 13q11 0 23 -4q20 -7 50 -35l18 -16l26 -23q3 -2 7 -3q28 -10 47 -10q7 0 13 1q18 3 47 26q3 3 6 5q8 6 49 42q6 6 13 12l23 19q2 0 2 -2q0 -13 -41 -64q-21 -25 -39 -38l-41 -31q-11 -7 -26 -9q-6 -1 -12 -1q-22 0 -53 12l-4 2 q-9 4 -33 27l-33 34l-7 4q-24 14 -42 14h-4q-15 -1 -33 -22q-6 -6 -19 -34q-7 -15 -19 -21q-9 -6 -13 11q-2 4 -2 7.5t2 6.5z" />
<glyph unicode="&#x2000;" horiz-adv-x="486" />
<glyph unicode="&#x2001;" horiz-adv-x="973" />
<glyph unicode="&#x2002;" horiz-adv-x="486" />
<glyph unicode="&#x2003;" horiz-adv-x="973" />
<glyph unicode="&#x2004;" horiz-adv-x="324" />
<glyph unicode="&#x2005;" horiz-adv-x="243" />
<glyph unicode="&#x2006;" horiz-adv-x="162" />
<glyph unicode="&#x2007;" horiz-adv-x="162" />
<glyph unicode="&#x2008;" horiz-adv-x="121" />
<glyph unicode="&#x2009;" horiz-adv-x="194" />
<glyph unicode="&#x200a;" horiz-adv-x="54" />
<glyph unicode="&#x2010;" horiz-adv-x="514" d="M100 399q8 1 33.5 1t67.5 -1h14h162h12l75 7q20 -2 20 -21q0 -29 -49 -29q-47 -1 -46 -1q-58 -5 -120.5 -5t-130.5 5l-74 2q-25 5 -42 24q-3 4 -3 7q0 8 19 10z" />
<glyph unicode="&#x2011;" horiz-adv-x="514" d="M100 399q8 1 33.5 1t67.5 -1h14h162h12l75 7q20 -2 20 -21q0 -29 -49 -29q-47 -1 -46 -1q-58 -5 -120.5 -5t-130.5 5l-74 2q-25 5 -42 24q-3 4 -3 7q0 8 19 10z" />
<glyph unicode="&#x2013;" horiz-adv-x="512" d="M19 350v56h463v-56h-463z" />
<glyph unicode="&#x2014;" horiz-adv-x="1024" d="M19 350v56h975v-56h-975z" />
<glyph unicode="&#x2018;" horiz-adv-x="207" d="M178 691q4 -7 4 -14t-4 -13q-1 -3 -3 -3q-1 0 -3 1q-41 20 -80 57q-4 3 -47 25q-24 12 -32 26q-4 6 -4 13q0 8 7 16q4 5 8 5l2 -1q44 -20 89 -57l50 -40q8 -7 13 -15z" />
<glyph unicode="&#x2019;" horiz-adv-x="203" d="M95 769q7 14 21 15h1q3 0 5 -4q2 -13 -10 -71q-1 -5 -1 -8q-2 -4 6 -51q1 -8 1 -15q0 -15 -4 -24q-7 -13 -24 -15q-9 0 -10 7q-6 39 -6 69q0 17 2 32q4 30 19 65z" />
<glyph unicode="&#x201c;" horiz-adv-x="234" d="M163 739q7 16 22 17q7 1 7 -4q1 -4 1 -11q0 -22 -12 -72q-1 -5 -1 -11q0 -11 7 -54q1 -11 1 -20q0 -15 -4 -26q-6 -16 -27 -17q-11 0 -12 9q-6 37 -6 79q0 18 1 37q5 34 23 73zM55 783q7 15 22 17h2q5 0 5 -5q1 -4 1 -9q0 -24 -13 -82q-2 -4 7 -58q1 -11 1 -19 q0 -16 -4 -26q-6 -15 -27 -16q-10 0 -11 8q-7 32 -7 68q0 23 3 47q1 34 21 75z" />
<glyph unicode="&#x201d;" horiz-adv-x="234" d="M163 739q7 16 22 17q7 1 7 -4q1 -4 1 -11q0 -22 -12 -72q-1 -5 -1 -11q0 -11 7 -54q1 -11 1 -20q0 -15 -4 -26q-6 -16 -27 -17q-11 0 -12 9q-6 37 -6 79q0 18 1 37q5 34 23 73zM55 783q7 15 22 17h2q5 0 5 -5q1 -4 1 -9q0 -24 -13 -82q-2 -4 7 -58q1 -11 1 -19 q0 -16 -4 -26q-6 -15 -27 -16q-10 0 -11 8q-7 32 -7 68q0 23 3 47q1 34 21 75z" />
<glyph unicode="&#x2026;" horiz-adv-x="573" d="M451 70q24 21 41 21q3 0 6 -1q39 -12 39 -35q0 -3 -1 -7q-7 -33 -56 -42q-6 -1 -12 -1q-28 0 -37 25q-3 4 -3 9q0 15 23 31zM260 70q24 21 41 21q3 0 6 -1q39 -12 39 -35q0 -3 -1 -7q-7 -33 -56 -42q-6 -1 -12 -1q-28 0 -37 25q-3 4 -3 9q0 15 23 31zM69 70q24 21 41 21 q3 0 6 -1q39 -12 39 -35q0 -3 -1 -7q-7 -33 -56 -42q-6 -1 -12 -1q-28 0 -37 25q-3 4 -3 9q0 15 23 31z" />
<glyph unicode="&#x202f;" horiz-adv-x="194" />
<glyph unicode="&#x2039;" horiz-adv-x="589" d="M111 399l70 -28q7 -4 14 -9q20 -12 88 -66l28 -22l127 -85q6 -3 12 -8q5 -4 52 -31q29 -15 29 -30q0 -7 -5 -13q-9 -12 -24 -12q-18 0 -43 16q-41 24 -46 26q-36 16 -110 67q-15 11 -28 19l-128 92q-12 8 -25 15q-10 6 -48 13q-20 4 -32 16q-15 15 -15 30q0 11 7 22 q2 2 5 6q29 34 92 66l45 25q70 43 167 95q49 26 88 40q4 2 51 29q16 9 27 9q13 0 19 -12q3 -6 3 -13q0 -19 -32 -39q-43 -26 -42 -25q-23 -16 -87 -46l-25 -12l-92 -47l-64 -41l-1 -1z" />
<glyph unicode="&#x203a;" horiz-adv-x="589" d="M472 394l-69 -29q-6 -3 -13 -8q-22 -13 -92 -68q-13 -10 -25 -18l-125 -85l-12 -10l-71 -41q-11 -9 -11 -19q0 -6 5 -13q10 -12 25 -12q18 0 44 16q39 23 43 26q39 17 115 71l23 16l129 91l24 14q9 5 48 13q20 4 32 15q15 15 15 31q0 11 -8 23q-1 3 -4 5q-30 33 -94 66 l-44 24q-94 58 -165 94q-45 25 -88 41q-4 1 -51 28q-16 10 -27 10q-13 0 -19 -12q-3 -6 -3 -12q0 -20 34 -40q40 -24 41 -25q22 -18 86 -46q14 -6 26 -12l91 -47l63 -40z" />
<glyph unicode="&#x205f;" horiz-adv-x="243" />
<glyph unicode="&#x2122;" horiz-adv-x="1366" d="M557 100q-5 21 -5 48q0 30 6 67q5 29 7 48q4 32 30 190q0 4 1 9q21 123 29 153l19 83q7 23 21 45q14 24 35 24q9 0 15 -7q17 -24 20 -75q2 -30 7 -48l36 -131q12 -33 28 -65q22 -45 65 -57q10 -3 20 -3q28 0 54 21q29 24 57 76l15 27l59 124l1 1l33 66q12 17 31 30 q15 10 31 10q19 0 40 -14q28 -19 43 -67q1 -2 4 -11q18 -63 52 -228q5 -28 11 -54q13 -60 18 -99l22 -124q2 -14 2 -29.5t-2 -30.5q-3 -13 -20 -13h-5q-11 1 -15 8q-11 21 -11 66q0 20 -3 34l-25 118l-33 146q-25 118 -34 149l-13 50q-5 9 -13 17q-6 8 -14 8t-17 -7l-5 -4 q-17 -25 -44 -88q-11 -27 -23 -48q-58 -97 -73 -117q-10 -14 -23 -29q-24 -26 -63 -41q-10 -4 -19.5 -4t-20.5 4q-63 20 -83 34q-11 6 -20 15q-20 18 -35 61q-2 8 -4 13q-21 58 -43 150q-1 3 -9 73q0 4 -1 9l-28 -139q-21 -87 -26 -113q-9 -53 -17 -122q-17 -131 -19 -160 q0 -5 10 -32q7 -15 -3 -24q-11 -12 -24 -12q-7 0 -15 3q-12 5 -14 16zM159 651q4 37 33 49q3 1 6 1q16 0 26 -25q4 -13 4 -55q0 -12 2 -24l32 -144q10 -37 25 -74l60 -165q5 -10 8 -17l49 -102q21 -38 45 -64q8 -8 0 -8h-4q-32 5 -75 35q-23 19 -48 64l-8 14q-12 20 -37 77 q-34 82 -54 142q-31 99 -49 185q-16 70 -16 88q0 12 1 23zM62 692q35 13 161 45q71 17 172 36q120 23 160 25q3 1 6 1q9 0 9 -3q0 -6 -41 -24q-50 -21 -126 -47q-164 -58 -280 -80l-87 -19q-8 -1 -15 -1q-29 0 -51 17q-7 5 -7 10q0 11 38 23z" />
</font>
</defs>
</svg>
